<svg id="mark-gold" xmlns="http://www.w3.org/2000/svg" xmlns:xlink="http://www.w3.org/1999/xlink" width="94.302" height="129.845" viewBox="0 0 94.302 129.845">
  <defs>
    <clipPath id="clip-path">
      <rect id="Rectangle_49" data-name="Rectangle 49" width="94.302" height="129.845" fill="#dfa251"/>
    </clipPath>
  </defs>
  <g id="Group_3" data-name="Group 3" clip-path="url(#clip-path)">
    <path id="Path_35" data-name="Path 35" d="M64.076,0H84.8s-9.2,4.509-1.285,11.384c4.576,3.975,12.1,9.486,27.093,14.284l-5.825,7.367S84.183,26.7,74.307,13.76c0,0-9.487,13.107-30.561,19.275L37.7,25.668s17.278-4.24,27.815-14.52c0,0,7.307-6.3-1.442-11.148" transform="translate(-28.642)" fill="#dfa251"/>
    <path id="Path_36" data-name="Path 36" d="M141.435,115.519H103.029a2.089,2.089,0,0,1-2.089-2.089v-5.756h42.583v5.756a2.088,2.088,0,0,1-2.088,2.089" transform="translate(-76.68 -81.796)" fill="#dfa251"/>
    <path id="Path_37" data-name="Path 37" d="M127.953,171.794H81.427a1.1,1.1,0,0,1-1.012-.664l-2.407-5.535a1.1,1.1,0,0,1,1.012-1.544H130.36a1.1,1.1,0,0,1,1.012,1.544l-2.407,5.535a1.1,1.1,0,0,1-1.012.664" transform="translate(-59.189 -124.623)" fill="#dfa251"/>
    <path id="Path_38" data-name="Path 38" d="M107.679,168.581s-3.6,4.283-14.22,4.125a12.4,12.4,0,0,1-9.732-4.671,14.989,14.989,0,0,1-3.35-9.55V140.314H73.539v18.172a14.99,14.99,0,0,1-3.35,9.55,12.4,12.4,0,0,1-9.733,4.671c-10.622.158-14.22-4.125-14.22-4.125l-4.969,15.077a28.85,28.85,0,0,1,9.68-2.056c4.788,0,15.573,1.934,26.01-10.328,10.437,12.262,21.222,10.328,26.01,10.328a28.848,28.848,0,0,1,9.68,2.056Z" transform="translate(-31.349 -106.591)" fill="#dfa251"/>
    <path id="Path_39" data-name="Path 39" d="M228.036,217.941l8.124-13.347h-8.8a1.451,1.451,0,0,0-1.338.89l-3.452,8.247a1.451,1.451,0,0,0,.7,1.862Z" transform="translate(-168.99 -155.422)" fill="#dfa251"/>
    <path id="Path_40" data-name="Path 40" d="M109.064,217.941l-8.124-13.347h8.8a1.451,1.451,0,0,1,1.338.89l3.452,8.247a1.451,1.451,0,0,1-.7,1.862Z" transform="translate(-76.68 -155.422)" fill="#dfa251"/>
    <path id="Path_41" data-name="Path 41" d="M180.7,299.488a4.669,4.669,0,1,1-4.669-4.669,4.669,4.669,0,0,1,4.669,4.669" transform="translate(-130.179 -223.962)" fill="#dfa251"/>
    <rect id="Rectangle_45" data-name="Rectangle 45" width="1.3" height="7.423" transform="translate(0 91.209)" fill="#dfa251"/>
    <path id="Path_42" data-name="Path 42" d="M14.1,379.5h1.372l3.389,5.469h.021V379.5h1.237v7.423H18.749l-3.379-5.458h-.031v5.458H14.1Z" transform="translate(-10.712 -288.292)" fill="#dfa251"/>
    <path id="Path_43" data-name="Path 43" d="M47.841,379.5h3.078c2.287,0,3.275,1.664,3.275,3.712s-.988,3.712-3.275,3.712H47.841Zm1.3,6.363h1.279c2.038,0,2.475-1.165,2.475-2.651s-.437-2.651-2.475-2.651H49.141Z" transform="translate(-36.343 -288.292)" fill="#dfa251"/>
    <rect id="Rectangle_46" data-name="Rectangle 46" width="1.3" height="7.423" transform="translate(19.555 91.209)" fill="#dfa251"/>
    <path id="Path_44" data-name="Path 44" d="M101.075,386.366h-.832l-.2-.874a2.676,2.676,0,0,1-2.235,1.05,3.9,3.9,0,0,1,0-7.777,2.924,2.924,0,0,1,3.181,2.537H99.723a1.771,1.771,0,0,0-1.913-1.476c-1.591,0-2.256,1.4-2.256,2.828s.665,2.828,2.256,2.828a1.887,1.887,0,0,0,2.079-2.038H97.915v-.988h3.16Z" transform="translate(-71.602 -287.733)" fill="#dfa251"/>
    <path id="Path_45" data-name="Path 45" d="M130.805,379.5h5.344v1.123H132.1v1.944h3.743v1.06H132.1V385.8h4.117v1.123h-5.417Z" transform="translate(-99.368 -288.292)" fill="#dfa251"/>
    <path id="Path_46" data-name="Path 46" d="M160.132,379.5H161.5l3.389,5.469h.021V379.5h1.237v7.423H164.78l-3.379-5.458h-.031v5.458h-1.237Z" transform="translate(-121.646 -288.292)" fill="#dfa251"/>
    <path id="Path_47" data-name="Path 47" d="M199.339,382.654a3.57,3.57,0,1,1-3.556-3.888,3.587,3.587,0,0,1,3.556,3.888m-5.812,0c0,1.424.665,2.828,2.256,2.828s2.256-1.4,2.256-2.828-.666-2.828-2.256-2.828-2.256,1.4-2.256,2.828" transform="translate(-146.028 -287.732)" fill="#dfa251"/>
    <path id="Path_48" data-name="Path 48" d="M228.693,379.5h1.3v4.325c0,1,.063,2.152,1.747,2.152s1.747-1.154,1.747-2.152V379.5h1.3v4.751c0,1.9-1.217,2.849-3.046,2.849s-3.046-.946-3.046-2.849Z" transform="translate(-173.729 -288.292)" fill="#dfa251"/>
    <path id="Path_49" data-name="Path 49" d="M262,383.892c0,1.144.842,1.591,1.882,1.591,1.144,0,1.57-.561,1.57-1.123a.882.882,0,0,0-.613-.915c-.52-.2-1.2-.333-2.214-.614a1.884,1.884,0,0,1-1.643-1.882c0-1.487,1.372-2.183,2.713-2.183,1.549,0,2.849.821,2.849,2.371h-1.3c-.062-.957-.707-1.31-1.6-1.31-.6,0-1.362.218-1.362.967,0,.52.354.811.884.957.114.031,1.757.457,2.142.572a1.965,1.965,0,0,1,1.445,1.892c0,1.663-1.476,2.329-2.953,2.329-1.694,0-3.067-.811-3.1-2.651Z" transform="translate(-198.045 -287.733)" fill="#dfa251"/>
    <path id="Path_50" data-name="Path 50" d="M306.46,379.5h1.383l2.859,7.423h-1.393l-.7-1.965H305.65l-.7,1.965h-1.341ZM306,383.972h2.267l-1.112-3.192h-.031Z" transform="translate(-230.642 -288.292)" fill="#dfa251"/>
    <path id="Path_51" data-name="Path 51" d="M338.346,379.5h3.545c1.622,0,2.454.749,2.454,2.007a1.8,1.8,0,0,1-1.227,1.872v.021c.447.062,1.1.4,1.1,1.57a3.377,3.377,0,0,0,.406,1.955h-1.393a2.071,2.071,0,0,1-.2-1.092c0-1.362-.281-1.965-1.476-1.965h-1.913v3.057h-1.3Zm1.3,3.379h2.131c.821,0,1.269-.406,1.269-1.185,0-.946-.614-1.133-1.289-1.133h-2.11Z" transform="translate(-257.029 -288.292)" fill="#dfa251"/>
    <path id="Path_52" data-name="Path 52" d="M367.371,379.5h6.009v1.123h-2.36v6.3h-1.3v-6.3h-2.35Z" transform="translate(-279.077 -288.292)" fill="#dfa251"/>
    <rect id="Rectangle_47" data-name="Rectangle 47" width="1.3" height="7.423" transform="translate(0 103.685)" fill="#dfa251"/>
    <path id="Path_53" data-name="Path 53" d="M16.567,431.408h1.372l3.389,5.469h.021v-5.469h1.237v7.423H21.214l-3.379-5.458H17.8v5.458H16.567Z" transform="translate(-12.585 -327.723)" fill="#dfa251"/>
    <path id="Path_54" data-name="Path 54" d="M49.831,431.408H55.84v1.123H53.48v6.3h-1.3v-6.3h-2.35Z" transform="translate(-37.854 -327.723)" fill="#dfa251"/>
    <path id="Path_55" data-name="Path 55" d="M83.181,431.408h5.344v1.123H84.48v1.944h3.743v1.06H84.48v2.173H88.6v1.123H83.181Z" transform="translate(-63.189 -327.723)" fill="#dfa251"/>
    <path id="Path_56" data-name="Path 56" d="M115.19,431.408h3.545c1.622,0,2.454.749,2.454,2.007a1.8,1.8,0,0,1-1.227,1.871v.021c.447.063,1.1.4,1.1,1.57a3.377,3.377,0,0,0,.405,1.955h-1.393a2.071,2.071,0,0,1-.2-1.092c0-1.362-.281-1.965-1.476-1.965h-1.913v3.057h-1.3Zm1.3,3.379h2.131c.821,0,1.268-.406,1.268-1.185,0-.946-.613-1.133-1.289-1.133h-2.111Z" transform="translate(-87.505 -327.723)" fill="#dfa251"/>
    <path id="Path_57" data-name="Path 57" d="M150.184,431.408h1.372l3.389,5.469h.021v-5.469H156.2v7.423h-1.372l-3.379-5.458h-.031v5.458h-1.237Z" transform="translate(-114.089 -327.723)" fill="#dfa251"/>
    <path id="Path_58" data-name="Path 58" d="M185.646,431.408h1.383l2.859,7.423H188.5l-.7-1.965h-2.963l-.7,1.965H182.8Zm-.457,4.471h2.267l-1.113-3.192h-.031Z" transform="translate(-138.865 -327.723)" fill="#dfa251"/>
    <path id="Path_59" data-name="Path 59" d="M213.078,431.408h6.009v1.123h-2.36v6.3h-1.3v-6.3h-2.35Z" transform="translate(-161.867 -327.723)" fill="#dfa251"/>
    <rect id="Rectangle_48" data-name="Rectangle 48" width="1.3" height="7.423" transform="translate(59.226 103.685)" fill="#dfa251"/>
    <path id="Path_60" data-name="Path 60" d="M268.678,434.561a3.57,3.57,0,1,1-3.556-3.888,3.587,3.587,0,0,1,3.556,3.888m-5.812,0c0,1.425.665,2.828,2.256,2.828s2.256-1.4,2.256-2.828-.665-2.828-2.256-2.828-2.256,1.4-2.256,2.828" transform="translate(-198.702 -327.165)" fill="#dfa251"/>
    <path id="Path_61" data-name="Path 61" d="M300.627,431.408H302l3.389,5.469h.021v-5.469h1.237v7.423h-1.372l-3.379-5.458h-.031v5.458h-1.237Z" transform="translate(-228.375 -327.723)" fill="#dfa251"/>
    <path id="Path_62" data-name="Path 62" d="M336.091,431.408h1.383l2.859,7.423h-1.393l-.7-1.965H335.28l-.7,1.965h-1.341Zm-.457,4.471H337.9l-1.113-3.192h-.031Z" transform="translate(-253.151 -327.723)" fill="#dfa251"/>
    <path id="Path_63" data-name="Path 63" d="M370.443,431.408h1.3v6.3h3.774v1.123h-5.073Z" transform="translate(-281.411 -327.723)" fill="#dfa251"/>
    <path id="Path_64" data-name="Path 64" d="M46.482,487.617h9.241V489.9H49.2v2.648h5.988v2.112H49.2v3.028h6.663v2.284h-9.38Z" transform="translate(-35.311 -370.423)" fill="#dfa251"/>
    <path id="Path_65" data-name="Path 65" d="M128.064,493.5l-3.98-5.884h3.15l2.423,3.946,2.509-3.946h2.977l-3.963,5.9,4.309,6.455h-3.236l-2.7-4.275-2.752,4.275h-3.063Z" transform="translate(-93.999 -370.423)" fill="#dfa251"/>
    <path id="Path_66" data-name="Path 66" d="M213.161,487.618h5.572c3.08,0,4.275,1.955,4.275,3.963s-1.194,3.963-4.275,3.963h-2.855v4.43h-2.717Zm2.717,5.815h2.111c1.263,0,2.388-.277,2.388-1.852s-1.125-1.852-2.388-1.852h-2.111Z" transform="translate(-161.93 -370.424)" fill="#dfa251"/>
    <path id="Path_67" data-name="Path 67" d="M301.027,486.393c3.824,0,6.074,2.855,6.074,6.524,0,3.565-2.25,6.42-6.074,6.42s-6.074-2.855-6.074-6.42c0-3.669,2.25-6.524,6.074-6.524m0,10.661c2.44,0,3.357-2.077,3.357-4.136,0-2.163-.917-4.24-3.357-4.24s-3.358,2.077-3.358,4.24c0,2.059.917,4.136,3.358,4.136" transform="translate(-224.065 -369.493)" fill="#dfa251"/>
  </g>
</svg>
