<svg xmlns="http://www.w3.org/2000/svg" xmlns:xlink="http://www.w3.org/1999/xlink" width="580.825" height="896.556" viewBox="0 0 580.825 896.556">
  <defs>
    <clipPath id="clip-path">
      <rect id="Rectangle_71" data-name="Rectangle 71" width="523.49" height="895.736" fill="rgba(0,0,0,0.23)" stroke="rgba(255,255,255,0.3)" stroke-width="3"/>
    </clipPath>
  </defs>
  <g id="taitung" transform="translate(-240 -11330.437)">
    <g id="Group_86" data-name="Group 86" transform="translate(297.335 11330.807)">
      <g id="Group_64" data-name="Group 64">
        <path id="Path_87" data-name="Path 87" d="M237.454,83.313l-9.309,9.139,7.7,28.633-5.263,20.025,8.569,9.431-11.7,6.55-8.307,13.234-10.571-.762L200.264,182l-12.136,43.85-9.438,11.241-8.223,22.379-8.307-6.181,5.525-13.486L164.9,226.35l7.09-8.961,1.654-57.551,7.742-31.306-6.611-8.968,11.83-10,14.876-43.7,2.088,5.2,29.666,5.7Z" transform="translate(216.656 87.997)" fill="rgba(0,0,0,0.23)" stroke="rgba(255,255,255,0.3)" stroke-width="3"/>
        <path id="Path_88" data-name="Path 88" d="M237.454,83.313l-9.309,9.139,7.7,28.633-5.263,20.025,8.569,9.431-11.7,6.55-8.307,13.234-10.571-.762L200.264,182l-12.136,43.85-9.438,11.241-8.223,22.379-8.307-6.181,5.525-13.486L164.9,226.35l7.09-8.961,1.654-57.551,7.742-31.306-6.611-8.968,11.83-10,14.876-43.7,2.088,5.2,29.666,5.7Z" transform="translate(216.656 87.997)" fill="rgba(0,0,0,0.23)" stroke="rgba(255,255,255,0.3)" stroke-width="3"/>
        <path id="Path_93" data-name="Path 93" d="M177.59,172.886l-6.569,12.531-28.273,17.719-11.526-8.428-17.789,1.388L123.87,177.78,135.529,142.4l.217-11.545,8.351-8.4-.61-20.38,7.917,7.742,9.22,36.72-14.311,20.039,3.046,4.6Z" transform="translate(151.553 136.369)" fill="rgba(0,0,0,0.23)" stroke="rgba(255,255,255,0.3)" stroke-width="3"/>
        <path id="Path_94" data-name="Path 94" d="M177.59,172.886l-6.569,12.531-28.273,17.719-11.526-8.428-17.789,1.388L123.87,177.78,135.529,142.4l.217-11.545,8.351-8.4-.61-20.38,7.917,7.742,9.22,36.72-14.311,20.039,3.046,4.6Z" transform="translate(151.553 136.369)" fill="rgba(0,0,0,0.23)" stroke="rgba(255,255,255,0.3)" stroke-width="3"/>
        <path id="Path_95" data-name="Path 95" d="M173.834,191.225,152.3,193.9l-13.266,16.883,3,11.561-37.755.925-3.96-4.854,15.92-8.524,3.829-16.948L129.12,178.4l-4.088-19.9,5.915-10.08,17.789-1.39,11.528,8.431,28.271-17.719,1.654,23.536Z" transform="translate(134.038 184.039)" fill="rgba(0,0,0,0.23)" stroke="rgba(255,255,255,0.3)" stroke-width="3"/>
        <path id="Path_96" data-name="Path 96" d="M173.834,191.225,152.3,193.9l-13.266,16.883,3,11.561-37.755.925-3.96-4.854,15.92-8.524,3.829-16.948L129.12,178.4l-4.088-19.9,5.915-10.08,17.789-1.39,11.528,8.431,28.271-17.719,1.654,23.536Z" transform="translate(134.038 184.039)" fill="rgba(0,0,0,0.23)" stroke="rgba(255,255,255,0.3)" stroke-width="3"/>
        <path id="Path_97" data-name="Path 97" d="M151.266,100.814l25.271,9.431,12,12.575-1.827,7.676L160.4,187.648l-28.229-1.719-3.044-4.6,14.308-20.041-9.22-36.72L126.3,116.83l1.913-23.5,11.528-2.315Z" transform="translate(168.742 121.607)" fill="rgba(0,0,0,0.23)" stroke="rgba(255,255,255,0.3)" stroke-width="3"/>
        <path id="Path_98" data-name="Path 98" d="M151.266,100.814l25.271,9.431,12,12.575-1.827,7.676L160.4,187.648l-28.229-1.719-3.044-4.6,14.308-20.041-9.22-36.72L126.3,116.83l1.913-23.5,11.528-2.315Z" transform="translate(168.742 121.607)" fill="rgba(0,0,0,0.23)" stroke="rgba(255,255,255,0.3)" stroke-width="3"/>
        <path id="Path_99" data-name="Path 99" d="M285.329,161.213l-11.526-9.8-11.528,2.315-1.913,23.5.61,20.38-8.351,8.4-.217,11.545-11.657,35.384-10.44,18.315-5.915,10.082-9.4-7.405-22.62-3.371L160.144,278l-9.83-3.967-11.178,4.032-15.92-7.139-8.09,17.088L90.854,305.5l-19.184-1.586-6.525-6.345-17.964,2.843-20.7-11.138-.521-3.537L47.14,261.5l1.869-17.822L59.883,241.9,53.01,223.31l13.442-29.9L64.06,160.881l-6.132-4.632,12.482-7.216,2.35-11.451,9.482-7.746-4.088-7.349,6.132-30.1,15.18-5.464,21.966-26.3,10.7.2,28.621-12.39,7.176-2.619,11.832,7.655,4.132,18.053L195.377,96l20.008,6.721,13.876.166,7.09,16.058,10.092,1.757,14.18-8.146,9.4,4.768Z" transform="translate(34.679 61.207)" fill="rgba(0,0,0,0.23)" stroke="rgba(255,255,255,0.3)" stroke-width="3"/>
        <path id="Path_100" data-name="Path 100" d="M285.329,161.213l-11.526-9.8-11.528,2.315-1.913,23.5.61,20.38-8.351,8.4-.217,11.545-11.657,35.384-10.44,18.315-5.915,10.082-9.4-7.405-22.62-3.371L160.144,278l-9.83-3.967-11.178,4.032-15.92-7.139-8.09,17.088L90.854,305.5l-19.184-1.586-6.525-6.345-17.964,2.843-20.7-11.138-.521-3.537L47.14,261.5l1.869-17.822L59.883,241.9,53.01,223.31l13.442-29.9L64.06,160.881l-6.132-4.632,12.482-7.216,2.35-11.451,9.482-7.746-4.088-7.349,6.132-30.1,15.18-5.464,21.966-26.3,10.7.2,28.621-12.39,7.176-2.619,11.832,7.655,4.132,18.053L195.377,96l20.008,6.721,13.876.166,7.09,16.058,10.092,1.757,14.18-8.146,9.4,4.768Z" transform="translate(34.679 61.207)" fill="rgba(0,0,0,0.23)" stroke="rgba(255,255,255,0.3)" stroke-width="3"/>
        <path id="Path_101" data-name="Path 101" d="M227.674,152.8l4.088,19.9-9.048,14.54-3.826,16.95-15.92,8.522,3.957,4.857,37.755-.925-3-11.561,13.267-16.885,21.529-2.675-6.828,14.9,3,15.591-15.659,20.214-16.224-13.045-23.227-.2-12.4-5.814L192.572,242l-38.627,19.317-13.918-2.147-13.442,20.338L113.1,289.844,79.437,302.585l-.131-16.406L71.128,277.5,55.817,273.67l-2.74-19.282.262-21.433-17.7-9.15-7-15.128,3.219-5.186-7.655-16.752-.7-19.1,6.265-6.908,20.7,11.136,17.964-2.841,6.525,6.345,19.181,1.586,24.272-17.483,8.09-17.088,15.92,7.139,11.178-4.032,9.83,3.967,32.233-7.438,22.618,3.371Z" transform="translate(31.395 189.748)" fill="rgba(0,0,0,0.23)" stroke="rgba(255,255,255,0.3)" stroke-width="3"/>
        <path id="Path_102" data-name="Path 102" d="M227.674,152.8l4.088,19.9-9.048,14.54-3.826,16.95-15.92,8.522,3.957,4.857,37.755-.925-3-11.561,13.267-16.885,21.529-2.675-6.828,14.9,3,15.591-15.659,20.214-16.224-13.045-23.227-.2-12.4-5.814L192.572,242l-38.627,19.317-13.918-2.147-13.442,20.338L113.1,289.844,79.437,302.585l-.131-16.406L71.128,277.5,55.817,273.67l-2.74-19.282.262-21.433-17.7-9.15-7-15.128,3.219-5.186-7.655-16.752-.7-19.1,6.265-6.908,20.7,11.136,17.964-2.841,6.525,6.345,19.181,1.586,24.272-17.483,8.09-17.088,15.92,7.139,11.178-4.032,9.83,3.967,32.233-7.438,22.618,3.371Z" transform="translate(31.395 189.748)" fill="rgba(0,0,0,0.23)" stroke="rgba(255,255,255,0.3)" stroke-width="3"/>
        <path id="Path_103" data-name="Path 103" d="M168.117,246.114l-15.236,5.7-12.865,4.817-21.139,11.11-20.66,1.75L79.3,257.918l-14.486,7.025L31.4,252.38l.044,6.8L14.441,283.54,3.959,314,0,336.013l14.18,40.295,11.613,8.134,30.924,8.6L67.334,396l17.831-11.229,15.226-.395,19.226-11.858-4.35-8.5,15.528-3.425-8.265-10.442-1.437-12.524,15.619-11.83,13.657,3.791,9.048-9.987.741-36.291L179.6,280.44l-5.962-8.473-18.354-1.845,8.221-12.3,14.049-7.153L171.116,237.5Z" transform="translate(0 317.318)" fill="#838383" stroke="#fff" stroke-width="3"/>
        <path id="Path_104" data-name="Path 104" d="M194.638,197.7l4.959,14.888-13.224,11.652-3,16.766-13.7,9.4L150.227,270.93,118.561,286.5l-10.788,10.786L90.419,283.86l-5.959-7.982L101.9,250.539l-5.392-9.669,19.747-10.692,21.531-3.6-6.09-5.973,9.526-16.5,12.4,1.486,5.48,12.379,9.83,1.089,18.312-11.092Z" transform="translate(112.844 264.135)" fill="rgba(0,0,0,0.23)" stroke="rgba(255,255,255,0.3)" stroke-width="3"/>
        <path id="Path_105" data-name="Path 105" d="M194.638,197.7l4.959,14.888-13.224,11.652-3,16.766-13.7,9.4L150.227,270.93,118.561,286.5l-10.788,10.786L90.419,283.86l-5.959-7.982L101.9,250.539l-5.392-9.669,19.747-10.692,21.531-3.6-6.09-5.973,9.526-16.5,12.4,1.486,5.48,12.379,9.83,1.089,18.312-11.092Z" transform="translate(112.844 264.135)" fill="rgba(0,0,0,0.23)" stroke="rgba(255,255,255,0.3)" stroke-width="3"/>
        <path id="Path_106" data-name="Path 106" d="M270.424,193.246l-2.479,7.5,20.529,5.284-3.957,12.879,5,10.2-7.394,10.267-18.312,11.092-9.83-1.091L248.5,237l-12.4-1.486-9.526,16.507,6.09,5.973-21.531,3.6L191.391,272.28l5.394,9.669-17.443,25.339,5.959,7.982-14.572,6.2-17.572.626-3,8.608-28.1,10.519-21.141,11.115-20.66,1.747L61.333,342.513l-14.484,7.025L13.444,336.972l.3-15.072,21.793,1.385,12.136-4.551,8.045-14.647,23.62-.065,7.611-15.079L86.17,267.5l6.7-7.889,33.665-12.741,13.486-10.332L153.46,216.2l13.921,2.145L206,199.026l12.57-24.837,12.4,5.812,23.227.2Z" transform="translate(17.962 232.726)" fill="rgba(0,0,0,0.23)" stroke="rgba(255,255,255,0.3)" stroke-width="3"/>
        <path id="Path_107" data-name="Path 107" d="M270.424,193.246l-2.479,7.5,20.529,5.284-3.957,12.879,5,10.2-7.394,10.267-18.312,11.092-9.83-1.091L248.5,237l-12.4-1.486-9.526,16.507,6.09,5.973-21.531,3.6L191.391,272.28l5.394,9.669-17.443,25.339,5.959,7.982-14.572,6.2-17.572.626-3,8.608-28.1,10.519-21.141,11.115-20.66,1.747L61.333,342.513l-14.484,7.025L13.444,336.972l.3-15.072,21.793,1.385,12.136-4.551,8.045-14.647,23.62-.065,7.611-15.079L86.17,267.5l6.7-7.889,33.665-12.741,13.486-10.332L153.46,216.2l13.921,2.145L206,199.026l12.57-24.837,12.4,5.812,23.227.2Z" transform="translate(17.962 232.726)" fill="rgba(0,0,0,0.23)" stroke="rgba(255,255,255,0.3)" stroke-width="3"/>
        <path id="Path_108" data-name="Path 108" d="M226.782,106.09l-1.654,57.551-7.09,8.961,2.785,13.456L215.3,199.547l8.309,6.181-18.182,18.308-10.571,28.318L170.062,286.9l-15.617.759L142.92,297.01l-20.532-5.284,2.481-7.5,15.659-20.214-3-15.593,6.828-14.9,16.355-29.941-1.652-23.536,6.567-12.531,26.316-57.154Z" transform="translate(163.518 141.743)" fill="rgba(0,0,0,0.23)" stroke="rgba(255,255,255,0.3)" stroke-width="3"/>
        <path id="Path_109" data-name="Path 109" d="M226.782,106.09l-1.654,57.551-7.09,8.961,2.785,13.456L215.3,199.547l8.309,6.181-18.182,18.308-10.571,28.318L170.062,286.9l-15.617.759L142.92,297.01l-20.532-5.284,2.481-7.5,15.659-20.214-3-15.593,6.828-14.9,16.355-29.941-1.652-23.536,6.567-12.531,26.316-57.154Z" transform="translate(163.518 141.743)" fill="rgba(0,0,0,0.23)" stroke="rgba(255,255,255,0.3)" stroke-width="3"/>
        <path id="Path_110" data-name="Path 110" d="M272.512,9.446,261.245,36.241l-4.088,31.824-6.873,29.462-10.178,2.684-11.7,20.244-13.439,50.108-4.219-6.555-29.666-5.7-2.088-5.2,1.785-11.526,12.484-12.421-.523-10.237.434-12.722L206.7,90.767l8.134-17.929,8.438-6.66-12.178-9.283-2.871-13.028L221.49,18.6,240.281.558Z" transform="translate(239.145 0.745)" fill="rgba(0,0,0,0.23)" stroke="rgba(255,255,255,0.3)" stroke-width="3"/>
        <g id="Group_61" data-name="Group 61" transform="translate(0)">
          <g id="Group_60" data-name="Group 60" clip-path="url(#clip-path)">
            <path id="Path_111" data-name="Path 111" d="M272.512,9.446,261.245,36.241l-4.088,31.824-6.873,29.462-10.178,2.684-11.7,20.244-13.439,50.108-4.219-6.555-29.666-5.7-2.088-5.2,1.785-11.526,12.484-12.421-.523-10.237.434-12.722L206.7,90.767l8.134-17.929,8.438-6.66-12.178-9.283-2.871-13.028L221.49,18.6,240.281.558Z" transform="translate(239.144 0.745)" fill="rgba(0,0,0,0.23)" stroke="rgba(255,255,255,0.3)" stroke-width="3"/>
          </g>
        </g>
        <path id="Path_112" data-name="Path 112" d="M154.692,248.007l-17.7,9.662-11.571,15.5-6.569,21.826-2.306,22.447-15.962,14.3L82.791,379.221,74.135,413.9l-14.528-3.985,11.047-18.476L53.693,376.422l-4.35-8.5L64.871,364.5l-8.265-10.442-1.434-12.521L70.786,329.7l13.659,3.789,9.048-9.987.738-36.291,19.443-2.869-5.959-8.473L89.36,274.026l8.221-12.3,14.049-7.158-6.436-13.159,17.572-.626,14.572-6.2Z" transform="translate(65.925 313.414)" fill="rgba(0,0,0,0.23)" stroke="rgba(255,255,255,0.3)" stroke-width="3"/>
        <path id="Path_113" data-name="Path 113" d="M154.692,248.007l-17.7,9.662-11.571,15.5-6.569,21.826-2.306,22.447-15.962,14.3L82.791,379.221,74.135,413.9l-14.528-3.985,11.047-18.476L53.693,376.422l-4.35-8.5L64.871,364.5l-8.265-10.442-1.434-12.521L70.786,329.7l13.659,3.789,9.048-9.987.738-36.291,19.443-2.869-5.959-8.473L89.36,274.026l8.221-12.3,14.049-7.158-6.436-13.159,17.572-.626,14.572-6.2Z" transform="translate(65.925 313.414)" fill="rgba(0,0,0,0.23)" stroke="rgba(255,255,255,0.3)" stroke-width="3"/>
        <path id="Path_114" data-name="Path 114" d="M94.087,313.622,72.6,366.819l-4.132,18.857-9.4,18-2.088,31.546L34.41,417.1l1.217-17.7,19.181-29.843L44.675,352.073l9.961-6.845-6.394-4.906L65.2,332.652,74.73,309.8l4.829-.166Z" transform="translate(45.974 413.693)" fill="rgba(0,0,0,0.23)" stroke="rgba(255,255,255,0.3)" stroke-width="3"/>
        <path id="Path_115" data-name="Path 115" d="M94.087,313.622,72.6,366.819l-4.132,18.857-9.4,18-2.088,31.546L34.41,417.1l1.217-17.7,19.181-29.843L44.675,352.073l9.961-6.845-6.394-4.906L65.2,332.652,74.73,309.8l4.829-.166Z" transform="translate(45.974 413.693)" fill="rgba(0,0,0,0.23)" stroke="rgba(255,255,255,0.3)" stroke-width="3"/>
        <path id="Path_116" data-name="Path 116" d="M99.024,307.157l-15.226.395L65.964,318.781l-41.54-11.559-11.613-8.134,2,8.989-8.83,8.8.481,15.18,16.92,6.982L32.3,361.98l-11.005,7.868L7.768,371.23l-6.744,27.71L14.377,405l3.219,8.489,11.615,1.381L37.17,434.8l-12.657,7.169,10.353,16.708,4.261,20.882,10.526-4.439L66.27,489.458l12.832,2.1,5.261,8.055,20.228-12.164-3-33.081L79.016,436.25l1.217-17.7,19.181-29.845L89.278,371.23l9.963-6.847-6.394-4.906,16.962-7.669,9.526-22.851,4.829-.164,11.05-18.473L118.25,295.3Z" transform="translate(1.369 394.537)" fill="rgba(0,0,0,0.23)" stroke="rgba(255,255,255,0.3)" stroke-width="3"/>
        <g id="Group_63" data-name="Group 63" transform="translate(0)">
          <g id="Group_62" data-name="Group 62" clip-path="url(#clip-path)">
            <path id="Path_117" data-name="Path 117" d="M124.165,328.793l-4.829.166-9.526,22.849L92.847,359.48l6.394,4.9L89.28,371.23l10.134,17.476L80.233,418.552l-1.217,17.7,22.573,18.123,3,33.081L84.365,499.618,79.1,491.563l-12.832-2.1L49.654,475.124l-10.526,4.439-4.263-20.882L24.513,441.973,37.17,434.8l-7.959-19.938L17.6,413.485,14.377,405,1.024,398.941l6.742-27.71,13.528-1.383L32.3,361.979l-8.917-22.945-16.92-6.982-.479-15.18,8.83-8.793-2-8.991,11.615,8.134,41.54,11.561L83.8,307.552l15.224-.395L118.25,295.3l16.962,15.018Z" transform="translate(1.368 394.537)" fill="rgba(0,0,0,0.23)" stroke="rgba(255,255,255,0.3)" stroke-width="3"/>
          </g>
        </g>
      </g>
      <text id="台東市" transform="translate(343.434 432.977)" fill="#dfa251" font-size="23" font-family="NotoSansCJKtc-Medium, Noto Sans CJK TC" font-weight="500"><tspan x="0" y="0">台東市</tspan></text>
      <circle id="Ellipse_4" data-name="Ellipse 4" cx="7" cy="7" r="7" transform="translate(317.49 408.977)" fill="#dfa251"/>
    </g>
    <g id="Group_138" data-name="Group 138" transform="translate(-94.756 -224.997)">
      <g id="Group_133" data-name="Group 133" transform="translate(334.756 11966.62)">
        <path id="Rectangle_92" data-name="Rectangle 92" d="M80.462,0h0a80.462,80.462,0,0,1,80.462,80.462v75.89a4.572,4.572,0,0,1-4.572,4.572H80.462A80.462,80.462,0,0,1,0,80.462v0A80.462,80.462,0,0,1,80.462,0Z" transform="translate(113.791 0) rotate(45)" fill="#dfa251"/>
        <circle id="Ellipse_10" data-name="Ellipse 10" cx="68.16" cy="68.16" r="68.16" transform="translate(45.44 46.035)" fill="#fff"/>
      </g>
      <text id="金峰鄉" transform="translate(387.438 12095.073)" fill="#dfa251" font-size="40" font-family="NotoSansCJKtc-Medium, Noto Sans CJK TC" font-weight="500"><tspan x="0" y="0">金峰鄉</tspan></text>
    </g>
  </g>
</svg>
