<?xml version="1.0" encoding="UTF-8"?>
<svg xmlns="http://www.w3.org/2000/svg" width="700" height="700" viewBox="0 0 700 700">
  <g isolation="isolate">
    <g id="a" data-name="圖層 1">
      <g id="b" data-name="bg-grid-soft">
        <g id="c" data-name="Group 175" isolation="isolate" mix-blend-mode="soft-light">
          <g id="d" data-name="Group 161">
            <g id="e" data-name="Group 146">
              <path id="f" data-name="Path 218" d="M343.52,174.93l1.18,87.46,1.18,87.46,1.18-87.46,1.17-87.46h-4.7Z" fill="#fdf3e9"/>
              <path id="g" data-name="Path 219" d="M338.81,174.93l1.18,87.46,1.18,87.46,1.17-87.46,1.18-87.46h-4.71Z" fill="#fdf3e9"/>
              <path id="h" data-name="Path 220" d="M334.11,174.93l1.18,87.46,1.18,87.46,1.18-87.46,1.18-87.46h-4.71Z" fill="#fdf3e9"/>
              <path id="i" data-name="Path 221" d="M329.4,174.93l1.18,87.46,1.18,87.46,1.18-87.46,1.18-87.46h-4.71Z" fill="#fdf3e9"/>
              <path id="j" data-name="Path 222" d="M324.7,174.93l1.18,87.46,1.18,87.46,1.18-87.46,1.18-87.46h-4.71Z" fill="#fdf3e9"/>
              <path id="k" data-name="Path 223" d="M319.99,174.93l1.18,87.46,1.18,87.46,1.18-87.46,1.18-87.46h-4.71Z" fill="#fdf3e9"/>
              <path id="l" data-name="Path 224" d="M315.29,174.93l1.18,87.46,1.18,87.46,1.18-87.46,1.18-87.46h-4.71Z" fill="#fdf3e9"/>
              <path id="m" data-name="Path 225" d="M310.58,174.93l1.18,87.46,1.18,87.46,1.18-87.46,1.18-87.46h-4.71Z" fill="#fdf3e9"/>
              <path id="n" data-name="Path 226" d="M305.88,174.93l1.18,87.46,1.18,87.46,1.18-87.46,1.17-87.46h-4.71Z" fill="#fdf3e9"/>
              <path id="o" data-name="Path 227" d="M301.17,174.93l1.18,87.46,1.18,87.46,1.18-87.46,1.17-87.46h-4.7Z" fill="#fdf3e9"/>
              <path id="p" data-name="Path 228" d="M296.46,174.93l1.18,87.46,1.18,87.46,1.17-87.46,1.18-87.46h-4.7Z" fill="#fdf3e9"/>
              <path id="q" data-name="Path 229" d="M291.76,174.93l1.18,87.46,1.18,87.46,1.18-87.46,1.18-87.46h-4.71Z" fill="#fdf3e9"/>
              <path id="r" data-name="Path 230" d="M287.05,174.93l1.18,87.46,1.18,87.46,1.18-87.46,1.18-87.46h-4.71Z" fill="#fdf3e9"/>
              <path id="s" data-name="Path 231" d="M282.35,174.93l1.18,87.46,1.18,87.46,1.18-87.46,1.18-87.46h-4.71Z" fill="#fdf3e9"/>
              <path id="t" data-name="Path 232" d="M277.64,174.93l1.18,87.46,1.18,87.46,1.18-87.46,1.18-87.46h-4.71Z" fill="#fdf3e9"/>
              <path id="u" data-name="Path 233" d="M272.93,174.93l1.18,87.46,1.18,87.46,1.18-87.46,1.18-87.46h-4.71Z" fill="#fdf3e9"/>
              <path id="v" data-name="Path 234" d="M268.23,174.93l1.18,87.46,1.18,87.46,1.18-87.46,1.18-87.46h-4.71Z" fill="#fdf3e9"/>
              <path id="w" data-name="Path 235" d="M263.52,174.93l1.18,87.46,1.18,87.46,1.18-87.46,1.17-87.46h-4.71Z" fill="#fdf3e9"/>
              <path id="x" data-name="Path 236" d="M258.82,174.93l1.18,87.46,1.18,87.46,1.18-87.46,1.17-87.46h-4.7Z" fill="#fdf3e9"/>
              <path id="y" data-name="Path 237" d="M254.11,174.93l1.18,87.46,1.18,87.46,1.17-87.46,1.18-87.46h-4.71Z" fill="#fdf3e9"/>
              <path id="z" data-name="Path 238" d="M249.41,174.93l1.18,87.46,1.18,87.46,1.18-87.46,1.18-87.46h-4.71Z" fill="#fdf3e9"/>
              <path id="aa" data-name="Path 239" d="M244.7,174.93l1.18,87.46,1.18,87.46,1.17-87.46,1.18-87.46h-4.71Z" fill="#fdf3e9"/>
              <path id="ab" data-name="Path 240" d="M239.99,174.93l1.18,87.46,1.18,87.46,1.18-87.46,1.18-87.46h-4.71Z" fill="#fdf3e9"/>
              <path id="ac" data-name="Path 241" d="M235.29,174.93l1.18,87.46,1.18,87.46,1.18-87.46,1.18-87.46h-4.71Z" fill="#fdf3e9"/>
              <path id="ad" data-name="Path 242" d="M230.58,174.93l1.18,87.46,1.18,87.46,1.18-87.46,1.18-87.46h-4.71Z" fill="#fdf3e9"/>
              <path id="ae" data-name="Path 243" d="M225.88,174.93l1.18,87.46,1.18,87.46,1.18-87.46,1.17-87.46h-4.71Z" fill="#fdf3e9"/>
              <path id="af" data-name="Path 244" d="M221.17,174.93l1.18,87.46,1.18,87.46,1.18-87.46,1.18-87.46h-4.71Z" fill="#fdf3e9"/>
              <path id="ag" data-name="Path 245" d="M216.47,174.93l1.18,87.46,1.18,87.46,1.18-87.46,1.17-87.46h-4.7Z" fill="#fdf3e9"/>
              <path id="ah" data-name="Path 246" d="M211.76,174.93l1.18,87.46,1.18,87.46,1.18-87.46,1.18-87.46h-4.71Z" fill="#fdf3e9"/>
              <path id="ai" data-name="Path 247" d="M207.05,174.93l1.18,87.46,1.18,87.46,1.18-87.46,1.18-87.46h-4.71Z" fill="#fdf3e9"/>
              <path id="aj" data-name="Path 248" d="M202.35,174.93l1.18,87.46,1.18,87.46,1.18-87.46,1.18-87.46h-4.71Z" fill="#fdf3e9"/>
              <path id="ak" data-name="Path 249" d="M197.64,174.93l1.18,87.46,1.18,87.46,1.18-87.46,1.18-87.46h-4.71Z" fill="#fdf3e9"/>
              <path id="al" data-name="Path 250" d="M192.94,174.93l1.18,87.46,1.18,87.46,1.18-87.46,1.18-87.46h-4.71Z" fill="#fdf3e9"/>
              <path id="am" data-name="Path 251" d="M188.23,174.93l1.18,87.46,1.18,87.46,1.18-87.46,1.18-87.46h-4.71Z" fill="#fdf3e9"/>
              <path id="an" data-name="Path 252" d="M183.53,174.93l1.18,87.46,1.18,87.46,1.18-87.46,1.17-87.46h-4.71Z" fill="#fdf3e9"/>
              <path id="ao" data-name="Path 253" d="M178.82,174.93l1.18,87.46,1.18,87.46,1.17-87.46,1.18-87.46h-4.71Z" fill="#fdf3e9"/>
              <path id="ap" data-name="Path 254" d="M174.11,174.93l1.18,87.46,1.18,87.46,1.18-87.46,1.17-87.46h-4.7Z" fill="#fdf3e9"/>
            </g>
          </g>
          <g id="aq" data-name="Group 163">
            <g id="ar" data-name="Group 146-2">
              <path id="as" data-name="Path 218-2" d="M517.64,349.86l1.18,87.46,1.18,87.46,1.18-87.46,1.17-87.46h-4.7Z" fill="#fdf3e9"/>
              <path id="at" data-name="Path 219-2" d="M512.93,349.86l1.18,87.46,1.18,87.46,1.17-87.46,1.18-87.46h-4.71Z" fill="#fdf3e9"/>
              <path id="au" data-name="Path 220-2" d="M508.22,349.86l1.18,87.46,1.18,87.46,1.18-87.46,1.18-87.46h-4.71Z" fill="#fdf3e9"/>
              <path id="av" data-name="Path 221-2" d="M503.52,349.86l1.18,87.46,1.18,87.46,1.18-87.46,1.18-87.46h-4.71Z" fill="#fdf3e9"/>
              <path id="aw" data-name="Path 222-2" d="M498.81,349.86l1.18,87.46,1.18,87.46,1.18-87.46,1.18-87.46h-4.71Z" fill="#fdf3e9"/>
              <path id="ax" data-name="Path 223-2" d="M494.11,349.86l1.18,87.46,1.18,87.46,1.18-87.46,1.18-87.46h-4.71Z" fill="#fdf3e9"/>
              <path id="ay" data-name="Path 224-2" d="M489.4,349.86l1.18,87.46,1.18,87.46,1.18-87.46,1.18-87.46h-4.71Z" fill="#fdf3e9"/>
              <path id="az" data-name="Path 225-2" d="M484.69,349.86l1.18,87.46,1.18,87.46,1.18-87.46,1.18-87.46h-4.71Z" fill="#fdf3e9"/>
              <path id="ba" data-name="Path 226-2" d="M479.99,349.86l1.18,87.46,1.18,87.46,1.18-87.46,1.17-87.46h-4.71Z" fill="#fdf3e9"/>
              <path id="bb" data-name="Path 227-2" d="M475.28,349.86l1.18,87.46,1.18,87.46,1.18-87.46,1.17-87.46h-4.7Z" fill="#fdf3e9"/>
              <path id="bc" data-name="Path 228-2" d="M470.58,349.86l1.18,87.46,1.18,87.46,1.17-87.46,1.18-87.46h-4.7Z" fill="#fdf3e9"/>
              <path id="bd" data-name="Path 229-2" d="M465.87,349.86l1.18,87.46,1.18,87.46,1.18-87.46,1.18-87.46h-4.71Z" fill="#fdf3e9"/>
              <path id="be" data-name="Path 230-2" d="M461.16,349.86l1.18,87.46,1.18,87.46,1.18-87.46,1.18-87.46h-4.71Z" fill="#fdf3e9"/>
              <path id="bf" data-name="Path 231-2" d="M456.46,349.86l1.18,87.46,1.18,87.46,1.18-87.46,1.18-87.46h-4.71Z" fill="#fdf3e9"/>
              <path id="bg" data-name="Path 232-2" d="M451.75,349.86l1.18,87.46,1.18,87.46,1.18-87.46,1.18-87.46h-4.71Z" fill="#fdf3e9"/>
              <path id="bh" data-name="Path 233-2" d="M447.05,349.86l1.18,87.46,1.18,87.46,1.18-87.46,1.18-87.46h-4.71Z" fill="#fdf3e9"/>
              <path id="bi" data-name="Path 234-2" d="M442.34,349.86l1.18,87.46,1.18,87.46,1.18-87.46,1.18-87.46h-4.71Z" fill="#fdf3e9"/>
              <path id="bj" data-name="Path 235-2" d="M437.64,349.86l1.18,87.46,1.18,87.46,1.18-87.46,1.17-87.46h-4.71Z" fill="#fdf3e9"/>
              <path id="bk" data-name="Path 236-2" d="M432.93,349.86l1.18,87.46,1.18,87.46,1.18-87.46,1.17-87.46h-4.7Z" fill="#fdf3e9"/>
              <path id="bl" data-name="Path 237-2" d="M428.23,349.86l1.18,87.46,1.18,87.46,1.17-87.46,1.18-87.46h-4.71Z" fill="#fdf3e9"/>
              <path id="bm" data-name="Path 238-2" d="M423.52,349.86l1.18,87.46,1.18,87.46,1.18-87.46,1.18-87.46h-4.71Z" fill="#fdf3e9"/>
              <path id="bn" data-name="Path 239-2" d="M418.81,349.86l1.18,87.46,1.18,87.46,1.17-87.46,1.18-87.46h-4.71Z" fill="#fdf3e9"/>
              <path id="bo" data-name="Path 240-2" d="M414.11,349.86l1.18,87.46,1.18,87.46,1.18-87.46,1.18-87.46h-4.71Z" fill="#fdf3e9"/>
              <path id="bp" data-name="Path 241-2" d="M409.4,349.86l1.18,87.46,1.18,87.46,1.18-87.46,1.18-87.46h-4.71Z" fill="#fdf3e9"/>
              <path id="bq" data-name="Path 242-2" d="M404.69,349.86l1.18,87.46,1.18,87.46,1.18-87.46,1.18-87.46h-4.71Z" fill="#fdf3e9"/>
              <path id="br" data-name="Path 243-2" d="M399.99,349.86l1.18,87.46,1.18,87.46,1.18-87.46,1.17-87.46h-4.71Z" fill="#fdf3e9"/>
              <path id="bs" data-name="Path 244-2" d="M395.28,349.86l1.18,87.46,1.18,87.46,1.18-87.46,1.18-87.46h-4.71Z" fill="#fdf3e9"/>
              <path id="bt" data-name="Path 245-2" d="M390.58,349.86l1.18,87.46,1.18,87.46,1.18-87.46,1.17-87.46h-4.7Z" fill="#fdf3e9"/>
              <path id="bu" data-name="Path 246-2" d="M385.87,349.86l1.18,87.46,1.18,87.46,1.18-87.46,1.18-87.46h-4.71Z" fill="#fdf3e9"/>
              <path id="bv" data-name="Path 247-2" d="M381.17,349.86l1.18,87.46,1.18,87.46,1.18-87.46,1.18-87.46h-4.71Z" fill="#fdf3e9"/>
              <path id="bw" data-name="Path 248-2" d="M376.46,349.86l1.18,87.46,1.18,87.46,1.18-87.46,1.18-87.46h-4.71Z" fill="#fdf3e9"/>
              <path id="bx" data-name="Path 249-2" d="M371.76,349.86l1.18,87.46,1.18,87.46,1.18-87.46,1.18-87.46h-4.71Z" fill="#fdf3e9"/>
              <path id="by" data-name="Path 250-2" d="M367.05,349.86l1.18,87.46,1.18,87.46,1.18-87.46,1.18-87.46h-4.71Z" fill="#fdf3e9"/>
              <path id="bz" data-name="Path 251-2" d="M362.34,349.86l1.18,87.46,1.18,87.46,1.18-87.46,1.18-87.46h-4.71Z" fill="#fdf3e9"/>
              <path id="ca" data-name="Path 252-2" d="M357.64,349.86l1.18,87.46,1.18,87.46,1.18-87.46,1.17-87.46h-4.71Z" fill="#fdf3e9"/>
              <path id="cb" data-name="Path 253-2" d="M352.93,349.86l1.18,87.46,1.18,87.46,1.17-87.46,1.18-87.46h-4.71Z" fill="#fdf3e9"/>
              <path id="cc" data-name="Path 254-2" d="M348.23,349.86l1.18,87.46,1.18,87.46,1.18-87.46,1.17-87.46h-4.7Z" fill="#fdf3e9"/>
            </g>
          </g>
          <g id="cd" data-name="Group 167" isolation="isolate" mix-blend-mode="soft-light">
            <g id="ce" data-name="Group 145">
              <path id="cf" data-name="Path 181" d="M0,174.93v4.72l87.06-1.18,87.06-1.18-87.06-1.18-87.06-1.18Z" fill="#f5d7b4"/>
              <path id="cg" data-name="Path 182" d="M0,182.02v2.36l87.06-1.18,87.06-1.18-87.06-1.18-87.06-1.18v2.36Z" fill="#f5d7b4"/>
              <path id="ch" data-name="Path 183" d="M0,186.75v2.36l87.06-1.18,87.06-1.18-87.06-1.18-87.06-1.18v2.37Z" fill="#f5d7b4"/>
              <path id="ci" data-name="Path 184" d="M0,191.47v2.36l87.06-1.18,87.06-1.18-87.06-1.18-87.06-1.18v2.36Z" fill="#f5d7b4"/>
              <path id="cj" data-name="Path 185" d="M0,196.2v2.36l87.06-1.18,87.06-1.18-87.06-1.18-87.06-1.18v2.36Z" fill="#f5d7b4"/>
              <path id="ck" data-name="Path 186" d="M0,200.93v2.36l87.06-1.18,87.06-1.18-87.06-1.18-87.06-1.18v2.36Z" fill="#f5d7b4"/>
              <path id="cl" data-name="Path 187" d="M0,205.66v2.36l87.06-1.18,87.06-1.18-87.06-1.18-87.06-1.18v2.36Z" fill="#f5d7b4"/>
              <path id="cm" data-name="Path 188" d="M0,210.39v2.36l87.06-1.18,87.06-1.18-87.06-1.18-87.06-1.18v2.36Z" fill="#f5d7b4"/>
              <path id="cn" data-name="Path 189" d="M0,215.12v2.36l87.06-1.18,87.06-1.18-87.06-1.18-87.06-1.18v2.36Z" fill="#f5d7b4"/>
              <path id="co" data-name="Path 190" d="M0,219.84v2.36l87.06-1.18,87.06-1.18-87.06-1.18-87.06-1.18v2.36Z" fill="#f5d7b4"/>
              <path id="cp" data-name="Path 191" d="M0,224.57v2.36l87.06-1.18,87.06-1.18-87.06-1.18-87.06-1.18v2.36Z" fill="#f5d7b4"/>
              <path id="cq" data-name="Path 192" d="M0,229.3v2.36l87.06-1.18,87.06-1.18-87.06-1.19-87.06-1.18v2.37Z" fill="#f5d7b4"/>
              <path id="cr" data-name="Path 193" d="M0,234.03v2.36l87.06-1.18,87.06-1.18-87.06-1.18-87.06-1.18v2.36Z" fill="#f5d7b4"/>
              <path id="cs" data-name="Path 194" d="M0,238.75v2.36l87.06-1.18,87.06-1.18-87.06-1.18-87.06-1.18v2.36Z" fill="#f5d7b4"/>
              <path id="ct" data-name="Path 195" d="M0,243.48v2.36l87.06-1.18,87.06-1.18-87.06-1.18-87.06-1.18v2.36Z" fill="#f5d7b4"/>
              <path id="cu" data-name="Path 196" d="M0,248.21v2.36l87.06-1.18,87.06-1.18-87.06-1.18-87.06-1.18v2.37Z" fill="#f5d7b4"/>
              <path id="cv" data-name="Path 197" d="M0,252.94v2.36l87.06-1.18,87.06-1.18-87.06-1.18-87.06-1.18v2.36Z" fill="#f5d7b4"/>
              <path id="cw" data-name="Path 198" d="M0,257.67v2.36l87.06-1.19,87.06-1.18-87.06-1.18-87.06-1.18v2.36Z" fill="#f5d7b4"/>
              <path id="cx" data-name="Path 199" d="M0,262.39v2.36l87.06-1.18,87.06-1.18-87.06-1.18-87.06-1.18v2.36Z" fill="#f5d7b4"/>
              <path id="cy" data-name="Path 200" d="M0,267.12v2.36l87.06-1.18,87.06-1.18-87.06-1.18-87.06-1.18v2.36Z" fill="#f5d7b4"/>
              <path id="cz" data-name="Path 201" d="M0,271.85v2.36l87.06-1.19,87.06-1.18-87.06-1.19-87.06-1.18v2.37Z" fill="#f5d7b4"/>
              <path id="da" data-name="Path 202" d="M0,276.58v2.36l87.06-1.18,87.06-1.18-87.06-1.18-87.06-1.18v2.36Z" fill="#f5d7b4"/>
              <path id="db" data-name="Path 203" d="M0,281.3v2.36l87.06-1.18,87.06-1.18-87.06-1.18-87.06-1.18v2.36Z" fill="#f5d7b4"/>
              <path id="dc" data-name="Path 204" d="M0,286.03v2.36l87.06-1.18,87.06-1.18-87.06-1.18-87.06-1.18v2.36Z" fill="#f5d7b4"/>
              <path id="dd" data-name="Path 205" d="M0,290.76v2.36l87.06-1.18,87.06-1.18-87.06-1.18-87.06-1.18v2.36Z" fill="#f5d7b4"/>
              <path id="de" data-name="Path 206" d="M0,295.49v2.36l87.06-1.18,87.06-1.18-87.06-1.18-87.06-1.18v2.36Z" fill="#f5d7b4"/>
              <path id="df" data-name="Path 207" d="M0,300.21v2.36l87.06-1.18,87.06-1.18-87.06-1.18-87.06-1.18v2.36Z" fill="#f5d7b4"/>
              <path id="dg" data-name="Path 208" d="M0,304.94v2.36l87.06-1.18,87.06-1.18-87.06-1.18-87.06-1.18v2.36Z" fill="#f5d7b4"/>
              <path id="dh" data-name="Path 209" d="M0,309.67v2.36l87.06-1.18,87.06-1.18-87.06-1.18-87.06-1.19v2.36Z" fill="#f5d7b4"/>
              <path id="di" data-name="Path 210" d="M0,314.4v2.36l87.06-1.18,87.06-1.18-87.06-1.18-87.06-1.18v2.36Z" fill="#f5d7b4"/>
              <path id="dj" data-name="Path 211" d="M0,319.13v2.36l87.06-1.18,87.06-1.18-87.06-1.18-87.06-1.18v2.36Z" fill="#f5d7b4"/>
              <path id="dk" data-name="Path 212" d="M0,323.85v2.36l87.06-1.18,87.06-1.18-87.06-1.18-87.06-1.18v2.36Z" fill="#f5d7b4"/>
              <path id="dl" data-name="Path 213" d="M0,328.58v2.36l87.06-1.18,87.06-1.18-87.06-1.18-87.06-1.18v2.36Z" fill="#f5d7b4"/>
              <path id="dm" data-name="Path 214" d="M0,333.31v2.36l87.06-1.18,87.06-1.18-87.06-1.18-87.06-1.18v2.36Z" fill="#f5d7b4"/>
              <path id="dn" data-name="Path 215" d="M0,338.03v2.36l87.06-1.18,87.06-1.18-87.06-1.18-87.06-1.18v2.36Z" fill="#f5d7b4"/>
              <path id="do" data-name="Path 216" d="M0,342.76v2.36l87.06-1.18,87.06-1.18-87.06-1.18-87.06-1.18v2.36Z" fill="#f5d7b4"/>
              <path id="dp" data-name="Path 217" d="M0,347.49v2.36l87.06-1.18,87.06-1.18-87.06-1.18-87.06-1.18v2.36Z" fill="#f5d7b4"/>
            </g>
            <g id="dq" data-name="Group 146-3">
              <path id="dr" data-name="Path 218-3" d="M169.41,349.86l1.18,87.46,1.18,87.46,1.18-87.46,1.17-87.46h-4.7Z" fill="#fdf3e9"/>
              <path id="ds" data-name="Path 219-3" d="M164.7,349.86l1.18,87.46,1.18,87.46,1.17-87.46,1.18-87.46h-4.71Z" fill="#fdf3e9"/>
              <path id="dt" data-name="Path 220-3" d="M159.99,349.86l1.18,87.46,1.18,87.46,1.18-87.46,1.18-87.46h-4.71Z" fill="#fdf3e9"/>
              <path id="du" data-name="Path 221-3" d="M155.29,349.86l1.18,87.46,1.18,87.46,1.18-87.46,1.18-87.46h-4.71Z" fill="#fdf3e9"/>
              <path id="dv" data-name="Path 222-3" d="M150.58,349.86l1.18,87.46,1.18,87.46,1.18-87.46,1.18-87.46h-4.71Z" fill="#fdf3e9"/>
              <path id="dw" data-name="Path 223-3" d="M145.88,349.86l1.18,87.46,1.18,87.46,1.18-87.46,1.18-87.46h-4.71Z" fill="#fdf3e9"/>
              <path id="dx" data-name="Path 224-3" d="M141.17,349.86l1.18,87.46,1.18,87.46,1.18-87.46,1.18-87.46h-4.71Z" fill="#fdf3e9"/>
              <path id="dy" data-name="Path 225-3" d="M136.47,349.86l1.18,87.46,1.18,87.46,1.18-87.46,1.18-87.46h-4.71Z" fill="#fdf3e9"/>
              <path id="dz" data-name="Path 226-3" d="M131.76,349.86l1.18,87.46,1.18,87.46,1.18-87.46,1.17-87.46h-4.71Z" fill="#fdf3e9"/>
              <path id="ea" data-name="Path 227-3" d="M127.06,349.86l1.18,87.46,1.18,87.46,1.18-87.46,1.17-87.46h-4.7Z" fill="#fdf3e9"/>
              <path id="eb" data-name="Path 228-3" d="M122.35,349.86l1.18,87.46,1.18,87.46,1.17-87.46,1.18-87.46h-4.7Z" fill="#fdf3e9"/>
              <path id="ec" data-name="Path 229-3" d="M117.64,349.86l1.18,87.46,1.18,87.46,1.18-87.46,1.18-87.46h-4.71Z" fill="#fdf3e9"/>
              <path id="ed" data-name="Path 230-3" d="M112.94,349.86l1.18,87.46,1.18,87.46,1.18-87.46,1.18-87.46h-4.71Z" fill="#fdf3e9"/>
              <path id="ee" data-name="Path 231-3" d="M108.23,349.86l1.18,87.46,1.18,87.46,1.18-87.46,1.18-87.46h-4.71Z" fill="#fdf3e9"/>
              <path id="ef" data-name="Path 232-3" d="M103.53,349.86l1.18,87.46,1.18,87.46,1.18-87.46,1.18-87.46h-4.71Z" fill="#fdf3e9"/>
              <path id="eg" data-name="Path 233-3" d="M98.82,349.86l1.18,87.46,1.18,87.46,1.18-87.46,1.18-87.46h-4.71Z" fill="#fdf3e9"/>
              <path id="eh" data-name="Path 234-3" d="M94.12,349.86l1.18,87.46,1.18,87.46,1.18-87.46,1.18-87.46h-4.71Z" fill="#fdf3e9"/>
              <path id="ei" data-name="Path 235-3" d="M89.41,349.86l1.18,87.46,1.18,87.46,1.18-87.46,1.17-87.46h-4.71Z" fill="#fdf3e9"/>
              <path id="ej" data-name="Path 236-3" d="M84.71,349.86l1.18,87.46,1.18,87.46,1.18-87.46,1.17-87.46h-4.7Z" fill="#fdf3e9"/>
              <path id="ek" data-name="Path 237-3" d="M80,349.86l1.18,87.46,1.18,87.46,1.17-87.46,1.18-87.46h-4.71Z" fill="#fdf3e9"/>
              <path id="el" data-name="Path 238-3" d="M75.29,349.86l1.18,87.46,1.18,87.46,1.18-87.46,1.18-87.46h-4.71Z" fill="#fdf3e9"/>
              <path id="em" data-name="Path 239-3" d="M70.59,349.86l1.18,87.46,1.18,87.46,1.17-87.46,1.18-87.46h-4.71Z" fill="#fdf3e9"/>
              <path id="en" data-name="Path 240-3" d="M65.88,349.86l1.18,87.46,1.18,87.46,1.18-87.46,1.18-87.46h-4.71Z" fill="#fdf3e9"/>
              <path id="eo" data-name="Path 241-3" d="M61.17,349.86l1.18,87.46,1.18,87.46,1.18-87.46,1.18-87.46h-4.71Z" fill="#fdf3e9"/>
              <path id="ep" data-name="Path 242-3" d="M56.47,349.86l1.18,87.46,1.18,87.46,1.18-87.46,1.18-87.46h-4.71Z" fill="#fdf3e9"/>
              <path id="eq" data-name="Path 243-3" d="M51.76,349.86l1.18,87.46,1.18,87.46,1.18-87.46,1.17-87.46h-4.71Z" fill="#fdf3e9"/>
              <path id="er" data-name="Path 244-3" d="M47.06,349.86l1.18,87.46,1.18,87.46,1.18-87.46,1.18-87.46h-4.71Z" fill="#fdf3e9"/>
              <path id="es" data-name="Path 245-3" d="M42.35,349.86l1.18,87.46,1.18,87.46,1.18-87.46,1.17-87.46h-4.7Z" fill="#fdf3e9"/>
              <path id="et" data-name="Path 246-3" d="M37.65,349.86l1.18,87.46,1.18,87.46,1.18-87.46,1.18-87.46h-4.71Z" fill="#fdf3e9"/>
              <path id="eu" data-name="Path 247-3" d="M32.94,349.86l1.18,87.46,1.18,87.46,1.18-87.46,1.18-87.46h-4.71Z" fill="#fdf3e9"/>
              <path id="ev" data-name="Path 248-3" d="M28.24,349.86l1.18,87.46,1.18,87.46,1.18-87.46,1.18-87.46h-4.71Z" fill="#fdf3e9"/>
              <path id="ew" data-name="Path 249-3" d="M23.53,349.86l1.18,87.46,1.18,87.46,1.18-87.46,1.18-87.46h-4.71Z" fill="#fdf3e9"/>
              <path id="ex" data-name="Path 250-3" d="M18.82,349.86l1.18,87.46,1.18,87.46,1.18-87.46,1.18-87.46h-4.71Z" fill="#fdf3e9"/>
              <path id="ey" data-name="Path 251-3" d="M14.12,349.86l1.18,87.46,1.18,87.46,1.18-87.46,1.18-87.46h-4.71Z" fill="#fdf3e9"/>
              <path id="ez" data-name="Path 252-3" d="M9.41,349.86l1.18,87.46,1.18,87.46,1.18-87.46,1.17-87.46h-4.71Z" fill="#fdf3e9"/>
              <path id="fa" data-name="Path 253-3" d="M4.71,349.86l1.18,87.46,1.18,87.46,1.17-87.46,1.18-87.46h-4.71Z" fill="#fdf3e9"/>
              <path id="fb" data-name="Path 254-3" d="M0,349.86l1.18,87.46,1.18,87.46,1.18-87.46,1.17-87.46H0Z" fill="#fdf3e9"/>
            </g>
          </g>
          <g id="fc" data-name="Group 169">
            <path id="fd" data-name="Path 218-4" d="M169.41,0l1.18,87.46,1.18,87.46,1.18-87.46,1.17-87.46h-4.7Z" fill="#fdf3e9"/>
            <path id="fe" data-name="Path 219-4" d="M164.7,0l1.18,87.46,1.18,87.46,1.17-87.46,1.18-87.46h-4.71Z" fill="#fdf3e9"/>
            <path id="ff" data-name="Path 220-4" d="M159.99,0l1.18,87.46,1.18,87.46,1.18-87.46,1.18-87.46h-4.71Z" fill="#fdf3e9"/>
            <path id="fg" data-name="Path 221-4" d="M155.29,0l1.18,87.46,1.18,87.46,1.18-87.46,1.18-87.46h-4.71Z" fill="#fdf3e9"/>
            <path id="fh" data-name="Path 222-4" d="M150.58,0l1.18,87.46,1.18,87.46,1.18-87.46,1.18-87.46h-4.71Z" fill="#fdf3e9"/>
            <path id="fi" data-name="Path 223-4" d="M145.88,0l1.18,87.46,1.18,87.46,1.18-87.46,1.18-87.46h-4.71Z" fill="#fdf3e9"/>
            <path id="fj" data-name="Path 224-4" d="M141.17,0l1.18,87.46,1.18,87.46,1.18-87.46,1.18-87.46h-4.71Z" fill="#fdf3e9"/>
            <path id="fk" data-name="Path 225-4" d="M136.47,0l1.18,87.46,1.18,87.46,1.18-87.46,1.18-87.46h-4.71Z" fill="#fdf3e9"/>
            <path id="fl" data-name="Path 226-4" d="M131.76,0l1.18,87.46,1.18,87.46,1.18-87.46,1.17-87.46h-4.71Z" fill="#fdf3e9"/>
            <path id="fm" data-name="Path 227-4" d="M127.06,0l1.18,87.46,1.18,87.46,1.18-87.46,1.17-87.46h-4.7Z" fill="#fdf3e9"/>
            <path id="fn" data-name="Path 228-4" d="M122.35,0l1.18,87.46,1.18,87.46,1.17-87.46L127.06,0h-4.7Z" fill="#fdf3e9"/>
            <path id="fo" data-name="Path 229-4" d="M117.64,0l1.18,87.46,1.18,87.46,1.18-87.46L122.35,0h-4.71Z" fill="#fdf3e9"/>
            <path id="fp" data-name="Path 230-4" d="M112.94,0l1.18,87.46,1.18,87.46,1.18-87.46L117.64,0h-4.71Z" fill="#fdf3e9"/>
            <path id="fq" data-name="Path 231-4" d="M108.23,0l1.18,87.46,1.18,87.46,1.18-87.46L112.94,0h-4.71Z" fill="#fdf3e9"/>
            <path id="fr" data-name="Path 232-4" d="M103.53,0l1.18,87.46,1.18,87.46,1.18-87.46L108.23,0h-4.71Z" fill="#fdf3e9"/>
            <path id="fs" data-name="Path 233-4" d="M98.82,0l1.18,87.46,1.18,87.46,1.18-87.46L103.53,0h-4.71Z" fill="#fdf3e9"/>
            <path id="ft" data-name="Path 234-4" d="M94.12,0l1.18,87.46,1.18,87.46,1.18-87.46L98.82,0h-4.71Z" fill="#fdf3e9"/>
            <path id="fu" data-name="Path 235-4" d="M89.41,0l1.18,87.46,1.18,87.46,1.18-87.46L94.12,0h-4.71Z" fill="#fdf3e9"/>
            <path id="fv" data-name="Path 236-4" d="M84.71,0l1.18,87.46,1.18,87.46,1.18-87.46L89.41,0h-4.7Z" fill="#fdf3e9"/>
            <path id="fw" data-name="Path 237-4" d="M80,0l1.18,87.46,1.18,87.46,1.17-87.46L84.7,0h-4.71Z" fill="#fdf3e9"/>
            <path id="fx" data-name="Path 238-4" d="M75.29,0l1.18,87.46,1.18,87.46,1.18-87.46L80,0h-4.71Z" fill="#fdf3e9"/>
            <path id="fy" data-name="Path 239-4" d="M70.59,0l1.18,87.46,1.18,87.46,1.17-87.46L75.29,0h-4.71Z" fill="#fdf3e9"/>
            <path id="fz" data-name="Path 240-4" d="M65.88,0l1.18,87.46,1.18,87.46,1.18-87.46L70.59,0h-4.71Z" fill="#fdf3e9"/>
            <path id="ga" data-name="Path 241-4" d="M61.17,0l1.18,87.46,1.18,87.46,1.18-87.46L65.88,0h-4.71Z" fill="#fdf3e9"/>
            <path id="gb" data-name="Path 242-4" d="M56.47,0l1.18,87.46,1.18,87.46,1.18-87.46L61.17,0h-4.71Z" fill="#fdf3e9"/>
            <path id="gc" data-name="Path 243-4" d="M51.76,0l1.18,87.46,1.18,87.46,1.18-87.46L56.47,0h-4.71Z" fill="#fdf3e9"/>
            <path id="gd" data-name="Path 244-4" d="M47.06,0l1.18,87.46,1.18,87.46,1.18-87.46L51.76,0h-4.71Z" fill="#fdf3e9"/>
            <path id="ge" data-name="Path 245-4" d="M42.35,0l1.18,87.46,1.18,87.46,1.18-87.46L47.05,0h-4.7Z" fill="#fdf3e9"/>
            <path id="gf" data-name="Path 246-4" d="M37.65,0l1.18,87.46,1.18,87.46,1.18-87.46L42.35,0h-4.71Z" fill="#fdf3e9"/>
            <path id="gg" data-name="Path 247-4" d="M32.94,0l1.18,87.46,1.18,87.46,1.18-87.46L37.65,0h-4.71Z" fill="#fdf3e9"/>
            <path id="gh" data-name="Path 248-4" d="M28.24,0l1.18,87.46,1.18,87.46,1.18-87.46L32.94,0h-4.71Z" fill="#fdf3e9"/>
            <path id="gi" data-name="Path 249-4" d="M23.53,0l1.18,87.46,1.18,87.46,1.18-87.46L28.23,0h-4.71Z" fill="#fdf3e9"/>
            <path id="gj" data-name="Path 250-4" d="M18.82,0l1.18,87.46,1.18,87.46,1.18-87.46L23.53,0h-4.71Z" fill="#fdf3e9"/>
            <path id="gk" data-name="Path 251-4" d="M14.12,0l1.18,87.46,1.18,87.46,1.18-87.46L18.82,0h-4.71Z" fill="#fdf3e9"/>
            <path id="gl" data-name="Path 252-4" d="M9.41,0l1.18,87.46,1.18,87.46,1.18-87.46L14.12,0h-4.71Z" fill="#fdf3e9"/>
            <path id="gm" data-name="Path 253-4" d="M4.71,0l1.18,87.46,1.18,87.46,1.17-87.46L9.41,0h-4.71Z" fill="#fdf3e9"/>
            <path id="gn" data-name="Path 254-4" d="M0,0l1.18,87.46,1.18,87.46,1.18-87.46L4.7,0H0Z" fill="#fdf3e9"/>
          </g>
        </g>
        <g id="go" data-name="Group 210" isolation="isolate" mix-blend-mode="soft-light">
          <g id="gp" data-name="Group 161-2">
            <g id="gq" data-name="Group 146-4">
              <path id="gr" data-name="Path 218-5" d="M692.4,174.93l1.18,87.46,1.18,87.46,1.18-87.46,1.17-87.46h-4.7Z" fill="#fdf3e9"/>
              <path id="gs" data-name="Path 219-5" d="M687.69,174.93l1.18,87.46,1.18,87.46,1.17-87.46,1.18-87.46h-4.71Z" fill="#fdf3e9"/>
              <path id="gt" data-name="Path 220-5" d="M682.99,174.93l1.18,87.46,1.18,87.46,1.18-87.46,1.18-87.46h-4.71Z" fill="#fdf3e9"/>
              <path id="gu" data-name="Path 221-5" d="M678.28,174.93l1.18,87.46,1.18,87.46,1.18-87.46,1.18-87.46h-4.71Z" fill="#fdf3e9"/>
              <path id="gv" data-name="Path 222-5" d="M673.58,174.93l1.18,87.46,1.18,87.46,1.18-87.46,1.18-87.46h-4.71Z" fill="#fdf3e9"/>
              <path id="gw" data-name="Path 223-5" d="M668.87,174.93l1.18,87.46,1.18,87.46,1.18-87.46,1.18-87.46h-4.71Z" fill="#fdf3e9"/>
              <path id="gx" data-name="Path 224-5" d="M664.17,174.93l1.18,87.46,1.18,87.46,1.18-87.46,1.18-87.46h-4.71Z" fill="#fdf3e9"/>
              <path id="gy" data-name="Path 225-5" d="M659.46,174.93l1.18,87.46,1.18,87.46,1.18-87.46,1.18-87.46h-4.71Z" fill="#fdf3e9"/>
              <path id="gz" data-name="Path 226-5" d="M654.76,174.93l1.18,87.46,1.18,87.46,1.18-87.46,1.17-87.46h-4.71Z" fill="#fdf3e9"/>
              <path id="ha" data-name="Path 227-5" d="M650.05,174.93l1.18,87.46,1.18,87.46,1.18-87.46,1.17-87.46h-4.7Z" fill="#fdf3e9"/>
              <path id="hb" data-name="Path 228-5" d="M645.34,174.93l1.18,87.46,1.18,87.46,1.17-87.46,1.18-87.46h-4.7Z" fill="#fdf3e9"/>
              <path id="hc" data-name="Path 229-5" d="M640.64,174.93l1.18,87.46,1.18,87.46,1.18-87.46,1.18-87.46h-4.71Z" fill="#fdf3e9"/>
              <path id="hd" data-name="Path 230-5" d="M635.93,174.93l1.18,87.46,1.18,87.46,1.18-87.46,1.18-87.46h-4.71Z" fill="#fdf3e9"/>
              <path id="he" data-name="Path 231-5" d="M631.23,174.93l1.18,87.46,1.18,87.46,1.18-87.46,1.18-87.46h-4.71Z" fill="#fdf3e9"/>
              <path id="hf" data-name="Path 232-5" d="M626.52,174.93l1.18,87.46,1.18,87.46,1.18-87.46,1.18-87.46h-4.71Z" fill="#fdf3e9"/>
              <path id="hg" data-name="Path 233-5" d="M621.81,174.93l1.18,87.46,1.18,87.46,1.18-87.46,1.18-87.46h-4.71Z" fill="#fdf3e9"/>
              <path id="hh" data-name="Path 234-5" d="M617.11,174.93l1.18,87.46,1.18,87.46,1.18-87.46,1.18-87.46h-4.71Z" fill="#fdf3e9"/>
              <path id="hi" data-name="Path 235-5" d="M612.4,174.93l1.18,87.46,1.18,87.46,1.18-87.46,1.17-87.46h-4.71Z" fill="#fdf3e9"/>
              <path id="hj" data-name="Path 236-5" d="M607.7,174.93l1.18,87.46,1.18,87.46,1.18-87.46,1.17-87.46h-4.7Z" fill="#fdf3e9"/>
              <path id="hk" data-name="Path 237-5" d="M602.99,174.93l1.18,87.46,1.18,87.46,1.17-87.46,1.18-87.46h-4.71Z" fill="#fdf3e9"/>
              <path id="hl" data-name="Path 238-5" d="M598.29,174.93l1.18,87.46,1.18,87.46,1.18-87.46,1.18-87.46h-4.71Z" fill="#fdf3e9"/>
              <path id="hm" data-name="Path 239-5" d="M593.58,174.93l1.18,87.46,1.18,87.46,1.17-87.46,1.18-87.46h-4.71Z" fill="#fdf3e9"/>
              <path id="hn" data-name="Path 240-5" d="M588.87,174.93l1.18,87.46,1.18,87.46,1.18-87.46,1.18-87.46h-4.71Z" fill="#fdf3e9"/>
              <path id="ho" data-name="Path 241-5" d="M584.17,174.93l1.18,87.46,1.18,87.46,1.18-87.46,1.18-87.46h-4.71Z" fill="#fdf3e9"/>
              <path id="hp" data-name="Path 242-5" d="M579.46,174.93l1.18,87.46,1.18,87.46,1.18-87.46,1.18-87.46h-4.71Z" fill="#fdf3e9"/>
              <path id="hq" data-name="Path 243-5" d="M574.76,174.93l1.18,87.46,1.18,87.46,1.18-87.46,1.17-87.46h-4.71Z" fill="#fdf3e9"/>
              <path id="hr" data-name="Path 244-5" d="M570.05,174.93l1.18,87.46,1.18,87.46,1.18-87.46,1.18-87.46h-4.71Z" fill="#fdf3e9"/>
              <path id="hs" data-name="Path 245-5" d="M565.35,174.93l1.18,87.46,1.18,87.46,1.18-87.46,1.17-87.46h-4.7Z" fill="#fdf3e9"/>
              <path id="ht" data-name="Path 246-5" d="M560.64,174.93l1.18,87.46,1.18,87.46,1.18-87.46,1.18-87.46h-4.71Z" fill="#fdf3e9"/>
              <path id="hu" data-name="Path 247-5" d="M555.93,174.93l1.18,87.46,1.18,87.46,1.18-87.46,1.18-87.46h-4.71Z" fill="#fdf3e9"/>
              <path id="hv" data-name="Path 248-5" d="M551.23,174.93l1.18,87.46,1.18,87.46,1.18-87.46,1.18-87.46h-4.71Z" fill="#fdf3e9"/>
              <path id="hw" data-name="Path 249-5" d="M546.52,174.93l1.18,87.46,1.18,87.46,1.18-87.46,1.18-87.46h-4.71Z" fill="#fdf3e9"/>
              <path id="hx" data-name="Path 250-5" d="M541.82,174.93l1.18,87.46,1.18,87.46,1.18-87.46,1.18-87.46h-4.71Z" fill="#fdf3e9"/>
              <path id="hy" data-name="Path 251-5" d="M537.11,174.93l1.18,87.46,1.18,87.46,1.18-87.46,1.18-87.46h-4.71Z" fill="#fdf3e9"/>
              <path id="hz" data-name="Path 252-5" d="M532.41,174.93l1.18,87.46,1.18,87.46,1.18-87.46,1.17-87.46h-4.71Z" fill="#fdf3e9"/>
              <path id="ia" data-name="Path 253-5" d="M527.7,174.93l1.18,87.46,1.18,87.46,1.17-87.46,1.18-87.46h-4.71Z" fill="#fdf3e9"/>
              <path id="ib" data-name="Path 254-5" d="M522.99,174.93l1.18,87.46,1.18,87.46,1.18-87.46,1.17-87.46h-4.7Z" fill="#fdf3e9"/>
            </g>
          </g>
          <g id="ic" data-name="Group 167-2" isolation="isolate" mix-blend-mode="soft-light">
            <g id="id" data-name="Group 145-2">
              <path id="ie" data-name="Path 181-2" d="M348.88,174.93v4.72l87.06-1.18,87.06-1.18-87.06-1.18-87.06-1.18Z" fill="#f5d7b4"/>
              <path id="if" data-name="Path 182-2" d="M348.88,182.02v2.36l87.06-1.18,87.06-1.18-87.06-1.18-87.06-1.18v2.36Z" fill="#f5d7b4"/>
              <path id="ig" data-name="Path 183-2" d="M348.88,186.75v2.36l87.06-1.18,87.06-1.18-87.06-1.18-87.06-1.18v2.37Z" fill="#f5d7b4"/>
              <path id="ih" data-name="Path 184-2" d="M348.88,191.47v2.36l87.06-1.18,87.06-1.18-87.06-1.18-87.06-1.18v2.36Z" fill="#f5d7b4"/>
              <path id="ii" data-name="Path 185-2" d="M348.88,196.2v2.36l87.06-1.18,87.06-1.18-87.06-1.18-87.06-1.18v2.36Z" fill="#f5d7b4"/>
              <path id="ij" data-name="Path 186-2" d="M348.88,200.93v2.36l87.06-1.18,87.06-1.18-87.06-1.18-87.06-1.18v2.36Z" fill="#f5d7b4"/>
              <path id="ik" data-name="Path 187-2" d="M348.88,205.66v2.36l87.06-1.18,87.06-1.18-87.06-1.18-87.06-1.18v2.36Z" fill="#f5d7b4"/>
              <path id="il" data-name="Path 188-2" d="M348.88,210.39v2.36l87.06-1.18,87.06-1.18-87.06-1.18-87.06-1.18v2.36Z" fill="#f5d7b4"/>
              <path id="im" data-name="Path 189-2" d="M348.88,215.12v2.36l87.06-1.18,87.06-1.18-87.06-1.18-87.06-1.18v2.36Z" fill="#f5d7b4"/>
              <path id="in" data-name="Path 190-2" d="M348.88,219.84v2.36l87.06-1.18,87.06-1.18-87.06-1.18-87.06-1.18v2.36Z" fill="#f5d7b4"/>
              <path id="io" data-name="Path 191-2" d="M348.88,224.57v2.36l87.06-1.18,87.06-1.18-87.06-1.18-87.06-1.18v2.36Z" fill="#f5d7b4"/>
              <path id="ip" data-name="Path 192-2" d="M348.88,229.3v2.36l87.06-1.18,87.06-1.18-87.06-1.19-87.06-1.18v2.37Z" fill="#f5d7b4"/>
              <path id="iq" data-name="Path 193-2" d="M348.88,234.03v2.36l87.06-1.18,87.06-1.18-87.06-1.18-87.06-1.18v2.36Z" fill="#f5d7b4"/>
              <path id="ir" data-name="Path 194-2" d="M348.88,238.75v2.36l87.06-1.18,87.06-1.18-87.06-1.18-87.06-1.18v2.36Z" fill="#f5d7b4"/>
              <path id="is" data-name="Path 195-2" d="M348.88,243.48v2.36l87.06-1.18,87.06-1.18-87.06-1.18-87.06-1.18v2.36Z" fill="#f5d7b4"/>
              <path id="it" data-name="Path 196-2" d="M348.88,248.21v2.36l87.06-1.18,87.06-1.18-87.06-1.18-87.06-1.18v2.37Z" fill="#f5d7b4"/>
              <path id="iu" data-name="Path 197-2" d="M348.88,252.94v2.36l87.06-1.18,87.06-1.18-87.06-1.18-87.06-1.18v2.36Z" fill="#f5d7b4"/>
              <path id="iv" data-name="Path 198-2" d="M348.88,257.67v2.36l87.06-1.19,87.06-1.18-87.06-1.18-87.06-1.18v2.36Z" fill="#f5d7b4"/>
              <path id="iw" data-name="Path 199-2" d="M348.88,262.39v2.36l87.06-1.18,87.06-1.18-87.06-1.18-87.06-1.18v2.36Z" fill="#f5d7b4"/>
              <path id="ix" data-name="Path 200-2" d="M348.88,267.12v2.36l87.06-1.18,87.06-1.18-87.06-1.18-87.06-1.18v2.36Z" fill="#f5d7b4"/>
              <path id="iy" data-name="Path 201-2" d="M348.88,271.85v2.36l87.06-1.19,87.06-1.18-87.06-1.19-87.06-1.18v2.37Z" fill="#f5d7b4"/>
              <path id="iz" data-name="Path 202-2" d="M348.88,276.58v2.36l87.06-1.18,87.06-1.18-87.06-1.18-87.06-1.18v2.36Z" fill="#f5d7b4"/>
              <path id="ja" data-name="Path 203-2" d="M348.88,281.3v2.36l87.06-1.18,87.06-1.18-87.06-1.18-87.06-1.18v2.36Z" fill="#f5d7b4"/>
              <path id="jb" data-name="Path 204-2" d="M348.88,286.03v2.36l87.06-1.18,87.06-1.18-87.06-1.18-87.06-1.18v2.36Z" fill="#f5d7b4"/>
              <path id="jc" data-name="Path 205-2" d="M348.88,290.76v2.36l87.06-1.18,87.06-1.18-87.06-1.18-87.06-1.18v2.36Z" fill="#f5d7b4"/>
              <path id="jd" data-name="Path 206-2" d="M348.88,295.49v2.36l87.06-1.18,87.06-1.18-87.06-1.18-87.06-1.18v2.36Z" fill="#f5d7b4"/>
              <path id="je" data-name="Path 207-2" d="M348.88,300.21v2.36l87.06-1.18,87.06-1.18-87.06-1.18-87.06-1.18v2.36Z" fill="#f5d7b4"/>
              <path id="jf" data-name="Path 208-2" d="M348.88,304.94v2.36l87.06-1.18,87.06-1.18-87.06-1.18-87.06-1.18v2.36Z" fill="#f5d7b4"/>
              <path id="jg" data-name="Path 209-2" d="M348.88,309.67v2.36l87.06-1.18,87.06-1.18-87.06-1.18-87.06-1.19v2.36Z" fill="#f5d7b4"/>
              <path id="jh" data-name="Path 210-2" d="M348.88,314.4v2.36l87.06-1.18,87.06-1.18-87.06-1.18-87.06-1.18v2.36Z" fill="#f5d7b4"/>
              <path id="ji" data-name="Path 211-2" d="M348.88,319.13v2.36l87.06-1.18,87.06-1.18-87.06-1.18-87.06-1.18v2.36Z" fill="#f5d7b4"/>
              <path id="jj" data-name="Path 212-2" d="M348.88,323.85v2.36l87.06-1.18,87.06-1.18-87.06-1.18-87.06-1.18v2.36Z" fill="#f5d7b4"/>
              <path id="jk" data-name="Path 213-2" d="M348.88,328.58v2.36l87.06-1.18,87.06-1.18-87.06-1.18-87.06-1.18v2.36Z" fill="#f5d7b4"/>
              <path id="jl" data-name="Path 214-2" d="M348.88,333.31v2.36l87.06-1.18,87.06-1.18-87.06-1.18-87.06-1.18v2.36Z" fill="#f5d7b4"/>
              <path id="jm" data-name="Path 215-2" d="M348.88,338.03v2.36l87.06-1.18,87.06-1.18-87.06-1.18-87.06-1.18v2.36Z" fill="#f5d7b4"/>
              <path id="jn" data-name="Path 216-2" d="M348.88,342.76v2.36l87.06-1.18,87.06-1.18-87.06-1.18-87.06-1.18v2.36Z" fill="#f5d7b4"/>
              <path id="jo" data-name="Path 217-2" d="M348.88,347.49v2.36l87.06-1.18,87.06-1.18-87.06-1.18-87.06-1.18v2.36Z" fill="#f5d7b4"/>
            </g>
            <g id="jp" data-name="Group 146-5">
              <path id="jq" data-name="Path 218-6" d="M518.29,349.86l1.18,87.46,1.18,87.46,1.18-87.46,1.17-87.46h-4.7Z" fill="#fdf3e9"/>
              <path id="jr" data-name="Path 219-6" d="M513.58,349.86l1.18,87.46,1.18,87.46,1.17-87.46,1.18-87.46h-4.71Z" fill="#fdf3e9"/>
              <path id="js" data-name="Path 220-6" d="M508.87,349.86l1.18,87.46,1.18,87.46,1.18-87.46,1.18-87.46h-4.71Z" fill="#fdf3e9"/>
              <path id="jt" data-name="Path 221-6" d="M504.17,349.86l1.18,87.46,1.18,87.46,1.18-87.46,1.18-87.46h-4.71Z" fill="#fdf3e9"/>
              <path id="ju" data-name="Path 222-6" d="M499.46,349.86l1.18,87.46,1.18,87.46,1.18-87.46,1.18-87.46h-4.71Z" fill="#fdf3e9"/>
              <path id="jv" data-name="Path 223-6" d="M494.76,349.86l1.18,87.46,1.18,87.46,1.18-87.46,1.18-87.46h-4.71Z" fill="#fdf3e9"/>
              <path id="jw" data-name="Path 224-6" d="M490.05,349.86l1.18,87.46,1.18,87.46,1.18-87.46,1.18-87.46h-4.71Z" fill="#fdf3e9"/>
              <path id="jx" data-name="Path 225-6" d="M485.35,349.86l1.18,87.46,1.18,87.46,1.18-87.46,1.18-87.46h-4.71Z" fill="#fdf3e9"/>
              <path id="jy" data-name="Path 226-6" d="M480.64,349.86l1.18,87.46,1.18,87.46,1.18-87.46,1.17-87.46h-4.71Z" fill="#fdf3e9"/>
              <path id="jz" data-name="Path 227-6" d="M475.94,349.86l1.18,87.46,1.18,87.46,1.18-87.46,1.17-87.46h-4.7Z" fill="#fdf3e9"/>
              <path id="ka" data-name="Path 228-6" d="M471.23,349.86l1.18,87.46,1.18,87.46,1.17-87.46,1.18-87.46h-4.7Z" fill="#fdf3e9"/>
              <path id="kb" data-name="Path 229-6" d="M466.52,349.86l1.18,87.46,1.18,87.46,1.18-87.46,1.18-87.46h-4.71Z" fill="#fdf3e9"/>
              <path id="kc" data-name="Path 230-6" d="M461.82,349.86l1.18,87.46,1.18,87.46,1.18-87.46,1.18-87.46h-4.71Z" fill="#fdf3e9"/>
              <path id="kd" data-name="Path 231-6" d="M457.11,349.86l1.18,87.46,1.18,87.46,1.18-87.46,1.18-87.46h-4.71Z" fill="#fdf3e9"/>
              <path id="ke" data-name="Path 232-6" d="M452.41,349.86l1.18,87.46,1.18,87.46,1.18-87.46,1.18-87.46h-4.71Z" fill="#fdf3e9"/>
              <path id="kf" data-name="Path 233-6" d="M447.7,349.86l1.18,87.46,1.18,87.46,1.18-87.46,1.18-87.46h-4.71Z" fill="#fdf3e9"/>
              <path id="kg" data-name="Path 234-6" d="M443,349.86l1.18,87.46,1.18,87.46,1.18-87.46,1.18-87.46h-4.71Z" fill="#fdf3e9"/>
              <path id="kh" data-name="Path 235-6" d="M438.29,349.86l1.18,87.46,1.18,87.46,1.18-87.46,1.17-87.46h-4.71Z" fill="#fdf3e9"/>
              <path id="ki" data-name="Path 236-6" d="M433.58,349.86l1.18,87.46,1.18,87.46,1.18-87.46,1.17-87.46h-4.7Z" fill="#fdf3e9"/>
              <path id="kj" data-name="Path 237-6" d="M428.88,349.86l1.18,87.46,1.18,87.46,1.17-87.46,1.18-87.46h-4.71Z" fill="#fdf3e9"/>
              <path id="kk" data-name="Path 238-6" d="M424.17,349.86l1.18,87.46,1.18,87.46,1.18-87.46,1.18-87.46h-4.71Z" fill="#fdf3e9"/>
              <path id="kl" data-name="Path 239-6" d="M419.47,349.86l1.18,87.46,1.18,87.46,1.17-87.46,1.18-87.46h-4.71Z" fill="#fdf3e9"/>
              <path id="km" data-name="Path 240-6" d="M414.76,349.86l1.18,87.46,1.18,87.46,1.18-87.46,1.18-87.46h-4.71Z" fill="#fdf3e9"/>
              <path id="kn" data-name="Path 241-6" d="M410.05,349.86l1.18,87.46,1.18,87.46,1.18-87.46,1.18-87.46h-4.71Z" fill="#fdf3e9"/>
              <path id="ko" data-name="Path 242-6" d="M405.35,349.86l1.18,87.46,1.18,87.46,1.18-87.46,1.18-87.46h-4.71Z" fill="#fdf3e9"/>
              <path id="kp" data-name="Path 243-6" d="M400.64,349.86l1.18,87.46,1.18,87.46,1.18-87.46,1.17-87.46h-4.71Z" fill="#fdf3e9"/>
              <path id="kq" data-name="Path 244-6" d="M395.94,349.86l1.18,87.46,1.18,87.46,1.18-87.46,1.18-87.46h-4.71Z" fill="#fdf3e9"/>
              <path id="kr" data-name="Path 245-6" d="M391.23,349.86l1.18,87.46,1.18,87.46,1.18-87.46,1.17-87.46h-4.7Z" fill="#fdf3e9"/>
              <path id="ks" data-name="Path 246-6" d="M386.53,349.86l1.18,87.46,1.18,87.46,1.18-87.46,1.18-87.46h-4.71Z" fill="#fdf3e9"/>
              <path id="kt" data-name="Path 247-6" d="M381.82,349.86l1.18,87.46,1.18,87.46,1.18-87.46,1.18-87.46h-4.71Z" fill="#fdf3e9"/>
              <path id="ku" data-name="Path 248-6" d="M377.11,349.86l1.18,87.46,1.18,87.46,1.18-87.46,1.18-87.46h-4.71Z" fill="#fdf3e9"/>
              <path id="kv" data-name="Path 249-6" d="M372.41,349.86l1.18,87.46,1.18,87.46,1.18-87.46,1.18-87.46h-4.71Z" fill="#fdf3e9"/>
              <path id="kw" data-name="Path 250-6" d="M367.7,349.86l1.18,87.46,1.18,87.46,1.18-87.46,1.18-87.46h-4.71Z" fill="#fdf3e9"/>
              <path id="kx" data-name="Path 251-6" d="M363,349.86l1.18,87.46,1.18,87.46,1.18-87.46,1.18-87.46h-4.71Z" fill="#fdf3e9"/>
              <path id="ky" data-name="Path 252-6" d="M358.29,349.86l1.18,87.46,1.18,87.46,1.18-87.46,1.17-87.46h-4.71Z" fill="#fdf3e9"/>
              <path id="kz" data-name="Path 253-6" d="M353.59,349.86l1.18,87.46,1.18,87.46,1.17-87.46,1.18-87.46h-4.71Z" fill="#fdf3e9"/>
              <path id="la" data-name="Path 254-6" d="M348.88,349.86l1.18,87.46,1.18,87.46,1.18-87.46,1.17-87.46h-4.7Z" fill="#fdf3e9"/>
            </g>
          </g>
          <g id="lb" data-name="Group 169-2">
            <path id="lc" data-name="Path 218-7" d="M518.29,0l1.18,87.46,1.18,87.46,1.18-87.46,1.17-87.46h-4.7Z" fill="#fdf3e9"/>
            <path id="ld" data-name="Path 219-7" d="M513.58,0l1.18,87.46,1.18,87.46,1.17-87.46,1.18-87.46h-4.71Z" fill="#fdf3e9"/>
            <path id="le" data-name="Path 220-7" d="M508.87,0l1.18,87.46,1.18,87.46,1.18-87.46,1.18-87.46h-4.71Z" fill="#fdf3e9"/>
            <path id="lf" data-name="Path 221-7" d="M504.17,0l1.18,87.46,1.18,87.46,1.18-87.46,1.18-87.46h-4.71Z" fill="#fdf3e9"/>
            <path id="lg" data-name="Path 222-7" d="M499.46,0l1.18,87.46,1.18,87.46,1.18-87.46,1.18-87.46h-4.71Z" fill="#fdf3e9"/>
            <path id="lh" data-name="Path 223-7" d="M494.76,0l1.18,87.46,1.18,87.46,1.18-87.46,1.18-87.46h-4.71Z" fill="#fdf3e9"/>
            <path id="li" data-name="Path 224-7" d="M490.05,0l1.18,87.46,1.18,87.46,1.18-87.46,1.18-87.46h-4.71Z" fill="#fdf3e9"/>
            <path id="lj" data-name="Path 225-7" d="M485.35,0l1.18,87.46,1.18,87.46,1.18-87.46,1.18-87.46h-4.71Z" fill="#fdf3e9"/>
            <path id="lk" data-name="Path 226-7" d="M480.64,0l1.18,87.46,1.18,87.46,1.18-87.46,1.17-87.46h-4.71Z" fill="#fdf3e9"/>
            <path id="ll" data-name="Path 227-7" d="M475.94,0l1.18,87.46,1.18,87.46,1.18-87.46,1.17-87.46h-4.7Z" fill="#fdf3e9"/>
            <path id="lm" data-name="Path 228-7" d="M471.23,0l1.18,87.46,1.18,87.46,1.17-87.46,1.18-87.46h-4.7Z" fill="#fdf3e9"/>
            <path id="ln" data-name="Path 229-7" d="M466.52,0l1.18,87.46,1.18,87.46,1.18-87.46,1.18-87.46h-4.71Z" fill="#fdf3e9"/>
            <path id="lo" data-name="Path 230-7" d="M461.82,0l1.18,87.46,1.18,87.46,1.18-87.46,1.18-87.46h-4.71Z" fill="#fdf3e9"/>
            <path id="lp" data-name="Path 231-7" d="M457.11,0l1.18,87.46,1.18,87.46,1.18-87.46,1.18-87.46h-4.71Z" fill="#fdf3e9"/>
            <path id="lq" data-name="Path 232-7" d="M452.41,0l1.18,87.46,1.18,87.46,1.18-87.46,1.18-87.46h-4.71Z" fill="#fdf3e9"/>
            <path id="lr" data-name="Path 233-7" d="M447.7,0l1.18,87.46,1.18,87.46,1.18-87.46,1.18-87.46h-4.71Z" fill="#fdf3e9"/>
            <path id="ls" data-name="Path 234-7" d="M443,0l1.18,87.46,1.18,87.46,1.18-87.46,1.18-87.46h-4.71Z" fill="#fdf3e9"/>
            <path id="lt" data-name="Path 235-7" d="M438.29,0l1.18,87.46,1.18,87.46,1.18-87.46,1.17-87.46h-4.71Z" fill="#fdf3e9"/>
            <path id="lu" data-name="Path 236-7" d="M433.58,0l1.18,87.46,1.18,87.46,1.18-87.46,1.17-87.46h-4.7Z" fill="#fdf3e9"/>
            <path id="lv" data-name="Path 237-7" d="M428.88,0l1.18,87.46,1.18,87.46,1.17-87.46,1.18-87.46h-4.71Z" fill="#fdf3e9"/>
            <path id="lw" data-name="Path 238-7" d="M424.17,0l1.18,87.46,1.18,87.46,1.18-87.46,1.18-87.46h-4.71Z" fill="#fdf3e9"/>
            <path id="lx" data-name="Path 239-7" d="M419.47,0l1.18,87.46,1.18,87.46,1.17-87.46,1.18-87.46h-4.71Z" fill="#fdf3e9"/>
            <path id="ly" data-name="Path 240-7" d="M414.76,0l1.18,87.46,1.18,87.46,1.18-87.46,1.18-87.46h-4.71Z" fill="#fdf3e9"/>
            <path id="lz" data-name="Path 241-7" d="M410.05,0l1.18,87.46,1.18,87.46,1.18-87.46,1.18-87.46h-4.71Z" fill="#fdf3e9"/>
            <path id="ma" data-name="Path 242-7" d="M405.35,0l1.18,87.46,1.18,87.46,1.18-87.46,1.18-87.46h-4.71Z" fill="#fdf3e9"/>
            <path id="mb" data-name="Path 243-7" d="M400.64,0l1.18,87.46,1.18,87.46,1.18-87.46,1.17-87.46h-4.71Z" fill="#fdf3e9"/>
            <path id="mc" data-name="Path 244-7" d="M395.94,0l1.18,87.46,1.18,87.46,1.18-87.46,1.18-87.46h-4.71Z" fill="#fdf3e9"/>
            <path id="md" data-name="Path 245-7" d="M391.23,0l1.18,87.46,1.18,87.46,1.18-87.46,1.17-87.46h-4.7Z" fill="#fdf3e9"/>
            <path id="me" data-name="Path 246-7" d="M386.53,0l1.18,87.46,1.18,87.46,1.18-87.46,1.18-87.46h-4.71Z" fill="#fdf3e9"/>
            <path id="mf" data-name="Path 247-7" d="M381.82,0l1.18,87.46,1.18,87.46,1.18-87.46,1.18-87.46h-4.71Z" fill="#fdf3e9"/>
            <path id="mg" data-name="Path 248-7" d="M377.11,0l1.18,87.46,1.18,87.46,1.18-87.46,1.18-87.46h-4.71Z" fill="#fdf3e9"/>
            <path id="mh" data-name="Path 249-7" d="M372.41,0l1.18,87.46,1.18,87.46,1.18-87.46,1.18-87.46h-4.71Z" fill="#fdf3e9"/>
            <path id="mi" data-name="Path 250-7" d="M367.7,0l1.18,87.46,1.18,87.46,1.18-87.46,1.18-87.46h-4.71Z" fill="#fdf3e9"/>
            <path id="mj" data-name="Path 251-7" d="M363,0l1.18,87.46,1.18,87.46,1.18-87.46,1.18-87.46h-4.71Z" fill="#fdf3e9"/>
            <path id="mk" data-name="Path 252-7" d="M358.29,0l1.18,87.46,1.18,87.46,1.18-87.46,1.17-87.46h-4.71Z" fill="#fdf3e9"/>
            <path id="ml" data-name="Path 253-7" d="M353.59,0l1.18,87.46,1.18,87.46,1.17-87.46,1.18-87.46h-4.71Z" fill="#fdf3e9"/>
            <path id="mm" data-name="Path 254-7" d="M348.88,0l1.18,87.46,1.18,87.46,1.18-87.46,1.17-87.46h-4.7Z" fill="#fdf3e9"/>
          </g>
        </g>
        <g id="mn" data-name="Group 319" isolation="isolate" mix-blend-mode="soft-light">
          <g id="mo" data-name="Group 169-3">
            <path id="mp" data-name="Path 218-8" d="M345.23,524.79l1.18,87.46,1.18,87.46,1.18-87.46,1.17-87.46h-4.7Z" fill="#fdf3e9"/>
            <path id="mq" data-name="Path 219-8" d="M340.52,524.79l1.18,87.46,1.18,87.46,1.17-87.46,1.18-87.46h-4.71Z" fill="#fdf3e9"/>
            <path id="mr" data-name="Path 220-8" d="M335.81,524.79l1.18,87.46,1.18,87.46,1.18-87.46,1.18-87.46h-4.71Z" fill="#fdf3e9"/>
            <path id="ms" data-name="Path 221-8" d="M331.11,524.79l1.18,87.46,1.18,87.46,1.18-87.46,1.18-87.46h-4.71Z" fill="#fdf3e9"/>
            <path id="mt" data-name="Path 222-8" d="M326.4,524.79l1.18,87.46,1.18,87.46,1.18-87.46,1.18-87.46h-4.71Z" fill="#fdf3e9"/>
            <path id="mu" data-name="Path 223-8" d="M321.7,524.79l1.18,87.46,1.18,87.46,1.18-87.46,1.18-87.46h-4.71Z" fill="#fdf3e9"/>
            <path id="mv" data-name="Path 224-8" d="M316.99,524.79l1.18,87.46,1.18,87.46,1.18-87.46,1.18-87.46h-4.71Z" fill="#fdf3e9"/>
            <path id="mw" data-name="Path 225-8" d="M312.29,524.79l1.18,87.46,1.18,87.46,1.18-87.46,1.18-87.46h-4.71Z" fill="#fdf3e9"/>
            <path id="mx" data-name="Path 226-8" d="M307.58,524.79l1.18,87.46,1.18,87.46,1.18-87.46,1.17-87.46h-4.71Z" fill="#fdf3e9"/>
            <path id="my" data-name="Path 227-8" d="M302.88,524.79l1.18,87.46,1.18,87.46,1.18-87.46,1.17-87.46h-4.7Z" fill="#fdf3e9"/>
            <path id="mz" data-name="Path 228-8" d="M298.17,524.79l1.18,87.46,1.18,87.46,1.17-87.46,1.18-87.46h-4.7Z" fill="#fdf3e9"/>
            <path id="na" data-name="Path 229-8" d="M293.46,524.79l1.18,87.46,1.18,87.46,1.18-87.46,1.18-87.46h-4.71Z" fill="#fdf3e9"/>
            <path id="nb" data-name="Path 230-8" d="M288.76,524.79l1.18,87.46,1.18,87.46,1.18-87.46,1.18-87.46h-4.71Z" fill="#fdf3e9"/>
            <path id="nc" data-name="Path 231-8" d="M284.05,524.79l1.18,87.46,1.18,87.46,1.18-87.46,1.18-87.46h-4.71Z" fill="#fdf3e9"/>
            <path id="nd" data-name="Path 232-8" d="M279.35,524.79l1.18,87.46,1.18,87.46,1.18-87.46,1.18-87.46h-4.71Z" fill="#fdf3e9"/>
            <path id="ne" data-name="Path 233-8" d="M274.64,524.79l1.18,87.46,1.18,87.46,1.18-87.46,1.18-87.46h-4.71Z" fill="#fdf3e9"/>
            <path id="nf" data-name="Path 234-8" d="M269.93,524.79l1.18,87.46,1.18,87.46,1.18-87.46,1.18-87.46h-4.71Z" fill="#fdf3e9"/>
            <path id="ng" data-name="Path 235-8" d="M265.23,524.79l1.18,87.46,1.18,87.46,1.18-87.46,1.17-87.46h-4.71Z" fill="#fdf3e9"/>
            <path id="nh" data-name="Path 236-8" d="M260.52,524.79l1.18,87.46,1.18,87.46,1.18-87.46,1.17-87.46h-4.7Z" fill="#fdf3e9"/>
            <path id="ni" data-name="Path 237-8" d="M255.82,524.79l1.18,87.46,1.18,87.46,1.17-87.46,1.18-87.46h-4.71Z" fill="#fdf3e9"/>
            <path id="nj" data-name="Path 238-8" d="M251.11,524.79l1.18,87.46,1.18,87.46,1.18-87.46,1.18-87.46h-4.71Z" fill="#fdf3e9"/>
            <path id="nk" data-name="Path 239-8" d="M246.4,524.79l1.18,87.46,1.18,87.46,1.17-87.46,1.18-87.46h-4.71Z" fill="#fdf3e9"/>
            <path id="nl" data-name="Path 240-8" d="M241.7,524.79l1.18,87.46,1.18,87.46,1.18-87.46,1.18-87.46h-4.71Z" fill="#fdf3e9"/>
            <path id="nm" data-name="Path 241-8" d="M236.99,524.79l1.18,87.46,1.18,87.46,1.18-87.46,1.18-87.46h-4.71Z" fill="#fdf3e9"/>
            <path id="nn" data-name="Path 242-8" d="M232.29,524.79l1.18,87.46,1.18,87.46,1.18-87.46,1.18-87.46h-4.71Z" fill="#fdf3e9"/>
            <path id="no" data-name="Path 243-8" d="M227.58,524.79l1.18,87.46,1.18,87.46,1.18-87.46,1.17-87.46h-4.71Z" fill="#fdf3e9"/>
            <path id="np" data-name="Path 244-8" d="M222.88,524.79l1.18,87.46,1.18,87.46,1.18-87.46,1.18-87.46h-4.71Z" fill="#fdf3e9"/>
            <path id="nq" data-name="Path 245-8" d="M218.17,524.79l1.18,87.46,1.18,87.46,1.18-87.46,1.17-87.46h-4.7Z" fill="#fdf3e9"/>
            <path id="nr" data-name="Path 246-8" d="M213.46,524.79l1.18,87.46,1.18,87.46,1.18-87.46,1.18-87.46h-4.71Z" fill="#fdf3e9"/>
            <path id="ns" data-name="Path 247-8" d="M208.76,524.79l1.18,87.46,1.18,87.46,1.18-87.46,1.18-87.46h-4.71Z" fill="#fdf3e9"/>
            <path id="nt" data-name="Path 248-8" d="M204.05,524.79l1.18,87.46,1.18,87.46,1.18-87.46,1.18-87.46h-4.71Z" fill="#fdf3e9"/>
            <path id="nu" data-name="Path 249-8" d="M199.35,524.79l1.18,87.46,1.18,87.46,1.18-87.46,1.18-87.46h-4.71Z" fill="#fdf3e9"/>
            <path id="nv" data-name="Path 250-8" d="M194.64,524.79l1.18,87.46,1.18,87.46,1.18-87.46,1.18-87.46h-4.71Z" fill="#fdf3e9"/>
            <path id="nw" data-name="Path 251-8" d="M189.94,524.79l1.18,87.46,1.18,87.46,1.18-87.46,1.18-87.46h-4.71Z" fill="#fdf3e9"/>
            <path id="nx" data-name="Path 252-8" d="M185.23,524.79l1.18,87.46,1.18,87.46,1.18-87.46,1.17-87.46h-4.71Z" fill="#fdf3e9"/>
            <path id="ny" data-name="Path 253-8" d="M180.52,524.79l1.18,87.46,1.18,87.46,1.17-87.46,1.18-87.46h-4.71Z" fill="#fdf3e9"/>
            <path id="nz" data-name="Path 254-8" d="M175.82,524.79l1.18,87.46,1.18,87.46,1.18-87.46,1.17-87.46h-4.7Z" fill="#fdf3e9"/>
          </g>
        </g>
        <g id="oa" data-name="Group 320" isolation="isolate" mix-blend-mode="soft-light">
          <g id="ob" data-name="Group 167-3">
            <g id="oc" data-name="Group 146-6">
              <path id="od" data-name="Path 218-9" d="M695.3,700l1.18-87.46,1.18-87.47,1.18,87.46,1.18,87.46h-4.7Z" fill="#fdf3e9"/>
              <path id="oe" data-name="Path 219-9" d="M690.59,700l1.18-87.46,1.18-87.47,1.17,87.47,1.18,87.46h-4.7Z" fill="#fdf3e9"/>
              <path id="of" data-name="Path 220-9" d="M685.88,700l1.18-87.46,1.18-87.47,1.18,87.46,1.18,87.46h-4.7Z" fill="#fdf3e9"/>
              <path id="og" data-name="Path 221-9" d="M681.18,700l1.18-87.46,1.18-87.47,1.18,87.46,1.18,87.46h-4.7Z" fill="#fdf3e9"/>
              <path id="oh" data-name="Path 222-9" d="M676.47,700l1.18-87.46,1.18-87.47,1.18,87.46,1.18,87.46h-4.71Z" fill="#fdf3e9"/>
              <path id="oi" data-name="Path 223-9" d="M671.77,700l1.18-87.46,1.18-87.47,1.18,87.46,1.18,87.46h-4.7Z" fill="#fdf3e9"/>
              <path id="oj" data-name="Path 224-9" d="M667.06,700l1.18-87.46,1.18-87.47,1.18,87.46,1.18,87.46h-4.71Z" fill="#fdf3e9"/>
              <path id="ok" data-name="Path 225-9" d="M662.36,700l1.18-87.46,1.18-87.47,1.18,87.46,1.18,87.46h-4.71Z" fill="#fdf3e9"/>
              <path id="ol" data-name="Path 226-9" d="M657.65,700l1.18-87.46,1.17-87.47,1.18,87.46,1.18,87.46h-4.71Z" fill="#fdf3e9"/>
              <path id="om" data-name="Path 227-9" d="M652.95,700l1.18-87.46,1.18-87.47,1.18,87.46,1.18,87.46h-4.7Z" fill="#fdf3e9"/>
              <path id="on" data-name="Path 228-9" d="M648.24,700l1.18-87.46,1.18-87.47,1.17,87.47,1.18,87.46h-4.7Z" fill="#fdf3e9"/>
              <path id="oo" data-name="Path 229-9" d="M643.53,700l1.18-87.46,1.18-87.47,1.18,87.46,1.18,87.46h-4.71Z" fill="#fdf3e9"/>
              <path id="op" data-name="Path 230-9" d="M638.83,700l1.18-87.46,1.18-87.47,1.18,87.46,1.18,87.46h-4.71Z" fill="#fdf3e9"/>
              <path id="oq" data-name="Path 231-9" d="M634.12,700l1.18-87.46,1.18-87.47,1.18,87.46,1.18,87.46h-4.71Z" fill="#fdf3e9"/>
              <path id="or" data-name="Path 232-9" d="M629.41,700l1.18-87.46,1.18-87.47,1.18,87.46,1.18,87.46h-4.71Z" fill="#fdf3e9"/>
              <path id="os" data-name="Path 233-9" d="M624.71,700l1.18-87.46,1.18-87.47,1.18,87.46,1.18,87.46h-4.71Z" fill="#fdf3e9"/>
              <path id="ot" data-name="Path 234-9" d="M620,700l1.18-87.46,1.18-87.47,1.18,87.47,1.18,87.46h-4.71Z" fill="#fdf3e9"/>
              <path id="ou" data-name="Path 235-9" d="M615.3,700l1.18-87.46,1.17-87.47,1.18,87.46,1.18,87.46h-4.71Z" fill="#fdf3e9"/>
              <path id="ov" data-name="Path 236-9" d="M610.59,700l1.18-87.46,1.18-87.47,1.18,87.46,1.17,87.46h-4.7Z" fill="#fdf3e9"/>
              <path id="ow" data-name="Path 237-9" d="M605.89,700l1.18-87.46,1.18-87.47,1.17,87.47,1.18,87.46h-4.7Z" fill="#fdf3e9"/>
              <path id="ox" data-name="Path 238-9" d="M601.18,700l1.18-87.46,1.18-87.47,1.18,87.46,1.18,87.46h-4.71Z" fill="#fdf3e9"/>
              <path id="oy" data-name="Path 239-9" d="M596.47,700l1.18-87.46,1.18-87.47,1.18,87.47,1.18,87.46h-4.71Z" fill="#fdf3e9"/>
              <path id="oz" data-name="Path 240-9" d="M591.77,700l1.18-87.46,1.18-87.47,1.18,87.46,1.18,87.46h-4.71Z" fill="#fdf3e9"/>
              <path id="pa" data-name="Path 241-9" d="M587.06,700l1.18-87.46,1.18-87.47,1.18,87.46,1.18,87.46h-4.71Z" fill="#fdf3e9"/>
              <path id="pb" data-name="Path 242-9" d="M582.36,700l1.18-87.46,1.18-87.47,1.18,87.46,1.18,87.46h-4.7Z" fill="#fdf3e9"/>
              <path id="pc" data-name="Path 243-9" d="M577.65,700l1.18-87.46,1.18-87.47,1.18,87.46,1.18,87.46h-4.71Z" fill="#fdf3e9"/>
              <path id="pd" data-name="Path 244-9" d="M572.95,700l1.18-87.46,1.17-87.47,1.18,87.47,1.18,87.46h-4.71Z" fill="#fdf3e9"/>
              <path id="pe" data-name="Path 245-9" d="M568.24,700l1.18-87.46,1.18-87.47,1.18,87.46,1.17,87.46h-4.7Z" fill="#fdf3e9"/>
              <path id="pf" data-name="Path 246-9" d="M563.53,700l1.18-87.46,1.18-87.47,1.18,87.46,1.18,87.46h-4.71Z" fill="#fdf3e9"/>
              <path id="pg" data-name="Path 247-9" d="M558.83,700l1.18-87.46,1.18-87.47,1.18,87.46,1.18,87.46h-4.7Z" fill="#fdf3e9"/>
              <path id="ph" data-name="Path 248-9" d="M554.12,700l1.18-87.46,1.18-87.47,1.18,87.46,1.18,87.46h-4.7Z" fill="#fdf3e9"/>
              <path id="pi" data-name="Path 249-9" d="M549.42,700l1.18-87.46,1.18-87.47,1.18,87.46,1.18,87.46h-4.71Z" fill="#fdf3e9"/>
              <path id="pj" data-name="Path 250-9" d="M544.71,700l1.18-87.46,1.18-87.47,1.18,87.46,1.18,87.46h-4.71Z" fill="#fdf3e9"/>
              <path id="pk" data-name="Path 251-9" d="M540.01,700l1.18-87.46,1.18-87.47,1.18,87.46,1.18,87.46h-4.7Z" fill="#fdf3e9"/>
              <path id="pl" data-name="Path 252-9" d="M535.3,700l1.18-87.46,1.18-87.47,1.18,87.46,1.18,87.46h-4.71Z" fill="#fdf3e9"/>
              <path id="pm" data-name="Path 253-9" d="M530.59,700l1.18-87.46,1.18-87.47,1.18,87.47,1.18,87.46h-4.71Z" fill="#fdf3e9"/>
              <path id="pn" data-name="Path 254-9" d="M525.89,700l1.18-87.46,1.18-87.47,1.18,87.47,1.17,87.46h-4.7Z" fill="#fdf3e9"/>
            </g>
          </g>
        </g>
      </g>
    </g>
  </g>
</svg>