<svg id="bg-pattern-gold" xmlns="http://www.w3.org/2000/svg" width="1065.857" height="1059.355" viewBox="0 0 1065.857 1059.355">
  <g id="Group_180" data-name="Group 180" transform="translate(266.464 0.001)">
    <g id="Group_146" data-name="Group 146" transform="translate(0 0)">
      <path id="Path_218" data-name="Path 218" d="M144.8,0l1.8,133.231,1.8,133.233,1.8-133.233L152,0Z" transform="translate(114.465 0)" fill="#fdf3e9"/>
      <path id="Path_219" data-name="Path 219" d="M140.774,0l1.8,133.231,1.8,133.233,1.8-133.233L147.976,0Z" transform="translate(111.286 0)" fill="#fdf3e9"/>
      <path id="Path_220" data-name="Path 220" d="M136.752,0l1.8,133.231,1.8,133.233,1.8-133.233L143.954,0Z" transform="translate(108.106 0)" fill="#fdf3e9"/>
      <path id="Path_221" data-name="Path 221" d="M132.73,0l1.8,133.231,1.8,133.233,1.8-133.233L139.932,0Z" transform="translate(104.927 0)" fill="#fdf3e9"/>
      <path id="Path_222" data-name="Path 222" d="M128.708,0l1.8,133.231,1.8,133.233,1.8-133.233L135.91,0Z" transform="translate(101.747 0)" fill="#fdf3e9"/>
      <path id="Path_223" data-name="Path 223" d="M124.686,0l1.8,133.231,1.8,133.233,1.8-133.233L131.887,0Z" transform="translate(98.567 0)" fill="#fdf3e9"/>
      <path id="Path_224" data-name="Path 224" d="M120.664,0l1.8,133.231,1.8,133.233,1.8-133.233L127.865,0Z" transform="translate(95.388 0)" fill="#fdf3e9"/>
      <path id="Path_225" data-name="Path 225" d="M116.642,0l1.8,133.231,1.8,133.233,1.8-133.233L123.843,0Z" transform="translate(92.208 0)" fill="#fdf3e9"/>
      <path id="Path_226" data-name="Path 226" d="M112.62,0l1.8,133.231,1.8,133.233,1.8-133.233L119.821,0Z" transform="translate(89.029 0)" fill="#fdf3e9"/>
      <path id="Path_227" data-name="Path 227" d="M108.6,0l1.8,133.231,1.8,133.233L114,133.232,115.8,0Z" transform="translate(85.849 0)" fill="#fdf3e9"/>
      <path id="Path_228" data-name="Path 228" d="M104.575,0l1.8,133.231,1.8,133.233,1.8-133.233L111.777,0Z" transform="translate(82.67 0)" fill="#fdf3e9"/>
      <path id="Path_229" data-name="Path 229" d="M100.553,0l1.8,133.231,1.8,133.233,1.8-133.233L107.755,0Z" transform="translate(79.49 0)" fill="#fdf3e9"/>
      <path id="Path_230" data-name="Path 230" d="M96.531,0l1.8,133.231,1.8,133.233,1.8-133.233L103.733,0Z" transform="translate(76.31 0)" fill="#fdf3e9"/>
      <path id="Path_231" data-name="Path 231" d="M92.509,0l1.8,133.231,1.8,133.233,1.8-133.233L99.711,0Z" transform="translate(73.131 0)" fill="#fdf3e9"/>
      <path id="Path_232" data-name="Path 232" d="M88.487,0l1.8,133.231,1.8,133.233,1.8-133.233L95.689,0Z" transform="translate(69.951 0)" fill="#fdf3e9"/>
      <path id="Path_233" data-name="Path 233" d="M84.465,0l1.8,133.231,1.8,133.233,1.8-133.233L91.666,0Z" transform="translate(66.772 0)" fill="#fdf3e9"/>
      <path id="Path_234" data-name="Path 234" d="M80.443,0l1.8,133.231,1.8,133.233,1.8-133.233L87.644,0Z" transform="translate(63.592 0)" fill="#fdf3e9"/>
      <path id="Path_235" data-name="Path 235" d="M76.421,0l1.8,133.231,1.8,133.233,1.8-133.233L83.622,0Z" transform="translate(60.413 0)" fill="#fdf3e9"/>
      <path id="Path_236" data-name="Path 236" d="M72.4,0l1.8,133.231L76,266.465l1.8-133.233L79.6,0Z" transform="translate(57.233 0)" fill="#fdf3e9"/>
      <path id="Path_237" data-name="Path 237" d="M68.377,0l1.8,133.231,1.8,133.233,1.8-133.233L75.578,0Z" transform="translate(54.053 0)" fill="#fdf3e9"/>
      <path id="Path_238" data-name="Path 238" d="M64.355,0l1.8,133.231,1.8,133.233,1.8-133.233L71.556,0Z" transform="translate(50.874 0)" fill="#fdf3e9"/>
      <path id="Path_239" data-name="Path 239" d="M60.332,0l1.8,133.231,1.8,133.233,1.8-133.233L67.535,0Z" transform="translate(47.694 0)" fill="#fdf3e9"/>
      <path id="Path_240" data-name="Path 240" d="M56.309,0l1.8,133.231,1.8,133.233,1.8-133.233L63.511,0Z" transform="translate(44.514 0)" fill="#fdf3e9"/>
      <path id="Path_241" data-name="Path 241" d="M52.287,0l1.8,133.231,1.8,133.233,1.8-133.233L59.489,0Z" transform="translate(41.334 0)" fill="#fdf3e9"/>
      <path id="Path_242" data-name="Path 242" d="M48.265,0l1.8,133.231,1.8,133.233,1.8-133.233L55.467,0Z" transform="translate(38.155 0)" fill="#fdf3e9"/>
      <path id="Path_243" data-name="Path 243" d="M44.243,0l1.8,133.231,1.8,133.233,1.8-133.233L51.445,0Z" transform="translate(34.975 0)" fill="#fdf3e9"/>
      <path id="Path_244" data-name="Path 244" d="M40.221,0l1.8,133.231,1.8,133.233,1.8-133.233L47.422,0Z" transform="translate(31.796 0)" fill="#fdf3e9"/>
      <path id="Path_245" data-name="Path 245" d="M36.2,0,38,133.232l1.8,133.233,1.8-133.233L43.4,0Z" transform="translate(28.616 0)" fill="#fdf3e9"/>
      <path id="Path_246" data-name="Path 246" d="M32.177,0l1.8,133.231,1.8,133.233,1.8-133.233L39.378,0Z" transform="translate(25.437 0)" fill="#fdf3e9"/>
      <path id="Path_247" data-name="Path 247" d="M28.155,0l1.8,133.231,1.8,133.233,1.8-133.233L35.356,0Z" transform="translate(22.257 0)" fill="#fdf3e9"/>
      <path id="Path_248" data-name="Path 248" d="M24.133,0l1.8,133.231,1.8,133.233,1.8-133.233L31.334,0Z" transform="translate(19.077 0)" fill="#fdf3e9"/>
      <path id="Path_249" data-name="Path 249" d="M20.11,0l1.8,133.231,1.8,133.233,1.8-133.233L27.312,0Z" transform="translate(15.898 0)" fill="#fdf3e9"/>
      <path id="Path_250" data-name="Path 250" d="M16.088,0l1.8,133.231,1.8,133.233,1.8-133.233L23.29,0Z" transform="translate(12.718 0)" fill="#fdf3e9"/>
      <path id="Path_251" data-name="Path 251" d="M12.066,0l1.8,133.231,1.8,133.233,1.8-133.233L19.268,0Z" transform="translate(9.539 0)" fill="#fdf3e9"/>
      <path id="Path_252" data-name="Path 252" d="M8.044,0l1.8,133.231,1.8,133.233,1.8-133.233L15.246,0Z" transform="translate(6.359 0)" fill="#fdf3e9"/>
      <path id="Path_253" data-name="Path 253" d="M4.022,0l1.8,133.231,1.8,133.233,1.8-133.233L11.224,0Z" transform="translate(3.18 0)" fill="#fdf3e9"/>
      <path id="Path_254" data-name="Path 254" d="M0,0,1.8,133.232,3.6,266.465,5.4,133.232,7.2,0Z" transform="translate(0 0)" fill="#fdf3e9"/>
    </g>
  </g>
  <g id="Group_190" data-name="Group 190" transform="translate(799.394 0.001)">
    <g id="Group_146-2" data-name="Group 146" transform="translate(0 0)">
      <path id="Path_218-2" data-name="Path 218" d="M144.8,0l1.8,133.231,1.8,133.233,1.8-133.233L152,0Z" transform="translate(114.465 0)" fill="#fdf3e9"/>
      <path id="Path_219-2" data-name="Path 219" d="M140.774,0l1.8,133.231,1.8,133.233,1.8-133.233L147.976,0Z" transform="translate(111.286 0)" fill="#fdf3e9"/>
      <path id="Path_220-2" data-name="Path 220" d="M136.752,0l1.8,133.231,1.8,133.233,1.8-133.233L143.954,0Z" transform="translate(108.106 0)" fill="#fdf3e9"/>
      <path id="Path_221-2" data-name="Path 221" d="M132.73,0l1.8,133.231,1.8,133.233,1.8-133.233L139.932,0Z" transform="translate(104.927 0)" fill="#fdf3e9"/>
      <path id="Path_222-2" data-name="Path 222" d="M128.708,0l1.8,133.231,1.8,133.233,1.8-133.233L135.91,0Z" transform="translate(101.747 0)" fill="#fdf3e9"/>
      <path id="Path_223-2" data-name="Path 223" d="M124.686,0l1.8,133.231,1.8,133.233,1.8-133.233L131.887,0Z" transform="translate(98.567 0)" fill="#fdf3e9"/>
      <path id="Path_224-2" data-name="Path 224" d="M120.664,0l1.8,133.231,1.8,133.233,1.8-133.233L127.865,0Z" transform="translate(95.388 0)" fill="#fdf3e9"/>
      <path id="Path_225-2" data-name="Path 225" d="M116.642,0l1.8,133.231,1.8,133.233,1.8-133.233L123.843,0Z" transform="translate(92.208 0)" fill="#fdf3e9"/>
      <path id="Path_226-2" data-name="Path 226" d="M112.62,0l1.8,133.231,1.8,133.233,1.8-133.233L119.821,0Z" transform="translate(89.029 0)" fill="#fdf3e9"/>
      <path id="Path_227-2" data-name="Path 227" d="M108.6,0l1.8,133.231,1.8,133.233L114,133.232,115.8,0Z" transform="translate(85.849 0)" fill="#fdf3e9"/>
      <path id="Path_228-2" data-name="Path 228" d="M104.575,0l1.8,133.231,1.8,133.233,1.8-133.233L111.777,0Z" transform="translate(82.67 0)" fill="#fdf3e9"/>
      <path id="Path_229-2" data-name="Path 229" d="M100.553,0l1.8,133.231,1.8,133.233,1.8-133.233L107.755,0Z" transform="translate(79.49 0)" fill="#fdf3e9"/>
      <path id="Path_230-2" data-name="Path 230" d="M96.531,0l1.8,133.231,1.8,133.233,1.8-133.233L103.733,0Z" transform="translate(76.31 0)" fill="#fdf3e9"/>
      <path id="Path_231-2" data-name="Path 231" d="M92.509,0l1.8,133.231,1.8,133.233,1.8-133.233L99.711,0Z" transform="translate(73.131 0)" fill="#fdf3e9"/>
      <path id="Path_232-2" data-name="Path 232" d="M88.487,0l1.8,133.231,1.8,133.233,1.8-133.233L95.689,0Z" transform="translate(69.951 0)" fill="#fdf3e9"/>
      <path id="Path_233-2" data-name="Path 233" d="M84.465,0l1.8,133.231,1.8,133.233,1.8-133.233L91.666,0Z" transform="translate(66.772 0)" fill="#fdf3e9"/>
      <path id="Path_234-2" data-name="Path 234" d="M80.443,0l1.8,133.231,1.8,133.233,1.8-133.233L87.644,0Z" transform="translate(63.592 0)" fill="#fdf3e9"/>
      <path id="Path_235-2" data-name="Path 235" d="M76.421,0l1.8,133.231,1.8,133.233,1.8-133.233L83.622,0Z" transform="translate(60.413 0)" fill="#fdf3e9"/>
      <path id="Path_236-2" data-name="Path 236" d="M72.4,0l1.8,133.231L76,266.465l1.8-133.233L79.6,0Z" transform="translate(57.233 0)" fill="#fdf3e9"/>
      <path id="Path_237-2" data-name="Path 237" d="M68.377,0l1.8,133.231,1.8,133.233,1.8-133.233L75.578,0Z" transform="translate(54.053 0)" fill="#fdf3e9"/>
      <path id="Path_238-2" data-name="Path 238" d="M64.355,0l1.8,133.231,1.8,133.233,1.8-133.233L71.556,0Z" transform="translate(50.874 0)" fill="#fdf3e9"/>
      <path id="Path_239-2" data-name="Path 239" d="M60.332,0l1.8,133.231,1.8,133.233,1.8-133.233L67.535,0Z" transform="translate(47.694 0)" fill="#fdf3e9"/>
      <path id="Path_240-2" data-name="Path 240" d="M56.309,0l1.8,133.231,1.8,133.233,1.8-133.233L63.511,0Z" transform="translate(44.514 0)" fill="#fdf3e9"/>
      <path id="Path_241-2" data-name="Path 241" d="M52.287,0l1.8,133.231,1.8,133.233,1.8-133.233L59.489,0Z" transform="translate(41.334 0)" fill="#fdf3e9"/>
      <path id="Path_242-2" data-name="Path 242" d="M48.265,0l1.8,133.231,1.8,133.233,1.8-133.233L55.467,0Z" transform="translate(38.155 0)" fill="#fdf3e9"/>
      <path id="Path_243-2" data-name="Path 243" d="M44.243,0l1.8,133.231,1.8,133.233,1.8-133.233L51.445,0Z" transform="translate(34.975 0)" fill="#fdf3e9"/>
      <path id="Path_244-2" data-name="Path 244" d="M40.221,0l1.8,133.231,1.8,133.233,1.8-133.233L47.422,0Z" transform="translate(31.796 0)" fill="#fdf3e9"/>
      <path id="Path_245-2" data-name="Path 245" d="M36.2,0,38,133.232l1.8,133.233,1.8-133.233L43.4,0Z" transform="translate(28.616 0)" fill="#fdf3e9"/>
      <path id="Path_246-2" data-name="Path 246" d="M32.177,0l1.8,133.231,1.8,133.233,1.8-133.233L39.378,0Z" transform="translate(25.437 0)" fill="#fdf3e9"/>
      <path id="Path_247-2" data-name="Path 247" d="M28.155,0l1.8,133.231,1.8,133.233,1.8-133.233L35.356,0Z" transform="translate(22.257 0)" fill="#fdf3e9"/>
      <path id="Path_248-2" data-name="Path 248" d="M24.133,0l1.8,133.231,1.8,133.233,1.8-133.233L31.334,0Z" transform="translate(19.077 0)" fill="#fdf3e9"/>
      <path id="Path_249-2" data-name="Path 249" d="M20.11,0l1.8,133.231,1.8,133.233,1.8-133.233L27.312,0Z" transform="translate(15.898 0)" fill="#fdf3e9"/>
      <path id="Path_250-2" data-name="Path 250" d="M16.088,0l1.8,133.231,1.8,133.233,1.8-133.233L23.29,0Z" transform="translate(12.718 0)" fill="#fdf3e9"/>
      <path id="Path_251-2" data-name="Path 251" d="M12.066,0l1.8,133.231,1.8,133.233,1.8-133.233L19.268,0Z" transform="translate(9.539 0)" fill="#fdf3e9"/>
      <path id="Path_252-2" data-name="Path 252" d="M8.044,0l1.8,133.231,1.8,133.233,1.8-133.233L15.246,0Z" transform="translate(6.359 0)" fill="#fdf3e9"/>
      <path id="Path_253-2" data-name="Path 253" d="M4.022,0l1.8,133.231,1.8,133.233,1.8-133.233L11.224,0Z" transform="translate(3.18 0)" fill="#fdf3e9"/>
      <path id="Path_254-2" data-name="Path 254" d="M0,0,1.8,133.232,3.6,266.465,5.4,133.232,7.2,0Z" transform="translate(0 0)" fill="#fdf3e9"/>
    </g>
  </g>
  <g id="Group_189" data-name="Group 189" transform="translate(266.464 528.595)">
    <g id="Group_146-3" data-name="Group 146" transform="translate(0 0)">
      <path id="Path_218-3" data-name="Path 218" d="M144.8,0l1.8,133.231,1.8,133.233,1.8-133.233L152,0Z" transform="translate(114.465 0)" fill="#fdf3e9"/>
      <path id="Path_219-3" data-name="Path 219" d="M140.774,0l1.8,133.231,1.8,133.233,1.8-133.233L147.976,0Z" transform="translate(111.286 0)" fill="#fdf3e9"/>
      <path id="Path_220-3" data-name="Path 220" d="M136.752,0l1.8,133.231,1.8,133.233,1.8-133.233L143.954,0Z" transform="translate(108.106 0)" fill="#fdf3e9"/>
      <path id="Path_221-3" data-name="Path 221" d="M132.73,0l1.8,133.231,1.8,133.233,1.8-133.233L139.932,0Z" transform="translate(104.927 0)" fill="#fdf3e9"/>
      <path id="Path_222-3" data-name="Path 222" d="M128.708,0l1.8,133.231,1.8,133.233,1.8-133.233L135.91,0Z" transform="translate(101.747 0)" fill="#fdf3e9"/>
      <path id="Path_223-3" data-name="Path 223" d="M124.686,0l1.8,133.231,1.8,133.233,1.8-133.233L131.887,0Z" transform="translate(98.567 0)" fill="#fdf3e9"/>
      <path id="Path_224-3" data-name="Path 224" d="M120.664,0l1.8,133.231,1.8,133.233,1.8-133.233L127.865,0Z" transform="translate(95.388 0)" fill="#fdf3e9"/>
      <path id="Path_225-3" data-name="Path 225" d="M116.642,0l1.8,133.231,1.8,133.233,1.8-133.233L123.843,0Z" transform="translate(92.208 0)" fill="#fdf3e9"/>
      <path id="Path_226-3" data-name="Path 226" d="M112.62,0l1.8,133.231,1.8,133.233,1.8-133.233L119.821,0Z" transform="translate(89.029 0)" fill="#fdf3e9"/>
      <path id="Path_227-3" data-name="Path 227" d="M108.6,0l1.8,133.231,1.8,133.233L114,133.232,115.8,0Z" transform="translate(85.849 0)" fill="#fdf3e9"/>
      <path id="Path_228-3" data-name="Path 228" d="M104.575,0l1.8,133.231,1.8,133.233,1.8-133.233L111.777,0Z" transform="translate(82.67 0)" fill="#fdf3e9"/>
      <path id="Path_229-3" data-name="Path 229" d="M100.553,0l1.8,133.231,1.8,133.233,1.8-133.233L107.755,0Z" transform="translate(79.49 0)" fill="#fdf3e9"/>
      <path id="Path_230-3" data-name="Path 230" d="M96.531,0l1.8,133.231,1.8,133.233,1.8-133.233L103.733,0Z" transform="translate(76.31 0)" fill="#fdf3e9"/>
      <path id="Path_231-3" data-name="Path 231" d="M92.509,0l1.8,133.231,1.8,133.233,1.8-133.233L99.711,0Z" transform="translate(73.131 0)" fill="#fdf3e9"/>
      <path id="Path_232-3" data-name="Path 232" d="M88.487,0l1.8,133.231,1.8,133.233,1.8-133.233L95.689,0Z" transform="translate(69.951 0)" fill="#fdf3e9"/>
      <path id="Path_233-3" data-name="Path 233" d="M84.465,0l1.8,133.231,1.8,133.233,1.8-133.233L91.666,0Z" transform="translate(66.772 0)" fill="#fdf3e9"/>
      <path id="Path_234-3" data-name="Path 234" d="M80.443,0l1.8,133.231,1.8,133.233,1.8-133.233L87.644,0Z" transform="translate(63.592 0)" fill="#fdf3e9"/>
      <path id="Path_235-3" data-name="Path 235" d="M76.421,0l1.8,133.231,1.8,133.233,1.8-133.233L83.622,0Z" transform="translate(60.413 0)" fill="#fdf3e9"/>
      <path id="Path_236-3" data-name="Path 236" d="M72.4,0l1.8,133.231L76,266.465l1.8-133.233L79.6,0Z" transform="translate(57.233 0)" fill="#fdf3e9"/>
      <path id="Path_237-3" data-name="Path 237" d="M68.377,0l1.8,133.231,1.8,133.233,1.8-133.233L75.578,0Z" transform="translate(54.053 0)" fill="#fdf3e9"/>
      <path id="Path_238-3" data-name="Path 238" d="M64.355,0l1.8,133.231,1.8,133.233,1.8-133.233L71.556,0Z" transform="translate(50.874 0)" fill="#fdf3e9"/>
      <path id="Path_239-3" data-name="Path 239" d="M60.332,0l1.8,133.231,1.8,133.233,1.8-133.233L67.535,0Z" transform="translate(47.694 0)" fill="#fdf3e9"/>
      <path id="Path_240-3" data-name="Path 240" d="M56.309,0l1.8,133.231,1.8,133.233,1.8-133.233L63.511,0Z" transform="translate(44.514 0)" fill="#fdf3e9"/>
      <path id="Path_241-3" data-name="Path 241" d="M52.287,0l1.8,133.231,1.8,133.233,1.8-133.233L59.489,0Z" transform="translate(41.334 0)" fill="#fdf3e9"/>
      <path id="Path_242-3" data-name="Path 242" d="M48.265,0l1.8,133.231,1.8,133.233,1.8-133.233L55.467,0Z" transform="translate(38.155 0)" fill="#fdf3e9"/>
      <path id="Path_243-3" data-name="Path 243" d="M44.243,0l1.8,133.231,1.8,133.233,1.8-133.233L51.445,0Z" transform="translate(34.975 0)" fill="#fdf3e9"/>
      <path id="Path_244-3" data-name="Path 244" d="M40.221,0l1.8,133.231,1.8,133.233,1.8-133.233L47.422,0Z" transform="translate(31.796 0)" fill="#fdf3e9"/>
      <path id="Path_245-3" data-name="Path 245" d="M36.2,0,38,133.232l1.8,133.233,1.8-133.233L43.4,0Z" transform="translate(28.616 0)" fill="#fdf3e9"/>
      <path id="Path_246-3" data-name="Path 246" d="M32.177,0l1.8,133.231,1.8,133.233,1.8-133.233L39.378,0Z" transform="translate(25.437 0)" fill="#fdf3e9"/>
      <path id="Path_247-3" data-name="Path 247" d="M28.155,0l1.8,133.231,1.8,133.233,1.8-133.233L35.356,0Z" transform="translate(22.257 0)" fill="#fdf3e9"/>
      <path id="Path_248-3" data-name="Path 248" d="M24.133,0l1.8,133.231,1.8,133.233,1.8-133.233L31.334,0Z" transform="translate(19.077 0)" fill="#fdf3e9"/>
      <path id="Path_249-3" data-name="Path 249" d="M20.11,0l1.8,133.231,1.8,133.233,1.8-133.233L27.312,0Z" transform="translate(15.898 0)" fill="#fdf3e9"/>
      <path id="Path_250-3" data-name="Path 250" d="M16.088,0l1.8,133.231,1.8,133.233,1.8-133.233L23.29,0Z" transform="translate(12.718 0)" fill="#fdf3e9"/>
      <path id="Path_251-3" data-name="Path 251" d="M12.066,0l1.8,133.231,1.8,133.233,1.8-133.233L19.268,0Z" transform="translate(9.539 0)" fill="#fdf3e9"/>
      <path id="Path_252-3" data-name="Path 252" d="M8.044,0l1.8,133.231,1.8,133.233,1.8-133.233L15.246,0Z" transform="translate(6.359 0)" fill="#fdf3e9"/>
      <path id="Path_253-3" data-name="Path 253" d="M4.022,0l1.8,133.231,1.8,133.233,1.8-133.233L11.224,0Z" transform="translate(3.18 0)" fill="#fdf3e9"/>
      <path id="Path_254-3" data-name="Path 254" d="M0,0,1.8,133.232,3.6,266.465,5.4,133.232,7.2,0Z" transform="translate(0 0)" fill="#fdf3e9"/>
    </g>
  </g>
  <g id="Group_192" data-name="Group 192" transform="translate(799.394 528.595)">
    <g id="Group_146-4" data-name="Group 146" transform="translate(0 0)">
      <path id="Path_218-4" data-name="Path 218" d="M144.8,0l1.8,133.231,1.8,133.233,1.8-133.233L152,0Z" transform="translate(114.465 0)" fill="#fdf3e9"/>
      <path id="Path_219-4" data-name="Path 219" d="M140.774,0l1.8,133.231,1.8,133.233,1.8-133.233L147.976,0Z" transform="translate(111.286 0)" fill="#fdf3e9"/>
      <path id="Path_220-4" data-name="Path 220" d="M136.752,0l1.8,133.231,1.8,133.233,1.8-133.233L143.954,0Z" transform="translate(108.106 0)" fill="#fdf3e9"/>
      <path id="Path_221-4" data-name="Path 221" d="M132.73,0l1.8,133.231,1.8,133.233,1.8-133.233L139.932,0Z" transform="translate(104.927 0)" fill="#fdf3e9"/>
      <path id="Path_222-4" data-name="Path 222" d="M128.708,0l1.8,133.231,1.8,133.233,1.8-133.233L135.91,0Z" transform="translate(101.747 0)" fill="#fdf3e9"/>
      <path id="Path_223-4" data-name="Path 223" d="M124.686,0l1.8,133.231,1.8,133.233,1.8-133.233L131.887,0Z" transform="translate(98.567 0)" fill="#fdf3e9"/>
      <path id="Path_224-4" data-name="Path 224" d="M120.664,0l1.8,133.231,1.8,133.233,1.8-133.233L127.865,0Z" transform="translate(95.388 0)" fill="#fdf3e9"/>
      <path id="Path_225-4" data-name="Path 225" d="M116.642,0l1.8,133.231,1.8,133.233,1.8-133.233L123.843,0Z" transform="translate(92.208 0)" fill="#fdf3e9"/>
      <path id="Path_226-4" data-name="Path 226" d="M112.62,0l1.8,133.231,1.8,133.233,1.8-133.233L119.821,0Z" transform="translate(89.029 0)" fill="#fdf3e9"/>
      <path id="Path_227-4" data-name="Path 227" d="M108.6,0l1.8,133.231,1.8,133.233L114,133.232,115.8,0Z" transform="translate(85.849 0)" fill="#fdf3e9"/>
      <path id="Path_228-4" data-name="Path 228" d="M104.575,0l1.8,133.231,1.8,133.233,1.8-133.233L111.777,0Z" transform="translate(82.67 0)" fill="#fdf3e9"/>
      <path id="Path_229-4" data-name="Path 229" d="M100.553,0l1.8,133.231,1.8,133.233,1.8-133.233L107.755,0Z" transform="translate(79.49 0)" fill="#fdf3e9"/>
      <path id="Path_230-4" data-name="Path 230" d="M96.531,0l1.8,133.231,1.8,133.233,1.8-133.233L103.733,0Z" transform="translate(76.31 0)" fill="#fdf3e9"/>
      <path id="Path_231-4" data-name="Path 231" d="M92.509,0l1.8,133.231,1.8,133.233,1.8-133.233L99.711,0Z" transform="translate(73.131 0)" fill="#fdf3e9"/>
      <path id="Path_232-4" data-name="Path 232" d="M88.487,0l1.8,133.231,1.8,133.233,1.8-133.233L95.689,0Z" transform="translate(69.951 0)" fill="#fdf3e9"/>
      <path id="Path_233-4" data-name="Path 233" d="M84.465,0l1.8,133.231,1.8,133.233,1.8-133.233L91.666,0Z" transform="translate(66.772 0)" fill="#fdf3e9"/>
      <path id="Path_234-4" data-name="Path 234" d="M80.443,0l1.8,133.231,1.8,133.233,1.8-133.233L87.644,0Z" transform="translate(63.592 0)" fill="#fdf3e9"/>
      <path id="Path_235-4" data-name="Path 235" d="M76.421,0l1.8,133.231,1.8,133.233,1.8-133.233L83.622,0Z" transform="translate(60.413 0)" fill="#fdf3e9"/>
      <path id="Path_236-4" data-name="Path 236" d="M72.4,0l1.8,133.231L76,266.465l1.8-133.233L79.6,0Z" transform="translate(57.233 0)" fill="#fdf3e9"/>
      <path id="Path_237-4" data-name="Path 237" d="M68.377,0l1.8,133.231,1.8,133.233,1.8-133.233L75.578,0Z" transform="translate(54.053 0)" fill="#fdf3e9"/>
      <path id="Path_238-4" data-name="Path 238" d="M64.355,0l1.8,133.231,1.8,133.233,1.8-133.233L71.556,0Z" transform="translate(50.874 0)" fill="#fdf3e9"/>
      <path id="Path_239-4" data-name="Path 239" d="M60.332,0l1.8,133.231,1.8,133.233,1.8-133.233L67.535,0Z" transform="translate(47.694 0)" fill="#fdf3e9"/>
      <path id="Path_240-4" data-name="Path 240" d="M56.309,0l1.8,133.231,1.8,133.233,1.8-133.233L63.511,0Z" transform="translate(44.514 0)" fill="#fdf3e9"/>
      <path id="Path_241-4" data-name="Path 241" d="M52.287,0l1.8,133.231,1.8,133.233,1.8-133.233L59.489,0Z" transform="translate(41.334 0)" fill="#fdf3e9"/>
      <path id="Path_242-4" data-name="Path 242" d="M48.265,0l1.8,133.231,1.8,133.233,1.8-133.233L55.467,0Z" transform="translate(38.155 0)" fill="#fdf3e9"/>
      <path id="Path_243-4" data-name="Path 243" d="M44.243,0l1.8,133.231,1.8,133.233,1.8-133.233L51.445,0Z" transform="translate(34.975 0)" fill="#fdf3e9"/>
      <path id="Path_244-4" data-name="Path 244" d="M40.221,0l1.8,133.231,1.8,133.233,1.8-133.233L47.422,0Z" transform="translate(31.796 0)" fill="#fdf3e9"/>
      <path id="Path_245-4" data-name="Path 245" d="M36.2,0,38,133.232l1.8,133.233,1.8-133.233L43.4,0Z" transform="translate(28.616 0)" fill="#fdf3e9"/>
      <path id="Path_246-4" data-name="Path 246" d="M32.177,0l1.8,133.231,1.8,133.233,1.8-133.233L39.378,0Z" transform="translate(25.437 0)" fill="#fdf3e9"/>
      <path id="Path_247-4" data-name="Path 247" d="M28.155,0l1.8,133.231,1.8,133.233,1.8-133.233L35.356,0Z" transform="translate(22.257 0)" fill="#fdf3e9"/>
      <path id="Path_248-4" data-name="Path 248" d="M24.133,0l1.8,133.231,1.8,133.233,1.8-133.233L31.334,0Z" transform="translate(19.077 0)" fill="#fdf3e9"/>
      <path id="Path_249-4" data-name="Path 249" d="M20.11,0l1.8,133.231,1.8,133.233,1.8-133.233L27.312,0Z" transform="translate(15.898 0)" fill="#fdf3e9"/>
      <path id="Path_250-4" data-name="Path 250" d="M16.088,0l1.8,133.231,1.8,133.233,1.8-133.233L23.29,0Z" transform="translate(12.718 0)" fill="#fdf3e9"/>
      <path id="Path_251-4" data-name="Path 251" d="M12.066,0l1.8,133.231,1.8,133.233,1.8-133.233L19.268,0Z" transform="translate(9.539 0)" fill="#fdf3e9"/>
      <path id="Path_252-4" data-name="Path 252" d="M8.044,0l1.8,133.231,1.8,133.233,1.8-133.233L15.246,0Z" transform="translate(6.359 0)" fill="#fdf3e9"/>
      <path id="Path_253-4" data-name="Path 253" d="M4.022,0l1.8,133.231,1.8,133.233,1.8-133.233L11.224,0Z" transform="translate(3.18 0)" fill="#fdf3e9"/>
      <path id="Path_254-4" data-name="Path 254" d="M0,0,1.8,133.232,3.6,266.465,5.4,133.232,7.2,0Z" transform="translate(0 0)" fill="#fdf3e9"/>
    </g>
  </g>
  <g id="Group_181" data-name="Group 181" transform="translate(532.928 264.297)">
    <g id="Group_146-5" data-name="Group 146" transform="translate(0 0)">
      <path id="Path_218-5" data-name="Path 218" d="M144.8,0l1.8,133.231,1.8,133.233,1.8-133.233L152,0Z" transform="translate(114.465 0)" fill="#fdf3e9"/>
      <path id="Path_219-5" data-name="Path 219" d="M140.774,0l1.8,133.231,1.8,133.233,1.8-133.233L147.976,0Z" transform="translate(111.286 0)" fill="#fdf3e9"/>
      <path id="Path_220-5" data-name="Path 220" d="M136.752,0l1.8,133.231,1.8,133.233,1.8-133.233L143.954,0Z" transform="translate(108.106 0)" fill="#fdf3e9"/>
      <path id="Path_221-5" data-name="Path 221" d="M132.73,0l1.8,133.231,1.8,133.233,1.8-133.233L139.932,0Z" transform="translate(104.927 0)" fill="#fdf3e9"/>
      <path id="Path_222-5" data-name="Path 222" d="M128.708,0l1.8,133.231,1.8,133.233,1.8-133.233L135.91,0Z" transform="translate(101.747 0)" fill="#fdf3e9"/>
      <path id="Path_223-5" data-name="Path 223" d="M124.686,0l1.8,133.231,1.8,133.233,1.8-133.233L131.887,0Z" transform="translate(98.567 0)" fill="#fdf3e9"/>
      <path id="Path_224-5" data-name="Path 224" d="M120.664,0l1.8,133.231,1.8,133.233,1.8-133.233L127.865,0Z" transform="translate(95.388 0)" fill="#fdf3e9"/>
      <path id="Path_225-5" data-name="Path 225" d="M116.642,0l1.8,133.231,1.8,133.233,1.8-133.233L123.843,0Z" transform="translate(92.208 0)" fill="#fdf3e9"/>
      <path id="Path_226-5" data-name="Path 226" d="M112.62,0l1.8,133.231,1.8,133.233,1.8-133.233L119.821,0Z" transform="translate(89.029 0)" fill="#fdf3e9"/>
      <path id="Path_227-5" data-name="Path 227" d="M108.6,0l1.8,133.231,1.8,133.233L114,133.232,115.8,0Z" transform="translate(85.849 0)" fill="#fdf3e9"/>
      <path id="Path_228-5" data-name="Path 228" d="M104.575,0l1.8,133.231,1.8,133.233,1.8-133.233L111.777,0Z" transform="translate(82.67 0)" fill="#fdf3e9"/>
      <path id="Path_229-5" data-name="Path 229" d="M100.553,0l1.8,133.231,1.8,133.233,1.8-133.233L107.755,0Z" transform="translate(79.49 0)" fill="#fdf3e9"/>
      <path id="Path_230-5" data-name="Path 230" d="M96.531,0l1.8,133.231,1.8,133.233,1.8-133.233L103.733,0Z" transform="translate(76.31 0)" fill="#fdf3e9"/>
      <path id="Path_231-5" data-name="Path 231" d="M92.509,0l1.8,133.231,1.8,133.233,1.8-133.233L99.711,0Z" transform="translate(73.131 0)" fill="#fdf3e9"/>
      <path id="Path_232-5" data-name="Path 232" d="M88.487,0l1.8,133.231,1.8,133.233,1.8-133.233L95.689,0Z" transform="translate(69.951 0)" fill="#fdf3e9"/>
      <path id="Path_233-5" data-name="Path 233" d="M84.465,0l1.8,133.231,1.8,133.233,1.8-133.233L91.666,0Z" transform="translate(66.772 0)" fill="#fdf3e9"/>
      <path id="Path_234-5" data-name="Path 234" d="M80.443,0l1.8,133.231,1.8,133.233,1.8-133.233L87.644,0Z" transform="translate(63.592 0)" fill="#fdf3e9"/>
      <path id="Path_235-5" data-name="Path 235" d="M76.421,0l1.8,133.231,1.8,133.233,1.8-133.233L83.622,0Z" transform="translate(60.413 0)" fill="#fdf3e9"/>
      <path id="Path_236-5" data-name="Path 236" d="M72.4,0l1.8,133.231L76,266.465l1.8-133.233L79.6,0Z" transform="translate(57.233 0)" fill="#fdf3e9"/>
      <path id="Path_237-5" data-name="Path 237" d="M68.377,0l1.8,133.231,1.8,133.233,1.8-133.233L75.578,0Z" transform="translate(54.053 0)" fill="#fdf3e9"/>
      <path id="Path_238-5" data-name="Path 238" d="M64.355,0l1.8,133.231,1.8,133.233,1.8-133.233L71.556,0Z" transform="translate(50.874 0)" fill="#fdf3e9"/>
      <path id="Path_239-5" data-name="Path 239" d="M60.332,0l1.8,133.231,1.8,133.233,1.8-133.233L67.535,0Z" transform="translate(47.694 0)" fill="#fdf3e9"/>
      <path id="Path_240-5" data-name="Path 240" d="M56.309,0l1.8,133.231,1.8,133.233,1.8-133.233L63.511,0Z" transform="translate(44.514 0)" fill="#fdf3e9"/>
      <path id="Path_241-5" data-name="Path 241" d="M52.287,0l1.8,133.231,1.8,133.233,1.8-133.233L59.489,0Z" transform="translate(41.334 0)" fill="#fdf3e9"/>
      <path id="Path_242-5" data-name="Path 242" d="M48.265,0l1.8,133.231,1.8,133.233,1.8-133.233L55.467,0Z" transform="translate(38.155 0)" fill="#fdf3e9"/>
      <path id="Path_243-5" data-name="Path 243" d="M44.243,0l1.8,133.231,1.8,133.233,1.8-133.233L51.445,0Z" transform="translate(34.975 0)" fill="#fdf3e9"/>
      <path id="Path_244-5" data-name="Path 244" d="M40.221,0l1.8,133.231,1.8,133.233,1.8-133.233L47.422,0Z" transform="translate(31.796 0)" fill="#fdf3e9"/>
      <path id="Path_245-5" data-name="Path 245" d="M36.2,0,38,133.232l1.8,133.233,1.8-133.233L43.4,0Z" transform="translate(28.616 0)" fill="#fdf3e9"/>
      <path id="Path_246-5" data-name="Path 246" d="M32.177,0l1.8,133.231,1.8,133.233,1.8-133.233L39.378,0Z" transform="translate(25.437 0)" fill="#fdf3e9"/>
      <path id="Path_247-5" data-name="Path 247" d="M28.155,0l1.8,133.231,1.8,133.233,1.8-133.233L35.356,0Z" transform="translate(22.257 0)" fill="#fdf3e9"/>
      <path id="Path_248-5" data-name="Path 248" d="M24.133,0l1.8,133.231,1.8,133.233,1.8-133.233L31.334,0Z" transform="translate(19.077 0)" fill="#fdf3e9"/>
      <path id="Path_249-5" data-name="Path 249" d="M20.11,0l1.8,133.231,1.8,133.233,1.8-133.233L27.312,0Z" transform="translate(15.898 0)" fill="#fdf3e9"/>
      <path id="Path_250-5" data-name="Path 250" d="M16.088,0l1.8,133.231,1.8,133.233,1.8-133.233L23.29,0Z" transform="translate(12.718 0)" fill="#fdf3e9"/>
      <path id="Path_251-5" data-name="Path 251" d="M12.066,0l1.8,133.231,1.8,133.233,1.8-133.233L19.268,0Z" transform="translate(9.539 0)" fill="#fdf3e9"/>
      <path id="Path_252-5" data-name="Path 252" d="M8.044,0l1.8,133.231,1.8,133.233,1.8-133.233L15.246,0Z" transform="translate(6.359 0)" fill="#fdf3e9"/>
      <path id="Path_253-5" data-name="Path 253" d="M4.022,0l1.8,133.231,1.8,133.233,1.8-133.233L11.224,0Z" transform="translate(3.18 0)" fill="#fdf3e9"/>
      <path id="Path_254-5" data-name="Path 254" d="M0,0,1.8,133.232,3.6,266.465,5.4,133.232,7.2,0Z" transform="translate(0 0)" fill="#fdf3e9"/>
    </g>
  </g>
  <g id="Group_194" data-name="Group 194" transform="translate(532.928 792.891)">
    <g id="Group_146-6" data-name="Group 146" transform="translate(0 0)">
      <path id="Path_218-6" data-name="Path 218" d="M144.8,0l1.8,133.231,1.8,133.233,1.8-133.233L152,0Z" transform="translate(114.465 0)" fill="#fdf3e9"/>
      <path id="Path_219-6" data-name="Path 219" d="M140.774,0l1.8,133.231,1.8,133.233,1.8-133.233L147.976,0Z" transform="translate(111.286 0)" fill="#fdf3e9"/>
      <path id="Path_220-6" data-name="Path 220" d="M136.752,0l1.8,133.231,1.8,133.233,1.8-133.233L143.954,0Z" transform="translate(108.106 0)" fill="#fdf3e9"/>
      <path id="Path_221-6" data-name="Path 221" d="M132.73,0l1.8,133.231,1.8,133.233,1.8-133.233L139.932,0Z" transform="translate(104.927 0)" fill="#fdf3e9"/>
      <path id="Path_222-6" data-name="Path 222" d="M128.708,0l1.8,133.231,1.8,133.233,1.8-133.233L135.91,0Z" transform="translate(101.747 0)" fill="#fdf3e9"/>
      <path id="Path_223-6" data-name="Path 223" d="M124.686,0l1.8,133.231,1.8,133.233,1.8-133.233L131.887,0Z" transform="translate(98.567 0)" fill="#fdf3e9"/>
      <path id="Path_224-6" data-name="Path 224" d="M120.664,0l1.8,133.231,1.8,133.233,1.8-133.233L127.865,0Z" transform="translate(95.388 0)" fill="#fdf3e9"/>
      <path id="Path_225-6" data-name="Path 225" d="M116.642,0l1.8,133.231,1.8,133.233,1.8-133.233L123.843,0Z" transform="translate(92.208 0)" fill="#fdf3e9"/>
      <path id="Path_226-6" data-name="Path 226" d="M112.62,0l1.8,133.231,1.8,133.233,1.8-133.233L119.821,0Z" transform="translate(89.029 0)" fill="#fdf3e9"/>
      <path id="Path_227-6" data-name="Path 227" d="M108.6,0l1.8,133.231,1.8,133.233L114,133.232,115.8,0Z" transform="translate(85.849 0)" fill="#fdf3e9"/>
      <path id="Path_228-6" data-name="Path 228" d="M104.575,0l1.8,133.231,1.8,133.233,1.8-133.233L111.777,0Z" transform="translate(82.67 0)" fill="#fdf3e9"/>
      <path id="Path_229-6" data-name="Path 229" d="M100.553,0l1.8,133.231,1.8,133.233,1.8-133.233L107.755,0Z" transform="translate(79.49 0)" fill="#fdf3e9"/>
      <path id="Path_230-6" data-name="Path 230" d="M96.531,0l1.8,133.231,1.8,133.233,1.8-133.233L103.733,0Z" transform="translate(76.31 0)" fill="#fdf3e9"/>
      <path id="Path_231-6" data-name="Path 231" d="M92.509,0l1.8,133.231,1.8,133.233,1.8-133.233L99.711,0Z" transform="translate(73.131 0)" fill="#fdf3e9"/>
      <path id="Path_232-6" data-name="Path 232" d="M88.487,0l1.8,133.231,1.8,133.233,1.8-133.233L95.689,0Z" transform="translate(69.951 0)" fill="#fdf3e9"/>
      <path id="Path_233-6" data-name="Path 233" d="M84.465,0l1.8,133.231,1.8,133.233,1.8-133.233L91.666,0Z" transform="translate(66.772 0)" fill="#fdf3e9"/>
      <path id="Path_234-6" data-name="Path 234" d="M80.443,0l1.8,133.231,1.8,133.233,1.8-133.233L87.644,0Z" transform="translate(63.592 0)" fill="#fdf3e9"/>
      <path id="Path_235-6" data-name="Path 235" d="M76.421,0l1.8,133.231,1.8,133.233,1.8-133.233L83.622,0Z" transform="translate(60.413 0)" fill="#fdf3e9"/>
      <path id="Path_236-6" data-name="Path 236" d="M72.4,0l1.8,133.231L76,266.465l1.8-133.233L79.6,0Z" transform="translate(57.233 0)" fill="#fdf3e9"/>
      <path id="Path_237-6" data-name="Path 237" d="M68.377,0l1.8,133.231,1.8,133.233,1.8-133.233L75.578,0Z" transform="translate(54.053 0)" fill="#fdf3e9"/>
      <path id="Path_238-6" data-name="Path 238" d="M64.355,0l1.8,133.231,1.8,133.233,1.8-133.233L71.556,0Z" transform="translate(50.874 0)" fill="#fdf3e9"/>
      <path id="Path_239-6" data-name="Path 239" d="M60.332,0l1.8,133.231,1.8,133.233,1.8-133.233L67.535,0Z" transform="translate(47.694 0)" fill="#fdf3e9"/>
      <path id="Path_240-6" data-name="Path 240" d="M56.309,0l1.8,133.231,1.8,133.233,1.8-133.233L63.511,0Z" transform="translate(44.514 0)" fill="#fdf3e9"/>
      <path id="Path_241-6" data-name="Path 241" d="M52.287,0l1.8,133.231,1.8,133.233,1.8-133.233L59.489,0Z" transform="translate(41.334 0)" fill="#fdf3e9"/>
      <path id="Path_242-6" data-name="Path 242" d="M48.265,0l1.8,133.231,1.8,133.233,1.8-133.233L55.467,0Z" transform="translate(38.155 0)" fill="#fdf3e9"/>
      <path id="Path_243-6" data-name="Path 243" d="M44.243,0l1.8,133.231,1.8,133.233,1.8-133.233L51.445,0Z" transform="translate(34.975 0)" fill="#fdf3e9"/>
      <path id="Path_244-6" data-name="Path 244" d="M40.221,0l1.8,133.231,1.8,133.233,1.8-133.233L47.422,0Z" transform="translate(31.796 0)" fill="#fdf3e9"/>
      <path id="Path_245-6" data-name="Path 245" d="M36.2,0,38,133.232l1.8,133.233,1.8-133.233L43.4,0Z" transform="translate(28.616 0)" fill="#fdf3e9"/>
      <path id="Path_246-6" data-name="Path 246" d="M32.177,0l1.8,133.231,1.8,133.233,1.8-133.233L39.378,0Z" transform="translate(25.437 0)" fill="#fdf3e9"/>
      <path id="Path_247-6" data-name="Path 247" d="M28.155,0l1.8,133.231,1.8,133.233,1.8-133.233L35.356,0Z" transform="translate(22.257 0)" fill="#fdf3e9"/>
      <path id="Path_248-6" data-name="Path 248" d="M24.133,0l1.8,133.231,1.8,133.233,1.8-133.233L31.334,0Z" transform="translate(19.077 0)" fill="#fdf3e9"/>
      <path id="Path_249-6" data-name="Path 249" d="M20.11,0l1.8,133.231,1.8,133.233,1.8-133.233L27.312,0Z" transform="translate(15.898 0)" fill="#fdf3e9"/>
      <path id="Path_250-6" data-name="Path 250" d="M16.088,0l1.8,133.231,1.8,133.233,1.8-133.233L23.29,0Z" transform="translate(12.718 0)" fill="#fdf3e9"/>
      <path id="Path_251-6" data-name="Path 251" d="M12.066,0l1.8,133.231,1.8,133.233,1.8-133.233L19.268,0Z" transform="translate(9.539 0)" fill="#fdf3e9"/>
      <path id="Path_252-6" data-name="Path 252" d="M8.044,0l1.8,133.231,1.8,133.233,1.8-133.233L15.246,0Z" transform="translate(6.359 0)" fill="#fdf3e9"/>
      <path id="Path_253-6" data-name="Path 253" d="M4.022,0l1.8,133.231,1.8,133.233,1.8-133.233L11.224,0Z" transform="translate(3.18 0)" fill="#fdf3e9"/>
      <path id="Path_254-6" data-name="Path 254" d="M0,0,1.8,133.232,3.6,266.465,5.4,133.232,7.2,0Z" transform="translate(0 0)" fill="#fdf3e9"/>
    </g>
  </g>
  <g id="Group_145" data-name="Group 145" transform="translate(266.464 264.297)">
    <path id="Path_181" data-name="Path 181" d="M0,0V7.2L133.231,5.4,266.464,3.6,133.231,1.8Z" transform="translate(0 0)" fill="#f5d7b4"/>
    <path id="Path_182" data-name="Path 182" d="M0,7.623v3.6l133.231-1.8,133.233-1.8-133.233-1.8L0,4.022Z" transform="translate(0 3.179)" fill="#f5d7b4"/>
    <path id="Path_183" data-name="Path 183" d="M0,11.645v3.6l133.231-1.8,133.233-1.8-133.233-1.8L0,8.044Z" transform="translate(0 6.358)" fill="#f5d7b4"/>
    <path id="Path_184" data-name="Path 184" d="M0,15.667v3.6l133.231-1.8,133.233-1.8-133.233-1.8L0,12.066Z" transform="translate(0 9.538)" fill="#f5d7b4"/>
    <path id="Path_185" data-name="Path 185" d="M0,19.689v3.6l133.231-1.8,133.233-1.8-133.233-1.8L0,16.088Z" transform="translate(0 12.718)" fill="#f5d7b4"/>
    <path id="Path_186" data-name="Path 186" d="M0,23.711v3.6l133.231-1.8,133.233-1.8-133.233-1.8L0,20.111Z" transform="translate(0 15.897)" fill="#f5d7b4"/>
    <path id="Path_187" data-name="Path 187" d="M0,27.735v3.6l133.231-1.8,133.233-1.8-133.233-1.8L0,24.133Z" transform="translate(0 19.077)" fill="#f5d7b4"/>
    <path id="Path_188" data-name="Path 188" d="M0,31.757v3.6l133.231-1.8,133.233-1.8-133.233-1.8L0,28.155Z" transform="translate(0 22.256)" fill="#f5d7b4"/>
    <path id="Path_189" data-name="Path 189" d="M0,35.778v3.6l133.231-1.8,133.233-1.8-133.233-1.8L0,32.178Z" transform="translate(0 25.437)" fill="#f5d7b4"/>
    <path id="Path_190" data-name="Path 190" d="M0,39.8v3.6l133.231-1.8,133.233-1.8L133.231,38,0,36.2Z" transform="translate(0 28.615)" fill="#f5d7b4"/>
    <path id="Path_191" data-name="Path 191" d="M0,43.823v3.6l133.231-1.8,133.233-1.8-133.233-1.8L0,40.222Z" transform="translate(0 31.796)" fill="#f5d7b4"/>
    <path id="Path_192" data-name="Path 192" d="M0,47.846v3.6l133.231-1.8,133.233-1.8-133.233-1.8L0,44.243Z" transform="translate(0 34.974)" fill="#f5d7b4"/>
    <path id="Path_193" data-name="Path 193" d="M0,51.868v3.6l133.231-1.8,133.233-1.8-133.233-1.8L0,48.265Z" transform="translate(0 38.154)" fill="#f5d7b4"/>
    <path id="Path_194" data-name="Path 194" d="M0,55.889v3.6l133.231-1.8,133.233-1.8-133.233-1.8L0,52.288Z" transform="translate(0 41.334)" fill="#f5d7b4"/>
    <path id="Path_195" data-name="Path 195" d="M0,59.912v3.6l133.231-1.8,133.233-1.8-133.233-1.8L0,56.309Z" transform="translate(0 44.513)" fill="#f5d7b4"/>
    <path id="Path_196" data-name="Path 196" d="M0,63.934v3.6l133.231-1.8,133.233-1.8-133.233-1.8L0,60.331Z" transform="translate(0 47.693)" fill="#f5d7b4"/>
    <path id="Path_197" data-name="Path 197" d="M0,67.955v3.6l133.231-1.8,133.233-1.8-133.233-1.8L0,64.355Z" transform="translate(0 50.873)" fill="#f5d7b4"/>
    <path id="Path_198" data-name="Path 198" d="M0,71.978v3.6l133.231-1.8,133.233-1.8-133.233-1.8L0,68.376Z" transform="translate(0 54.052)" fill="#f5d7b4"/>
    <path id="Path_199" data-name="Path 199" d="M0,76v3.6l133.231-1.8L266.464,76,133.231,74.2,0,72.4Z" transform="translate(0 57.231)" fill="#f5d7b4"/>
    <path id="Path_200" data-name="Path 200" d="M0,80.022v3.6l133.231-1.8,133.233-1.8-133.233-1.8L0,76.421Z" transform="translate(0 60.412)" fill="#f5d7b4"/>
    <path id="Path_201" data-name="Path 201" d="M0,84.044v3.6l133.231-1.8,133.233-1.8-133.233-1.8L0,80.442Z" transform="translate(0 63.591)" fill="#f5d7b4"/>
    <path id="Path_202" data-name="Path 202" d="M0,88.067v3.6l133.231-1.8,133.233-1.8-133.233-1.8L0,84.464Z" transform="translate(0 66.77)" fill="#f5d7b4"/>
    <path id="Path_203" data-name="Path 203" d="M0,92.088v3.6l133.231-1.8,133.233-1.8-133.233-1.8L0,88.487Z" transform="translate(0 69.951)" fill="#f5d7b4"/>
    <path id="Path_204" data-name="Path 204" d="M0,96.11v3.6l133.231-1.8,133.233-1.8-133.233-1.8L0,92.509Z" transform="translate(0 73.13)" fill="#f5d7b4"/>
    <path id="Path_205" data-name="Path 205" d="M0,100.132v3.6l133.231-1.8,133.233-1.8-133.233-1.8L0,96.531Z" transform="translate(0 76.31)" fill="#f5d7b4"/>
    <path id="Path_206" data-name="Path 206" d="M0,104.154v3.6l133.231-1.8,133.233-1.8-133.233-1.8L0,100.553Z" transform="translate(0 79.489)" fill="#f5d7b4"/>
    <path id="Path_207" data-name="Path 207" d="M0,108.176v3.6l133.231-1.8,133.233-1.8-133.233-1.8L0,104.575Z" transform="translate(0 82.669)" fill="#f5d7b4"/>
    <path id="Path_208" data-name="Path 208" d="M0,112.2v3.6L133.231,114l133.233-1.8-133.233-1.8L0,108.6Z" transform="translate(0 85.848)" fill="#f5d7b4"/>
    <path id="Path_209" data-name="Path 209" d="M0,116.22v3.6l133.231-1.8,133.233-1.8-133.233-1.8L0,112.62Z" transform="translate(0 89.028)" fill="#f5d7b4"/>
    <path id="Path_210" data-name="Path 210" d="M0,120.243v3.6l133.231-1.8,133.233-1.8-133.233-1.8L0,116.642Z" transform="translate(0 92.208)" fill="#f5d7b4"/>
    <path id="Path_211" data-name="Path 211" d="M0,124.265v3.6l133.231-1.8,133.233-1.8-133.233-1.8L0,120.664Z" transform="translate(0 95.387)" fill="#f5d7b4"/>
    <path id="Path_212" data-name="Path 212" d="M0,128.287v3.6l133.231-1.8,133.233-1.8-133.233-1.8L0,124.686Z" transform="translate(0 98.567)" fill="#f5d7b4"/>
    <path id="Path_213" data-name="Path 213" d="M0,132.309v3.6l133.231-1.8,133.233-1.8-133.233-1.8L0,128.708Z" transform="translate(0 101.746)" fill="#f5d7b4"/>
    <path id="Path_214" data-name="Path 214" d="M0,136.331v3.6l133.231-1.8,133.233-1.8-133.233-1.8L0,132.73Z" transform="translate(0 104.926)" fill="#f5d7b4"/>
    <path id="Path_215" data-name="Path 215" d="M0,140.353v3.6l133.231-1.8,133.233-1.8-133.233-1.8L0,136.752Z" transform="translate(0 108.105)" fill="#f5d7b4"/>
    <path id="Path_216" data-name="Path 216" d="M0,144.375v3.6l133.231-1.8,133.233-1.8-133.233-1.8L0,140.774Z" transform="translate(0 111.285)" fill="#f5d7b4"/>
    <path id="Path_217" data-name="Path 217" d="M0,148.4V152l133.231-1.8,133.233-1.8-133.233-1.8L0,144.8Z" transform="translate(0 114.465)" fill="#f5d7b4"/>
  </g>
  <g id="Group_195" data-name="Group 195" transform="translate(266.464 792.891)">
    <path id="Path_181-2" data-name="Path 181" d="M0,0V7.2L133.231,5.4,266.464,3.6,133.231,1.8Z" transform="translate(0 0)" fill="#f5d7b4"/>
    <path id="Path_182-2" data-name="Path 182" d="M0,7.623v3.6l133.231-1.8,133.233-1.8-133.233-1.8L0,4.022Z" transform="translate(0 3.179)" fill="#f5d7b4"/>
    <path id="Path_183-2" data-name="Path 183" d="M0,11.645v3.6l133.231-1.8,133.233-1.8-133.233-1.8L0,8.044Z" transform="translate(0 6.358)" fill="#f5d7b4"/>
    <path id="Path_184-2" data-name="Path 184" d="M0,15.667v3.6l133.231-1.8,133.233-1.8-133.233-1.8L0,12.066Z" transform="translate(0 9.538)" fill="#f5d7b4"/>
    <path id="Path_185-2" data-name="Path 185" d="M0,19.689v3.6l133.231-1.8,133.233-1.8-133.233-1.8L0,16.088Z" transform="translate(0 12.718)" fill="#f5d7b4"/>
    <path id="Path_186-2" data-name="Path 186" d="M0,23.711v3.6l133.231-1.8,133.233-1.8-133.233-1.8L0,20.111Z" transform="translate(0 15.897)" fill="#f5d7b4"/>
    <path id="Path_187-2" data-name="Path 187" d="M0,27.735v3.6l133.231-1.8,133.233-1.8-133.233-1.8L0,24.133Z" transform="translate(0 19.077)" fill="#f5d7b4"/>
    <path id="Path_188-2" data-name="Path 188" d="M0,31.757v3.6l133.231-1.8,133.233-1.8-133.233-1.8L0,28.155Z" transform="translate(0 22.256)" fill="#f5d7b4"/>
    <path id="Path_189-2" data-name="Path 189" d="M0,35.778v3.6l133.231-1.8,133.233-1.8-133.233-1.8L0,32.178Z" transform="translate(0 25.437)" fill="#f5d7b4"/>
    <path id="Path_190-2" data-name="Path 190" d="M0,39.8v3.6l133.231-1.8,133.233-1.8L133.231,38,0,36.2Z" transform="translate(0 28.615)" fill="#f5d7b4"/>
    <path id="Path_191-2" data-name="Path 191" d="M0,43.823v3.6l133.231-1.8,133.233-1.8-133.233-1.8L0,40.222Z" transform="translate(0 31.796)" fill="#f5d7b4"/>
    <path id="Path_192-2" data-name="Path 192" d="M0,47.846v3.6l133.231-1.8,133.233-1.8-133.233-1.8L0,44.243Z" transform="translate(0 34.974)" fill="#f5d7b4"/>
    <path id="Path_193-2" data-name="Path 193" d="M0,51.868v3.6l133.231-1.8,133.233-1.8-133.233-1.8L0,48.265Z" transform="translate(0 38.154)" fill="#f5d7b4"/>
    <path id="Path_194-2" data-name="Path 194" d="M0,55.889v3.6l133.231-1.8,133.233-1.8-133.233-1.8L0,52.288Z" transform="translate(0 41.334)" fill="#f5d7b4"/>
    <path id="Path_195-2" data-name="Path 195" d="M0,59.912v3.6l133.231-1.8,133.233-1.8-133.233-1.8L0,56.309Z" transform="translate(0 44.513)" fill="#f5d7b4"/>
    <path id="Path_196-2" data-name="Path 196" d="M0,63.934v3.6l133.231-1.8,133.233-1.8-133.233-1.8L0,60.331Z" transform="translate(0 47.693)" fill="#f5d7b4"/>
    <path id="Path_197-2" data-name="Path 197" d="M0,67.955v3.6l133.231-1.8,133.233-1.8-133.233-1.8L0,64.355Z" transform="translate(0 50.873)" fill="#f5d7b4"/>
    <path id="Path_198-2" data-name="Path 198" d="M0,71.978v3.6l133.231-1.8,133.233-1.8-133.233-1.8L0,68.376Z" transform="translate(0 54.052)" fill="#f5d7b4"/>
    <path id="Path_199-2" data-name="Path 199" d="M0,76v3.6l133.231-1.8L266.464,76,133.231,74.2,0,72.4Z" transform="translate(0 57.231)" fill="#f5d7b4"/>
    <path id="Path_200-2" data-name="Path 200" d="M0,80.022v3.6l133.231-1.8,133.233-1.8-133.233-1.8L0,76.421Z" transform="translate(0 60.412)" fill="#f5d7b4"/>
    <path id="Path_201-2" data-name="Path 201" d="M0,84.044v3.6l133.231-1.8,133.233-1.8-133.233-1.8L0,80.442Z" transform="translate(0 63.591)" fill="#f5d7b4"/>
    <path id="Path_202-2" data-name="Path 202" d="M0,88.067v3.6l133.231-1.8,133.233-1.8-133.233-1.8L0,84.464Z" transform="translate(0 66.77)" fill="#f5d7b4"/>
    <path id="Path_203-2" data-name="Path 203" d="M0,92.088v3.6l133.231-1.8,133.233-1.8-133.233-1.8L0,88.487Z" transform="translate(0 69.951)" fill="#f5d7b4"/>
    <path id="Path_204-2" data-name="Path 204" d="M0,96.11v3.6l133.231-1.8,133.233-1.8-133.233-1.8L0,92.509Z" transform="translate(0 73.13)" fill="#f5d7b4"/>
    <path id="Path_205-2" data-name="Path 205" d="M0,100.132v3.6l133.231-1.8,133.233-1.8-133.233-1.8L0,96.531Z" transform="translate(0 76.31)" fill="#f5d7b4"/>
    <path id="Path_206-2" data-name="Path 206" d="M0,104.154v3.6l133.231-1.8,133.233-1.8-133.233-1.8L0,100.553Z" transform="translate(0 79.489)" fill="#f5d7b4"/>
    <path id="Path_207-2" data-name="Path 207" d="M0,108.176v3.6l133.231-1.8,133.233-1.8-133.233-1.8L0,104.575Z" transform="translate(0 82.669)" fill="#f5d7b4"/>
    <path id="Path_208-2" data-name="Path 208" d="M0,112.2v3.6L133.231,114l133.233-1.8-133.233-1.8L0,108.6Z" transform="translate(0 85.848)" fill="#f5d7b4"/>
    <path id="Path_209-2" data-name="Path 209" d="M0,116.22v3.6l133.231-1.8,133.233-1.8-133.233-1.8L0,112.62Z" transform="translate(0 89.028)" fill="#f5d7b4"/>
    <path id="Path_210-2" data-name="Path 210" d="M0,120.243v3.6l133.231-1.8,133.233-1.8-133.233-1.8L0,116.642Z" transform="translate(0 92.208)" fill="#f5d7b4"/>
    <path id="Path_211-2" data-name="Path 211" d="M0,124.265v3.6l133.231-1.8,133.233-1.8-133.233-1.8L0,120.664Z" transform="translate(0 95.387)" fill="#f5d7b4"/>
    <path id="Path_212-2" data-name="Path 212" d="M0,128.287v3.6l133.231-1.8,133.233-1.8-133.233-1.8L0,124.686Z" transform="translate(0 98.567)" fill="#f5d7b4"/>
    <path id="Path_213-2" data-name="Path 213" d="M0,132.309v3.6l133.231-1.8,133.233-1.8-133.233-1.8L0,128.708Z" transform="translate(0 101.746)" fill="#f5d7b4"/>
    <path id="Path_214-2" data-name="Path 214" d="M0,136.331v3.6l133.231-1.8,133.233-1.8-133.233-1.8L0,132.73Z" transform="translate(0 104.926)" fill="#f5d7b4"/>
    <path id="Path_215-2" data-name="Path 215" d="M0,140.353v3.6l133.231-1.8,133.233-1.8-133.233-1.8L0,136.752Z" transform="translate(0 108.105)" fill="#f5d7b4"/>
    <path id="Path_216-2" data-name="Path 216" d="M0,144.375v3.6l133.231-1.8,133.233-1.8-133.233-1.8L0,140.774Z" transform="translate(0 111.285)" fill="#f5d7b4"/>
    <path id="Path_217-2" data-name="Path 217" d="M0,148.4V152l133.231-1.8,133.233-1.8-133.233-1.8L0,144.8Z" transform="translate(0 114.465)" fill="#f5d7b4"/>
  </g>
  <g id="Group_191" data-name="Group 191" transform="translate(799.393 264.297)">
    <path id="Path_181-3" data-name="Path 181" d="M0,0V7.2L133.231,5.4,266.464,3.6,133.231,1.8Z" transform="translate(0 0)" fill="#f5d7b4"/>
    <path id="Path_182-3" data-name="Path 182" d="M0,7.623v3.6l133.231-1.8,133.233-1.8-133.233-1.8L0,4.022Z" transform="translate(0 3.179)" fill="#f5d7b4"/>
    <path id="Path_183-3" data-name="Path 183" d="M0,11.645v3.6l133.231-1.8,133.233-1.8-133.233-1.8L0,8.044Z" transform="translate(0 6.358)" fill="#f5d7b4"/>
    <path id="Path_184-3" data-name="Path 184" d="M0,15.667v3.6l133.231-1.8,133.233-1.8-133.233-1.8L0,12.066Z" transform="translate(0 9.538)" fill="#f5d7b4"/>
    <path id="Path_185-3" data-name="Path 185" d="M0,19.689v3.6l133.231-1.8,133.233-1.8-133.233-1.8L0,16.088Z" transform="translate(0 12.718)" fill="#f5d7b4"/>
    <path id="Path_186-3" data-name="Path 186" d="M0,23.711v3.6l133.231-1.8,133.233-1.8-133.233-1.8L0,20.111Z" transform="translate(0 15.897)" fill="#f5d7b4"/>
    <path id="Path_187-3" data-name="Path 187" d="M0,27.735v3.6l133.231-1.8,133.233-1.8-133.233-1.8L0,24.133Z" transform="translate(0 19.077)" fill="#f5d7b4"/>
    <path id="Path_188-3" data-name="Path 188" d="M0,31.757v3.6l133.231-1.8,133.233-1.8-133.233-1.8L0,28.155Z" transform="translate(0 22.256)" fill="#f5d7b4"/>
    <path id="Path_189-3" data-name="Path 189" d="M0,35.778v3.6l133.231-1.8,133.233-1.8-133.233-1.8L0,32.178Z" transform="translate(0 25.437)" fill="#f5d7b4"/>
    <path id="Path_190-3" data-name="Path 190" d="M0,39.8v3.6l133.231-1.8,133.233-1.8L133.231,38,0,36.2Z" transform="translate(0 28.615)" fill="#f5d7b4"/>
    <path id="Path_191-3" data-name="Path 191" d="M0,43.823v3.6l133.231-1.8,133.233-1.8-133.233-1.8L0,40.222Z" transform="translate(0 31.796)" fill="#f5d7b4"/>
    <path id="Path_192-3" data-name="Path 192" d="M0,47.846v3.6l133.231-1.8,133.233-1.8-133.233-1.8L0,44.243Z" transform="translate(0 34.974)" fill="#f5d7b4"/>
    <path id="Path_193-3" data-name="Path 193" d="M0,51.868v3.6l133.231-1.8,133.233-1.8-133.233-1.8L0,48.265Z" transform="translate(0 38.154)" fill="#f5d7b4"/>
    <path id="Path_194-3" data-name="Path 194" d="M0,55.889v3.6l133.231-1.8,133.233-1.8-133.233-1.8L0,52.288Z" transform="translate(0 41.334)" fill="#f5d7b4"/>
    <path id="Path_195-3" data-name="Path 195" d="M0,59.912v3.6l133.231-1.8,133.233-1.8-133.233-1.8L0,56.309Z" transform="translate(0 44.513)" fill="#f5d7b4"/>
    <path id="Path_196-3" data-name="Path 196" d="M0,63.934v3.6l133.231-1.8,133.233-1.8-133.233-1.8L0,60.331Z" transform="translate(0 47.693)" fill="#f5d7b4"/>
    <path id="Path_197-3" data-name="Path 197" d="M0,67.955v3.6l133.231-1.8,133.233-1.8-133.233-1.8L0,64.355Z" transform="translate(0 50.873)" fill="#f5d7b4"/>
    <path id="Path_198-3" data-name="Path 198" d="M0,71.978v3.6l133.231-1.8,133.233-1.8-133.233-1.8L0,68.376Z" transform="translate(0 54.052)" fill="#f5d7b4"/>
    <path id="Path_199-3" data-name="Path 199" d="M0,76v3.6l133.231-1.8L266.464,76,133.231,74.2,0,72.4Z" transform="translate(0 57.231)" fill="#f5d7b4"/>
    <path id="Path_200-3" data-name="Path 200" d="M0,80.022v3.6l133.231-1.8,133.233-1.8-133.233-1.8L0,76.421Z" transform="translate(0 60.412)" fill="#f5d7b4"/>
    <path id="Path_201-3" data-name="Path 201" d="M0,84.044v3.6l133.231-1.8,133.233-1.8-133.233-1.8L0,80.442Z" transform="translate(0 63.591)" fill="#f5d7b4"/>
    <path id="Path_202-3" data-name="Path 202" d="M0,88.067v3.6l133.231-1.8,133.233-1.8-133.233-1.8L0,84.464Z" transform="translate(0 66.77)" fill="#f5d7b4"/>
    <path id="Path_203-3" data-name="Path 203" d="M0,92.088v3.6l133.231-1.8,133.233-1.8-133.233-1.8L0,88.487Z" transform="translate(0 69.951)" fill="#f5d7b4"/>
    <path id="Path_204-3" data-name="Path 204" d="M0,96.11v3.6l133.231-1.8,133.233-1.8-133.233-1.8L0,92.509Z" transform="translate(0 73.13)" fill="#f5d7b4"/>
    <path id="Path_205-3" data-name="Path 205" d="M0,100.132v3.6l133.231-1.8,133.233-1.8-133.233-1.8L0,96.531Z" transform="translate(0 76.31)" fill="#f5d7b4"/>
    <path id="Path_206-3" data-name="Path 206" d="M0,104.154v3.6l133.231-1.8,133.233-1.8-133.233-1.8L0,100.553Z" transform="translate(0 79.489)" fill="#f5d7b4"/>
    <path id="Path_207-3" data-name="Path 207" d="M0,108.176v3.6l133.231-1.8,133.233-1.8-133.233-1.8L0,104.575Z" transform="translate(0 82.669)" fill="#f5d7b4"/>
    <path id="Path_208-3" data-name="Path 208" d="M0,112.2v3.6L133.231,114l133.233-1.8-133.233-1.8L0,108.6Z" transform="translate(0 85.848)" fill="#f5d7b4"/>
    <path id="Path_209-3" data-name="Path 209" d="M0,116.22v3.6l133.231-1.8,133.233-1.8-133.233-1.8L0,112.62Z" transform="translate(0 89.028)" fill="#f5d7b4"/>
    <path id="Path_210-3" data-name="Path 210" d="M0,120.243v3.6l133.231-1.8,133.233-1.8-133.233-1.8L0,116.642Z" transform="translate(0 92.208)" fill="#f5d7b4"/>
    <path id="Path_211-3" data-name="Path 211" d="M0,124.265v3.6l133.231-1.8,133.233-1.8-133.233-1.8L0,120.664Z" transform="translate(0 95.387)" fill="#f5d7b4"/>
    <path id="Path_212-3" data-name="Path 212" d="M0,128.287v3.6l133.231-1.8,133.233-1.8-133.233-1.8L0,124.686Z" transform="translate(0 98.567)" fill="#f5d7b4"/>
    <path id="Path_213-3" data-name="Path 213" d="M0,132.309v3.6l133.231-1.8,133.233-1.8-133.233-1.8L0,128.708Z" transform="translate(0 101.746)" fill="#f5d7b4"/>
    <path id="Path_214-3" data-name="Path 214" d="M0,136.331v3.6l133.231-1.8,133.233-1.8-133.233-1.8L0,132.73Z" transform="translate(0 104.926)" fill="#f5d7b4"/>
    <path id="Path_215-3" data-name="Path 215" d="M0,140.353v3.6l133.231-1.8,133.233-1.8-133.233-1.8L0,136.752Z" transform="translate(0 108.105)" fill="#f5d7b4"/>
    <path id="Path_216-3" data-name="Path 216" d="M0,144.375v3.6l133.231-1.8,133.233-1.8-133.233-1.8L0,140.774Z" transform="translate(0 111.285)" fill="#f5d7b4"/>
    <path id="Path_217-3" data-name="Path 217" d="M0,148.4V152l133.231-1.8,133.233-1.8-133.233-1.8L0,144.8Z" transform="translate(0 114.465)" fill="#f5d7b4"/>
  </g>
  <g id="Group_193" data-name="Group 193" transform="translate(799.393 792.891)">
    <path id="Path_181-4" data-name="Path 181" d="M0,0V7.2L133.231,5.4,266.464,3.6,133.231,1.8Z" transform="translate(0 0)" fill="#f5d7b4"/>
    <path id="Path_182-4" data-name="Path 182" d="M0,7.623v3.6l133.231-1.8,133.233-1.8-133.233-1.8L0,4.022Z" transform="translate(0 3.179)" fill="#f5d7b4"/>
    <path id="Path_183-4" data-name="Path 183" d="M0,11.645v3.6l133.231-1.8,133.233-1.8-133.233-1.8L0,8.044Z" transform="translate(0 6.358)" fill="#f5d7b4"/>
    <path id="Path_184-4" data-name="Path 184" d="M0,15.667v3.6l133.231-1.8,133.233-1.8-133.233-1.8L0,12.066Z" transform="translate(0 9.538)" fill="#f5d7b4"/>
    <path id="Path_185-4" data-name="Path 185" d="M0,19.689v3.6l133.231-1.8,133.233-1.8-133.233-1.8L0,16.088Z" transform="translate(0 12.718)" fill="#f5d7b4"/>
    <path id="Path_186-4" data-name="Path 186" d="M0,23.711v3.6l133.231-1.8,133.233-1.8-133.233-1.8L0,20.111Z" transform="translate(0 15.897)" fill="#f5d7b4"/>
    <path id="Path_187-4" data-name="Path 187" d="M0,27.735v3.6l133.231-1.8,133.233-1.8-133.233-1.8L0,24.133Z" transform="translate(0 19.077)" fill="#f5d7b4"/>
    <path id="Path_188-4" data-name="Path 188" d="M0,31.757v3.6l133.231-1.8,133.233-1.8-133.233-1.8L0,28.155Z" transform="translate(0 22.256)" fill="#f5d7b4"/>
    <path id="Path_189-4" data-name="Path 189" d="M0,35.778v3.6l133.231-1.8,133.233-1.8-133.233-1.8L0,32.178Z" transform="translate(0 25.437)" fill="#f5d7b4"/>
    <path id="Path_190-4" data-name="Path 190" d="M0,39.8v3.6l133.231-1.8,133.233-1.8L133.231,38,0,36.2Z" transform="translate(0 28.615)" fill="#f5d7b4"/>
    <path id="Path_191-4" data-name="Path 191" d="M0,43.823v3.6l133.231-1.8,133.233-1.8-133.233-1.8L0,40.222Z" transform="translate(0 31.796)" fill="#f5d7b4"/>
    <path id="Path_192-4" data-name="Path 192" d="M0,47.846v3.6l133.231-1.8,133.233-1.8-133.233-1.8L0,44.243Z" transform="translate(0 34.974)" fill="#f5d7b4"/>
    <path id="Path_193-4" data-name="Path 193" d="M0,51.868v3.6l133.231-1.8,133.233-1.8-133.233-1.8L0,48.265Z" transform="translate(0 38.154)" fill="#f5d7b4"/>
    <path id="Path_194-4" data-name="Path 194" d="M0,55.889v3.6l133.231-1.8,133.233-1.8-133.233-1.8L0,52.288Z" transform="translate(0 41.334)" fill="#f5d7b4"/>
    <path id="Path_195-4" data-name="Path 195" d="M0,59.912v3.6l133.231-1.8,133.233-1.8-133.233-1.8L0,56.309Z" transform="translate(0 44.513)" fill="#f5d7b4"/>
    <path id="Path_196-4" data-name="Path 196" d="M0,63.934v3.6l133.231-1.8,133.233-1.8-133.233-1.8L0,60.331Z" transform="translate(0 47.693)" fill="#f5d7b4"/>
    <path id="Path_197-4" data-name="Path 197" d="M0,67.955v3.6l133.231-1.8,133.233-1.8-133.233-1.8L0,64.355Z" transform="translate(0 50.873)" fill="#f5d7b4"/>
    <path id="Path_198-4" data-name="Path 198" d="M0,71.978v3.6l133.231-1.8,133.233-1.8-133.233-1.8L0,68.376Z" transform="translate(0 54.052)" fill="#f5d7b4"/>
    <path id="Path_199-4" data-name="Path 199" d="M0,76v3.6l133.231-1.8L266.464,76,133.231,74.2,0,72.4Z" transform="translate(0 57.231)" fill="#f5d7b4"/>
    <path id="Path_200-4" data-name="Path 200" d="M0,80.022v3.6l133.231-1.8,133.233-1.8-133.233-1.8L0,76.421Z" transform="translate(0 60.412)" fill="#f5d7b4"/>
    <path id="Path_201-4" data-name="Path 201" d="M0,84.044v3.6l133.231-1.8,133.233-1.8-133.233-1.8L0,80.442Z" transform="translate(0 63.591)" fill="#f5d7b4"/>
    <path id="Path_202-4" data-name="Path 202" d="M0,88.067v3.6l133.231-1.8,133.233-1.8-133.233-1.8L0,84.464Z" transform="translate(0 66.77)" fill="#f5d7b4"/>
    <path id="Path_203-4" data-name="Path 203" d="M0,92.088v3.6l133.231-1.8,133.233-1.8-133.233-1.8L0,88.487Z" transform="translate(0 69.951)" fill="#f5d7b4"/>
    <path id="Path_204-4" data-name="Path 204" d="M0,96.11v3.6l133.231-1.8,133.233-1.8-133.233-1.8L0,92.509Z" transform="translate(0 73.13)" fill="#f5d7b4"/>
    <path id="Path_205-4" data-name="Path 205" d="M0,100.132v3.6l133.231-1.8,133.233-1.8-133.233-1.8L0,96.531Z" transform="translate(0 76.31)" fill="#f5d7b4"/>
    <path id="Path_206-4" data-name="Path 206" d="M0,104.154v3.6l133.231-1.8,133.233-1.8-133.233-1.8L0,100.553Z" transform="translate(0 79.489)" fill="#f5d7b4"/>
    <path id="Path_207-4" data-name="Path 207" d="M0,108.176v3.6l133.231-1.8,133.233-1.8-133.233-1.8L0,104.575Z" transform="translate(0 82.669)" fill="#f5d7b4"/>
    <path id="Path_208-4" data-name="Path 208" d="M0,112.2v3.6L133.231,114l133.233-1.8-133.233-1.8L0,108.6Z" transform="translate(0 85.848)" fill="#f5d7b4"/>
    <path id="Path_209-4" data-name="Path 209" d="M0,116.22v3.6l133.231-1.8,133.233-1.8-133.233-1.8L0,112.62Z" transform="translate(0 89.028)" fill="#f5d7b4"/>
    <path id="Path_210-4" data-name="Path 210" d="M0,120.243v3.6l133.231-1.8,133.233-1.8-133.233-1.8L0,116.642Z" transform="translate(0 92.208)" fill="#f5d7b4"/>
    <path id="Path_211-4" data-name="Path 211" d="M0,124.265v3.6l133.231-1.8,133.233-1.8-133.233-1.8L0,120.664Z" transform="translate(0 95.387)" fill="#f5d7b4"/>
    <path id="Path_212-4" data-name="Path 212" d="M0,128.287v3.6l133.231-1.8,133.233-1.8-133.233-1.8L0,124.686Z" transform="translate(0 98.567)" fill="#f5d7b4"/>
    <path id="Path_213-4" data-name="Path 213" d="M0,132.309v3.6l133.231-1.8,133.233-1.8-133.233-1.8L0,128.708Z" transform="translate(0 101.746)" fill="#f5d7b4"/>
    <path id="Path_214-4" data-name="Path 214" d="M0,136.331v3.6l133.231-1.8,133.233-1.8-133.233-1.8L0,132.73Z" transform="translate(0 104.926)" fill="#f5d7b4"/>
    <path id="Path_215-4" data-name="Path 215" d="M0,140.353v3.6l133.231-1.8,133.233-1.8-133.233-1.8L0,136.752Z" transform="translate(0 108.105)" fill="#f5d7b4"/>
    <path id="Path_216-4" data-name="Path 216" d="M0,144.375v3.6l133.231-1.8,133.233-1.8-133.233-1.8L0,140.774Z" transform="translate(0 111.285)" fill="#f5d7b4"/>
    <path id="Path_217-4" data-name="Path 217" d="M0,148.4V152l133.231-1.8,133.233-1.8-133.233-1.8L0,144.8Z" transform="translate(0 114.465)" fill="#f5d7b4"/>
  </g>
  <g id="Group_146-7" data-name="Group 146" transform="translate(0 264.297)">
    <path id="Path_218-7" data-name="Path 218" d="M144.8,0l1.8,133.231,1.8,133.233,1.8-133.233L152,0Z" transform="translate(114.465 0)" fill="#fdf3e9"/>
    <path id="Path_219-7" data-name="Path 219" d="M140.774,0l1.8,133.231,1.8,133.233,1.8-133.233L147.976,0Z" transform="translate(111.286 0)" fill="#fdf3e9"/>
    <path id="Path_220-7" data-name="Path 220" d="M136.752,0l1.8,133.231,1.8,133.233,1.8-133.233L143.954,0Z" transform="translate(108.106 0)" fill="#fdf3e9"/>
    <path id="Path_221-7" data-name="Path 221" d="M132.73,0l1.8,133.231,1.8,133.233,1.8-133.233L139.932,0Z" transform="translate(104.927 0)" fill="#fdf3e9"/>
    <path id="Path_222-7" data-name="Path 222" d="M128.708,0l1.8,133.231,1.8,133.233,1.8-133.233L135.91,0Z" transform="translate(101.747 0)" fill="#fdf3e9"/>
    <path id="Path_223-7" data-name="Path 223" d="M124.686,0l1.8,133.231,1.8,133.233,1.8-133.233L131.887,0Z" transform="translate(98.567 0)" fill="#fdf3e9"/>
    <path id="Path_224-7" data-name="Path 224" d="M120.664,0l1.8,133.231,1.8,133.233,1.8-133.233L127.865,0Z" transform="translate(95.388 0)" fill="#fdf3e9"/>
    <path id="Path_225-7" data-name="Path 225" d="M116.642,0l1.8,133.231,1.8,133.233,1.8-133.233L123.843,0Z" transform="translate(92.208 0)" fill="#fdf3e9"/>
    <path id="Path_226-7" data-name="Path 226" d="M112.62,0l1.8,133.231,1.8,133.233,1.8-133.233L119.821,0Z" transform="translate(89.029 0)" fill="#fdf3e9"/>
    <path id="Path_227-7" data-name="Path 227" d="M108.6,0l1.8,133.231,1.8,133.233L114,133.232,115.8,0Z" transform="translate(85.849 0)" fill="#fdf3e9"/>
    <path id="Path_228-7" data-name="Path 228" d="M104.575,0l1.8,133.231,1.8,133.233,1.8-133.233L111.777,0Z" transform="translate(82.67 0)" fill="#fdf3e9"/>
    <path id="Path_229-7" data-name="Path 229" d="M100.553,0l1.8,133.231,1.8,133.233,1.8-133.233L107.755,0Z" transform="translate(79.49 0)" fill="#fdf3e9"/>
    <path id="Path_230-7" data-name="Path 230" d="M96.531,0l1.8,133.231,1.8,133.233,1.8-133.233L103.733,0Z" transform="translate(76.31 0)" fill="#fdf3e9"/>
    <path id="Path_231-7" data-name="Path 231" d="M92.509,0l1.8,133.231,1.8,133.233,1.8-133.233L99.711,0Z" transform="translate(73.131 0)" fill="#fdf3e9"/>
    <path id="Path_232-7" data-name="Path 232" d="M88.487,0l1.8,133.231,1.8,133.233,1.8-133.233L95.689,0Z" transform="translate(69.951 0)" fill="#fdf3e9"/>
    <path id="Path_233-7" data-name="Path 233" d="M84.465,0l1.8,133.231,1.8,133.233,1.8-133.233L91.666,0Z" transform="translate(66.772 0)" fill="#fdf3e9"/>
    <path id="Path_234-7" data-name="Path 234" d="M80.443,0l1.8,133.231,1.8,133.233,1.8-133.233L87.644,0Z" transform="translate(63.592 0)" fill="#fdf3e9"/>
    <path id="Path_235-7" data-name="Path 235" d="M76.421,0l1.8,133.231,1.8,133.233,1.8-133.233L83.622,0Z" transform="translate(60.413 0)" fill="#fdf3e9"/>
    <path id="Path_236-7" data-name="Path 236" d="M72.4,0l1.8,133.231L76,266.465l1.8-133.233L79.6,0Z" transform="translate(57.233 0)" fill="#fdf3e9"/>
    <path id="Path_237-7" data-name="Path 237" d="M68.377,0l1.8,133.231,1.8,133.233,1.8-133.233L75.578,0Z" transform="translate(54.053 0)" fill="#fdf3e9"/>
    <path id="Path_238-7" data-name="Path 238" d="M64.355,0l1.8,133.231,1.8,133.233,1.8-133.233L71.556,0Z" transform="translate(50.874 0)" fill="#fdf3e9"/>
    <path id="Path_239-7" data-name="Path 239" d="M60.332,0l1.8,133.231,1.8,133.233,1.8-133.233L67.535,0Z" transform="translate(47.694 0)" fill="#fdf3e9"/>
    <path id="Path_240-7" data-name="Path 240" d="M56.309,0l1.8,133.231,1.8,133.233,1.8-133.233L63.511,0Z" transform="translate(44.514 0)" fill="#fdf3e9"/>
    <path id="Path_241-7" data-name="Path 241" d="M52.287,0l1.8,133.231,1.8,133.233,1.8-133.233L59.489,0Z" transform="translate(41.334 0)" fill="#fdf3e9"/>
    <path id="Path_242-7" data-name="Path 242" d="M48.265,0l1.8,133.231,1.8,133.233,1.8-133.233L55.467,0Z" transform="translate(38.155 0)" fill="#fdf3e9"/>
    <path id="Path_243-7" data-name="Path 243" d="M44.243,0l1.8,133.231,1.8,133.233,1.8-133.233L51.445,0Z" transform="translate(34.975 0)" fill="#fdf3e9"/>
    <path id="Path_244-7" data-name="Path 244" d="M40.221,0l1.8,133.231,1.8,133.233,1.8-133.233L47.422,0Z" transform="translate(31.796 0)" fill="#fdf3e9"/>
    <path id="Path_245-7" data-name="Path 245" d="M36.2,0,38,133.232l1.8,133.233,1.8-133.233L43.4,0Z" transform="translate(28.616 0)" fill="#fdf3e9"/>
    <path id="Path_246-7" data-name="Path 246" d="M32.177,0l1.8,133.231,1.8,133.233,1.8-133.233L39.378,0Z" transform="translate(25.437 0)" fill="#fdf3e9"/>
    <path id="Path_247-7" data-name="Path 247" d="M28.155,0l1.8,133.231,1.8,133.233,1.8-133.233L35.356,0Z" transform="translate(22.257 0)" fill="#fdf3e9"/>
    <path id="Path_248-7" data-name="Path 248" d="M24.133,0l1.8,133.231,1.8,133.233,1.8-133.233L31.334,0Z" transform="translate(19.077 0)" fill="#fdf3e9"/>
    <path id="Path_249-7" data-name="Path 249" d="M20.11,0l1.8,133.231,1.8,133.233,1.8-133.233L27.312,0Z" transform="translate(15.898 0)" fill="#fdf3e9"/>
    <path id="Path_250-7" data-name="Path 250" d="M16.088,0l1.8,133.231,1.8,133.233,1.8-133.233L23.29,0Z" transform="translate(12.718 0)" fill="#fdf3e9"/>
    <path id="Path_251-7" data-name="Path 251" d="M12.066,0l1.8,133.231,1.8,133.233,1.8-133.233L19.268,0Z" transform="translate(9.539 0)" fill="#fdf3e9"/>
    <path id="Path_252-7" data-name="Path 252" d="M8.044,0l1.8,133.231,1.8,133.233,1.8-133.233L15.246,0Z" transform="translate(6.359 0)" fill="#fdf3e9"/>
    <path id="Path_253-7" data-name="Path 253" d="M4.022,0l1.8,133.231,1.8,133.233,1.8-133.233L11.224,0Z" transform="translate(3.18 0)" fill="#fdf3e9"/>
    <path id="Path_254-7" data-name="Path 254" d="M0,0,1.8,133.232,3.6,266.465,5.4,133.232,7.2,0Z" transform="translate(0 0)" fill="#fdf3e9"/>
  </g>
  <g id="Group_196" data-name="Group 196" transform="translate(0 792.891)">
    <path id="Path_218-8" data-name="Path 218" d="M144.8,0l1.8,133.231,1.8,133.233,1.8-133.233L152,0Z" transform="translate(114.465 0)" fill="#fdf3e9"/>
    <path id="Path_219-8" data-name="Path 219" d="M140.774,0l1.8,133.231,1.8,133.233,1.8-133.233L147.976,0Z" transform="translate(111.286 0)" fill="#fdf3e9"/>
    <path id="Path_220-8" data-name="Path 220" d="M136.752,0l1.8,133.231,1.8,133.233,1.8-133.233L143.954,0Z" transform="translate(108.106 0)" fill="#fdf3e9"/>
    <path id="Path_221-8" data-name="Path 221" d="M132.73,0l1.8,133.231,1.8,133.233,1.8-133.233L139.932,0Z" transform="translate(104.927 0)" fill="#fdf3e9"/>
    <path id="Path_222-8" data-name="Path 222" d="M128.708,0l1.8,133.231,1.8,133.233,1.8-133.233L135.91,0Z" transform="translate(101.747 0)" fill="#fdf3e9"/>
    <path id="Path_223-8" data-name="Path 223" d="M124.686,0l1.8,133.231,1.8,133.233,1.8-133.233L131.887,0Z" transform="translate(98.567 0)" fill="#fdf3e9"/>
    <path id="Path_224-8" data-name="Path 224" d="M120.664,0l1.8,133.231,1.8,133.233,1.8-133.233L127.865,0Z" transform="translate(95.388 0)" fill="#fdf3e9"/>
    <path id="Path_225-8" data-name="Path 225" d="M116.642,0l1.8,133.231,1.8,133.233,1.8-133.233L123.843,0Z" transform="translate(92.208 0)" fill="#fdf3e9"/>
    <path id="Path_226-8" data-name="Path 226" d="M112.62,0l1.8,133.231,1.8,133.233,1.8-133.233L119.821,0Z" transform="translate(89.029 0)" fill="#fdf3e9"/>
    <path id="Path_227-8" data-name="Path 227" d="M108.6,0l1.8,133.231,1.8,133.233L114,133.232,115.8,0Z" transform="translate(85.849 0)" fill="#fdf3e9"/>
    <path id="Path_228-8" data-name="Path 228" d="M104.575,0l1.8,133.231,1.8,133.233,1.8-133.233L111.777,0Z" transform="translate(82.67 0)" fill="#fdf3e9"/>
    <path id="Path_229-8" data-name="Path 229" d="M100.553,0l1.8,133.231,1.8,133.233,1.8-133.233L107.755,0Z" transform="translate(79.49 0)" fill="#fdf3e9"/>
    <path id="Path_230-8" data-name="Path 230" d="M96.531,0l1.8,133.231,1.8,133.233,1.8-133.233L103.733,0Z" transform="translate(76.31 0)" fill="#fdf3e9"/>
    <path id="Path_231-8" data-name="Path 231" d="M92.509,0l1.8,133.231,1.8,133.233,1.8-133.233L99.711,0Z" transform="translate(73.131 0)" fill="#fdf3e9"/>
    <path id="Path_232-8" data-name="Path 232" d="M88.487,0l1.8,133.231,1.8,133.233,1.8-133.233L95.689,0Z" transform="translate(69.951 0)" fill="#fdf3e9"/>
    <path id="Path_233-8" data-name="Path 233" d="M84.465,0l1.8,133.231,1.8,133.233,1.8-133.233L91.666,0Z" transform="translate(66.772 0)" fill="#fdf3e9"/>
    <path id="Path_234-8" data-name="Path 234" d="M80.443,0l1.8,133.231,1.8,133.233,1.8-133.233L87.644,0Z" transform="translate(63.592 0)" fill="#fdf3e9"/>
    <path id="Path_235-8" data-name="Path 235" d="M76.421,0l1.8,133.231,1.8,133.233,1.8-133.233L83.622,0Z" transform="translate(60.413 0)" fill="#fdf3e9"/>
    <path id="Path_236-8" data-name="Path 236" d="M72.4,0l1.8,133.231L76,266.465l1.8-133.233L79.6,0Z" transform="translate(57.233 0)" fill="#fdf3e9"/>
    <path id="Path_237-8" data-name="Path 237" d="M68.377,0l1.8,133.231,1.8,133.233,1.8-133.233L75.578,0Z" transform="translate(54.053 0)" fill="#fdf3e9"/>
    <path id="Path_238-8" data-name="Path 238" d="M64.355,0l1.8,133.231,1.8,133.233,1.8-133.233L71.556,0Z" transform="translate(50.874 0)" fill="#fdf3e9"/>
    <path id="Path_239-8" data-name="Path 239" d="M60.332,0l1.8,133.231,1.8,133.233,1.8-133.233L67.535,0Z" transform="translate(47.694 0)" fill="#fdf3e9"/>
    <path id="Path_240-8" data-name="Path 240" d="M56.309,0l1.8,133.231,1.8,133.233,1.8-133.233L63.511,0Z" transform="translate(44.514 0)" fill="#fdf3e9"/>
    <path id="Path_241-8" data-name="Path 241" d="M52.287,0l1.8,133.231,1.8,133.233,1.8-133.233L59.489,0Z" transform="translate(41.334 0)" fill="#fdf3e9"/>
    <path id="Path_242-8" data-name="Path 242" d="M48.265,0l1.8,133.231,1.8,133.233,1.8-133.233L55.467,0Z" transform="translate(38.155 0)" fill="#fdf3e9"/>
    <path id="Path_243-8" data-name="Path 243" d="M44.243,0l1.8,133.231,1.8,133.233,1.8-133.233L51.445,0Z" transform="translate(34.975 0)" fill="#fdf3e9"/>
    <path id="Path_244-8" data-name="Path 244" d="M40.221,0l1.8,133.231,1.8,133.233,1.8-133.233L47.422,0Z" transform="translate(31.796 0)" fill="#fdf3e9"/>
    <path id="Path_245-8" data-name="Path 245" d="M36.2,0,38,133.232l1.8,133.233,1.8-133.233L43.4,0Z" transform="translate(28.616 0)" fill="#fdf3e9"/>
    <path id="Path_246-8" data-name="Path 246" d="M32.177,0l1.8,133.231,1.8,133.233,1.8-133.233L39.378,0Z" transform="translate(25.437 0)" fill="#fdf3e9"/>
    <path id="Path_247-8" data-name="Path 247" d="M28.155,0l1.8,133.231,1.8,133.233,1.8-133.233L35.356,0Z" transform="translate(22.257 0)" fill="#fdf3e9"/>
    <path id="Path_248-8" data-name="Path 248" d="M24.133,0l1.8,133.231,1.8,133.233,1.8-133.233L31.334,0Z" transform="translate(19.077 0)" fill="#fdf3e9"/>
    <path id="Path_249-8" data-name="Path 249" d="M20.11,0l1.8,133.231,1.8,133.233,1.8-133.233L27.312,0Z" transform="translate(15.898 0)" fill="#fdf3e9"/>
    <path id="Path_250-8" data-name="Path 250" d="M16.088,0l1.8,133.231,1.8,133.233,1.8-133.233L23.29,0Z" transform="translate(12.718 0)" fill="#fdf3e9"/>
    <path id="Path_251-8" data-name="Path 251" d="M12.066,0l1.8,133.231,1.8,133.233,1.8-133.233L19.268,0Z" transform="translate(9.539 0)" fill="#fdf3e9"/>
    <path id="Path_252-8" data-name="Path 252" d="M8.044,0l1.8,133.231,1.8,133.233,1.8-133.233L15.246,0Z" transform="translate(6.359 0)" fill="#fdf3e9"/>
    <path id="Path_253-8" data-name="Path 253" d="M4.022,0l1.8,133.231,1.8,133.233,1.8-133.233L11.224,0Z" transform="translate(3.18 0)" fill="#fdf3e9"/>
    <path id="Path_254-8" data-name="Path 254" d="M0,0,1.8,133.232,3.6,266.465,5.4,133.232,7.2,0Z" transform="translate(0 0)" fill="#fdf3e9"/>
  </g>
  <g id="Group_184" data-name="Group 184" transform="translate(532.928)">
    <path id="Path_181-5" data-name="Path 181" d="M0,0V7.2L133.231,5.4,266.464,3.6,133.231,1.8Z" transform="translate(0 0)" fill="#f5d7b4"/>
    <path id="Path_182-5" data-name="Path 182" d="M0,7.623v3.6l133.231-1.8,133.233-1.8-133.233-1.8L0,4.022Z" transform="translate(0 3.179)" fill="#f5d7b4"/>
    <path id="Path_183-5" data-name="Path 183" d="M0,11.645v3.6l133.231-1.8,133.233-1.8-133.233-1.8L0,8.044Z" transform="translate(0 6.358)" fill="#f5d7b4"/>
    <path id="Path_184-5" data-name="Path 184" d="M0,15.667v3.6l133.231-1.8,133.233-1.8-133.233-1.8L0,12.066Z" transform="translate(0 9.538)" fill="#f5d7b4"/>
    <path id="Path_185-5" data-name="Path 185" d="M0,19.689v3.6l133.231-1.8,133.233-1.8-133.233-1.8L0,16.088Z" transform="translate(0 12.718)" fill="#f5d7b4"/>
    <path id="Path_186-5" data-name="Path 186" d="M0,23.711v3.6l133.231-1.8,133.233-1.8-133.233-1.8L0,20.111Z" transform="translate(0 15.897)" fill="#f5d7b4"/>
    <path id="Path_187-5" data-name="Path 187" d="M0,27.735v3.6l133.231-1.8,133.233-1.8-133.233-1.8L0,24.133Z" transform="translate(0 19.077)" fill="#f5d7b4"/>
    <path id="Path_188-5" data-name="Path 188" d="M0,31.757v3.6l133.231-1.8,133.233-1.8-133.233-1.8L0,28.155Z" transform="translate(0 22.256)" fill="#f5d7b4"/>
    <path id="Path_189-5" data-name="Path 189" d="M0,35.778v3.6l133.231-1.8,133.233-1.8-133.233-1.8L0,32.178Z" transform="translate(0 25.437)" fill="#f5d7b4"/>
    <path id="Path_190-5" data-name="Path 190" d="M0,39.8v3.6l133.231-1.8,133.233-1.8L133.231,38,0,36.2Z" transform="translate(0 28.615)" fill="#f5d7b4"/>
    <path id="Path_191-5" data-name="Path 191" d="M0,43.823v3.6l133.231-1.8,133.233-1.8-133.233-1.8L0,40.222Z" transform="translate(0 31.796)" fill="#f5d7b4"/>
    <path id="Path_192-5" data-name="Path 192" d="M0,47.846v3.6l133.231-1.8,133.233-1.8-133.233-1.8L0,44.243Z" transform="translate(0 34.974)" fill="#f5d7b4"/>
    <path id="Path_193-5" data-name="Path 193" d="M0,51.868v3.6l133.231-1.8,133.233-1.8-133.233-1.8L0,48.265Z" transform="translate(0 38.154)" fill="#f5d7b4"/>
    <path id="Path_194-5" data-name="Path 194" d="M0,55.889v3.6l133.231-1.8,133.233-1.8-133.233-1.8L0,52.288Z" transform="translate(0 41.334)" fill="#f5d7b4"/>
    <path id="Path_195-5" data-name="Path 195" d="M0,59.912v3.6l133.231-1.8,133.233-1.8-133.233-1.8L0,56.309Z" transform="translate(0 44.513)" fill="#f5d7b4"/>
    <path id="Path_196-5" data-name="Path 196" d="M0,63.934v3.6l133.231-1.8,133.233-1.8-133.233-1.8L0,60.331Z" transform="translate(0 47.693)" fill="#f5d7b4"/>
    <path id="Path_197-5" data-name="Path 197" d="M0,67.955v3.6l133.231-1.8,133.233-1.8-133.233-1.8L0,64.355Z" transform="translate(0 50.873)" fill="#f5d7b4"/>
    <path id="Path_198-5" data-name="Path 198" d="M0,71.978v3.6l133.231-1.8,133.233-1.8-133.233-1.8L0,68.376Z" transform="translate(0 54.052)" fill="#f5d7b4"/>
    <path id="Path_199-5" data-name="Path 199" d="M0,76v3.6l133.231-1.8L266.464,76,133.231,74.2,0,72.4Z" transform="translate(0 57.231)" fill="#f5d7b4"/>
    <path id="Path_200-5" data-name="Path 200" d="M0,80.022v3.6l133.231-1.8,133.233-1.8-133.233-1.8L0,76.421Z" transform="translate(0 60.412)" fill="#f5d7b4"/>
    <path id="Path_201-5" data-name="Path 201" d="M0,84.044v3.6l133.231-1.8,133.233-1.8-133.233-1.8L0,80.442Z" transform="translate(0 63.591)" fill="#f5d7b4"/>
    <path id="Path_202-5" data-name="Path 202" d="M0,88.067v3.6l133.231-1.8,133.233-1.8-133.233-1.8L0,84.464Z" transform="translate(0 66.77)" fill="#f5d7b4"/>
    <path id="Path_203-5" data-name="Path 203" d="M0,92.088v3.6l133.231-1.8,133.233-1.8-133.233-1.8L0,88.487Z" transform="translate(0 69.951)" fill="#f5d7b4"/>
    <path id="Path_204-5" data-name="Path 204" d="M0,96.11v3.6l133.231-1.8,133.233-1.8-133.233-1.8L0,92.509Z" transform="translate(0 73.13)" fill="#f5d7b4"/>
    <path id="Path_205-5" data-name="Path 205" d="M0,100.132v3.6l133.231-1.8,133.233-1.8-133.233-1.8L0,96.531Z" transform="translate(0 76.31)" fill="#f5d7b4"/>
    <path id="Path_206-5" data-name="Path 206" d="M0,104.154v3.6l133.231-1.8,133.233-1.8-133.233-1.8L0,100.553Z" transform="translate(0 79.489)" fill="#f5d7b4"/>
    <path id="Path_207-5" data-name="Path 207" d="M0,108.176v3.6l133.231-1.8,133.233-1.8-133.233-1.8L0,104.575Z" transform="translate(0 82.669)" fill="#f5d7b4"/>
    <path id="Path_208-5" data-name="Path 208" d="M0,112.2v3.6L133.231,114l133.233-1.8-133.233-1.8L0,108.6Z" transform="translate(0 85.848)" fill="#f5d7b4"/>
    <path id="Path_209-5" data-name="Path 209" d="M0,116.22v3.6l133.231-1.8,133.233-1.8-133.233-1.8L0,112.62Z" transform="translate(0 89.028)" fill="#f5d7b4"/>
    <path id="Path_210-5" data-name="Path 210" d="M0,120.243v3.6l133.231-1.8,133.233-1.8-133.233-1.8L0,116.642Z" transform="translate(0 92.208)" fill="#f5d7b4"/>
    <path id="Path_211-5" data-name="Path 211" d="M0,124.265v3.6l133.231-1.8,133.233-1.8-133.233-1.8L0,120.664Z" transform="translate(0 95.387)" fill="#f5d7b4"/>
    <path id="Path_212-5" data-name="Path 212" d="M0,128.287v3.6l133.231-1.8,133.233-1.8-133.233-1.8L0,124.686Z" transform="translate(0 98.567)" fill="#f5d7b4"/>
    <path id="Path_213-5" data-name="Path 213" d="M0,132.309v3.6l133.231-1.8,133.233-1.8-133.233-1.8L0,128.708Z" transform="translate(0 101.746)" fill="#f5d7b4"/>
    <path id="Path_214-5" data-name="Path 214" d="M0,136.331v3.6l133.231-1.8,133.233-1.8-133.233-1.8L0,132.73Z" transform="translate(0 104.926)" fill="#f5d7b4"/>
    <path id="Path_215-5" data-name="Path 215" d="M0,140.353v3.6l133.231-1.8,133.233-1.8-133.233-1.8L0,136.752Z" transform="translate(0 108.105)" fill="#f5d7b4"/>
    <path id="Path_216-5" data-name="Path 216" d="M0,144.375v3.6l133.231-1.8,133.233-1.8-133.233-1.8L0,140.774Z" transform="translate(0 111.285)" fill="#f5d7b4"/>
    <path id="Path_217-5" data-name="Path 217" d="M0,148.4V152l133.231-1.8,133.233-1.8-133.233-1.8L0,144.8Z" transform="translate(0 114.465)" fill="#f5d7b4"/>
  </g>
  <g id="Group_187" data-name="Group 187" transform="translate(532.928 528.594)">
    <path id="Path_181-6" data-name="Path 181" d="M0,0V7.2L133.231,5.4,266.464,3.6,133.231,1.8Z" transform="translate(0 0)" fill="#f5d7b4"/>
    <path id="Path_182-6" data-name="Path 182" d="M0,7.623v3.6l133.231-1.8,133.233-1.8-133.233-1.8L0,4.022Z" transform="translate(0 3.179)" fill="#f5d7b4"/>
    <path id="Path_183-6" data-name="Path 183" d="M0,11.645v3.6l133.231-1.8,133.233-1.8-133.233-1.8L0,8.044Z" transform="translate(0 6.358)" fill="#f5d7b4"/>
    <path id="Path_184-6" data-name="Path 184" d="M0,15.667v3.6l133.231-1.8,133.233-1.8-133.233-1.8L0,12.066Z" transform="translate(0 9.538)" fill="#f5d7b4"/>
    <path id="Path_185-6" data-name="Path 185" d="M0,19.689v3.6l133.231-1.8,133.233-1.8-133.233-1.8L0,16.088Z" transform="translate(0 12.718)" fill="#f5d7b4"/>
    <path id="Path_186-6" data-name="Path 186" d="M0,23.711v3.6l133.231-1.8,133.233-1.8-133.233-1.8L0,20.111Z" transform="translate(0 15.897)" fill="#f5d7b4"/>
    <path id="Path_187-6" data-name="Path 187" d="M0,27.735v3.6l133.231-1.8,133.233-1.8-133.233-1.8L0,24.133Z" transform="translate(0 19.077)" fill="#f5d7b4"/>
    <path id="Path_188-6" data-name="Path 188" d="M0,31.757v3.6l133.231-1.8,133.233-1.8-133.233-1.8L0,28.155Z" transform="translate(0 22.256)" fill="#f5d7b4"/>
    <path id="Path_189-6" data-name="Path 189" d="M0,35.778v3.6l133.231-1.8,133.233-1.8-133.233-1.8L0,32.178Z" transform="translate(0 25.437)" fill="#f5d7b4"/>
    <path id="Path_190-6" data-name="Path 190" d="M0,39.8v3.6l133.231-1.8,133.233-1.8L133.231,38,0,36.2Z" transform="translate(0 28.615)" fill="#f5d7b4"/>
    <path id="Path_191-6" data-name="Path 191" d="M0,43.823v3.6l133.231-1.8,133.233-1.8-133.233-1.8L0,40.222Z" transform="translate(0 31.796)" fill="#f5d7b4"/>
    <path id="Path_192-6" data-name="Path 192" d="M0,47.846v3.6l133.231-1.8,133.233-1.8-133.233-1.8L0,44.243Z" transform="translate(0 34.974)" fill="#f5d7b4"/>
    <path id="Path_193-6" data-name="Path 193" d="M0,51.868v3.6l133.231-1.8,133.233-1.8-133.233-1.8L0,48.265Z" transform="translate(0 38.154)" fill="#f5d7b4"/>
    <path id="Path_194-6" data-name="Path 194" d="M0,55.889v3.6l133.231-1.8,133.233-1.8-133.233-1.8L0,52.288Z" transform="translate(0 41.334)" fill="#f5d7b4"/>
    <path id="Path_195-6" data-name="Path 195" d="M0,59.912v3.6l133.231-1.8,133.233-1.8-133.233-1.8L0,56.309Z" transform="translate(0 44.513)" fill="#f5d7b4"/>
    <path id="Path_196-6" data-name="Path 196" d="M0,63.934v3.6l133.231-1.8,133.233-1.8-133.233-1.8L0,60.331Z" transform="translate(0 47.693)" fill="#f5d7b4"/>
    <path id="Path_197-6" data-name="Path 197" d="M0,67.955v3.6l133.231-1.8,133.233-1.8-133.233-1.8L0,64.355Z" transform="translate(0 50.873)" fill="#f5d7b4"/>
    <path id="Path_198-6" data-name="Path 198" d="M0,71.978v3.6l133.231-1.8,133.233-1.8-133.233-1.8L0,68.376Z" transform="translate(0 54.052)" fill="#f5d7b4"/>
    <path id="Path_199-6" data-name="Path 199" d="M0,76v3.6l133.231-1.8L266.464,76,133.231,74.2,0,72.4Z" transform="translate(0 57.231)" fill="#f5d7b4"/>
    <path id="Path_200-6" data-name="Path 200" d="M0,80.022v3.6l133.231-1.8,133.233-1.8-133.233-1.8L0,76.421Z" transform="translate(0 60.412)" fill="#f5d7b4"/>
    <path id="Path_201-6" data-name="Path 201" d="M0,84.044v3.6l133.231-1.8,133.233-1.8-133.233-1.8L0,80.442Z" transform="translate(0 63.591)" fill="#f5d7b4"/>
    <path id="Path_202-6" data-name="Path 202" d="M0,88.067v3.6l133.231-1.8,133.233-1.8-133.233-1.8L0,84.464Z" transform="translate(0 66.77)" fill="#f5d7b4"/>
    <path id="Path_203-6" data-name="Path 203" d="M0,92.088v3.6l133.231-1.8,133.233-1.8-133.233-1.8L0,88.487Z" transform="translate(0 69.951)" fill="#f5d7b4"/>
    <path id="Path_204-6" data-name="Path 204" d="M0,96.11v3.6l133.231-1.8,133.233-1.8-133.233-1.8L0,92.509Z" transform="translate(0 73.13)" fill="#f5d7b4"/>
    <path id="Path_205-6" data-name="Path 205" d="M0,100.132v3.6l133.231-1.8,133.233-1.8-133.233-1.8L0,96.531Z" transform="translate(0 76.31)" fill="#f5d7b4"/>
    <path id="Path_206-6" data-name="Path 206" d="M0,104.154v3.6l133.231-1.8,133.233-1.8-133.233-1.8L0,100.553Z" transform="translate(0 79.489)" fill="#f5d7b4"/>
    <path id="Path_207-6" data-name="Path 207" d="M0,108.176v3.6l133.231-1.8,133.233-1.8-133.233-1.8L0,104.575Z" transform="translate(0 82.669)" fill="#f5d7b4"/>
    <path id="Path_208-6" data-name="Path 208" d="M0,112.2v3.6L133.231,114l133.233-1.8-133.233-1.8L0,108.6Z" transform="translate(0 85.848)" fill="#f5d7b4"/>
    <path id="Path_209-6" data-name="Path 209" d="M0,116.22v3.6l133.231-1.8,133.233-1.8-133.233-1.8L0,112.62Z" transform="translate(0 89.028)" fill="#f5d7b4"/>
    <path id="Path_210-6" data-name="Path 210" d="M0,120.243v3.6l133.231-1.8,133.233-1.8-133.233-1.8L0,116.642Z" transform="translate(0 92.208)" fill="#f5d7b4"/>
    <path id="Path_211-6" data-name="Path 211" d="M0,124.265v3.6l133.231-1.8,133.233-1.8-133.233-1.8L0,120.664Z" transform="translate(0 95.387)" fill="#f5d7b4"/>
    <path id="Path_212-6" data-name="Path 212" d="M0,128.287v3.6l133.231-1.8,133.233-1.8-133.233-1.8L0,124.686Z" transform="translate(0 98.567)" fill="#f5d7b4"/>
    <path id="Path_213-6" data-name="Path 213" d="M0,132.309v3.6l133.231-1.8,133.233-1.8-133.233-1.8L0,128.708Z" transform="translate(0 101.746)" fill="#f5d7b4"/>
    <path id="Path_214-6" data-name="Path 214" d="M0,136.331v3.6l133.231-1.8,133.233-1.8-133.233-1.8L0,132.73Z" transform="translate(0 104.926)" fill="#f5d7b4"/>
    <path id="Path_215-6" data-name="Path 215" d="M0,140.353v3.6l133.231-1.8,133.233-1.8-133.233-1.8L0,136.752Z" transform="translate(0 108.105)" fill="#f5d7b4"/>
    <path id="Path_216-6" data-name="Path 216" d="M0,144.375v3.6l133.231-1.8,133.233-1.8-133.233-1.8L0,140.774Z" transform="translate(0 111.285)" fill="#f5d7b4"/>
    <path id="Path_217-6" data-name="Path 217" d="M0,148.4V152l133.231-1.8,133.233-1.8-133.233-1.8L0,144.8Z" transform="translate(0 114.465)" fill="#f5d7b4"/>
  </g>
  <g id="Group_185" data-name="Group 185">
    <path id="Path_181-7" data-name="Path 181" d="M0,0V7.2L133.231,5.4,266.464,3.6,133.231,1.8Z" transform="translate(0 0)" fill="#f5d7b4"/>
    <path id="Path_182-7" data-name="Path 182" d="M0,7.623v3.6l133.231-1.8,133.233-1.8-133.233-1.8L0,4.022Z" transform="translate(0 3.179)" fill="#f5d7b4"/>
    <path id="Path_183-7" data-name="Path 183" d="M0,11.645v3.6l133.231-1.8,133.233-1.8-133.233-1.8L0,8.044Z" transform="translate(0 6.358)" fill="#f5d7b4"/>
    <path id="Path_184-7" data-name="Path 184" d="M0,15.667v3.6l133.231-1.8,133.233-1.8-133.233-1.8L0,12.066Z" transform="translate(0 9.538)" fill="#f5d7b4"/>
    <path id="Path_185-7" data-name="Path 185" d="M0,19.689v3.6l133.231-1.8,133.233-1.8-133.233-1.8L0,16.088Z" transform="translate(0 12.718)" fill="#f5d7b4"/>
    <path id="Path_186-7" data-name="Path 186" d="M0,23.711v3.6l133.231-1.8,133.233-1.8-133.233-1.8L0,20.111Z" transform="translate(0 15.897)" fill="#f5d7b4"/>
    <path id="Path_187-7" data-name="Path 187" d="M0,27.735v3.6l133.231-1.8,133.233-1.8-133.233-1.8L0,24.133Z" transform="translate(0 19.077)" fill="#f5d7b4"/>
    <path id="Path_188-7" data-name="Path 188" d="M0,31.757v3.6l133.231-1.8,133.233-1.8-133.233-1.8L0,28.155Z" transform="translate(0 22.256)" fill="#f5d7b4"/>
    <path id="Path_189-7" data-name="Path 189" d="M0,35.778v3.6l133.231-1.8,133.233-1.8-133.233-1.8L0,32.178Z" transform="translate(0 25.437)" fill="#f5d7b4"/>
    <path id="Path_190-7" data-name="Path 190" d="M0,39.8v3.6l133.231-1.8,133.233-1.8L133.231,38,0,36.2Z" transform="translate(0 28.615)" fill="#f5d7b4"/>
    <path id="Path_191-7" data-name="Path 191" d="M0,43.823v3.6l133.231-1.8,133.233-1.8-133.233-1.8L0,40.222Z" transform="translate(0 31.796)" fill="#f5d7b4"/>
    <path id="Path_192-7" data-name="Path 192" d="M0,47.846v3.6l133.231-1.8,133.233-1.8-133.233-1.8L0,44.243Z" transform="translate(0 34.974)" fill="#f5d7b4"/>
    <path id="Path_193-7" data-name="Path 193" d="M0,51.868v3.6l133.231-1.8,133.233-1.8-133.233-1.8L0,48.265Z" transform="translate(0 38.154)" fill="#f5d7b4"/>
    <path id="Path_194-7" data-name="Path 194" d="M0,55.889v3.6l133.231-1.8,133.233-1.8-133.233-1.8L0,52.288Z" transform="translate(0 41.334)" fill="#f5d7b4"/>
    <path id="Path_195-7" data-name="Path 195" d="M0,59.912v3.6l133.231-1.8,133.233-1.8-133.233-1.8L0,56.309Z" transform="translate(0 44.513)" fill="#f5d7b4"/>
    <path id="Path_196-7" data-name="Path 196" d="M0,63.934v3.6l133.231-1.8,133.233-1.8-133.233-1.8L0,60.331Z" transform="translate(0 47.693)" fill="#f5d7b4"/>
    <path id="Path_197-7" data-name="Path 197" d="M0,67.955v3.6l133.231-1.8,133.233-1.8-133.233-1.8L0,64.355Z" transform="translate(0 50.873)" fill="#f5d7b4"/>
    <path id="Path_198-7" data-name="Path 198" d="M0,71.978v3.6l133.231-1.8,133.233-1.8-133.233-1.8L0,68.376Z" transform="translate(0 54.052)" fill="#f5d7b4"/>
    <path id="Path_199-7" data-name="Path 199" d="M0,76v3.6l133.231-1.8L266.464,76,133.231,74.2,0,72.4Z" transform="translate(0 57.231)" fill="#f5d7b4"/>
    <path id="Path_200-7" data-name="Path 200" d="M0,80.022v3.6l133.231-1.8,133.233-1.8-133.233-1.8L0,76.421Z" transform="translate(0 60.412)" fill="#f5d7b4"/>
    <path id="Path_201-7" data-name="Path 201" d="M0,84.044v3.6l133.231-1.8,133.233-1.8-133.233-1.8L0,80.442Z" transform="translate(0 63.591)" fill="#f5d7b4"/>
    <path id="Path_202-7" data-name="Path 202" d="M0,88.067v3.6l133.231-1.8,133.233-1.8-133.233-1.8L0,84.464Z" transform="translate(0 66.77)" fill="#f5d7b4"/>
    <path id="Path_203-7" data-name="Path 203" d="M0,92.088v3.6l133.231-1.8,133.233-1.8-133.233-1.8L0,88.487Z" transform="translate(0 69.951)" fill="#f5d7b4"/>
    <path id="Path_204-7" data-name="Path 204" d="M0,96.11v3.6l133.231-1.8,133.233-1.8-133.233-1.8L0,92.509Z" transform="translate(0 73.13)" fill="#f5d7b4"/>
    <path id="Path_205-7" data-name="Path 205" d="M0,100.132v3.6l133.231-1.8,133.233-1.8-133.233-1.8L0,96.531Z" transform="translate(0 76.31)" fill="#f5d7b4"/>
    <path id="Path_206-7" data-name="Path 206" d="M0,104.154v3.6l133.231-1.8,133.233-1.8-133.233-1.8L0,100.553Z" transform="translate(0 79.489)" fill="#f5d7b4"/>
    <path id="Path_207-7" data-name="Path 207" d="M0,108.176v3.6l133.231-1.8,133.233-1.8-133.233-1.8L0,104.575Z" transform="translate(0 82.669)" fill="#f5d7b4"/>
    <path id="Path_208-7" data-name="Path 208" d="M0,112.2v3.6L133.231,114l133.233-1.8-133.233-1.8L0,108.6Z" transform="translate(0 85.848)" fill="#f5d7b4"/>
    <path id="Path_209-7" data-name="Path 209" d="M0,116.22v3.6l133.231-1.8,133.233-1.8-133.233-1.8L0,112.62Z" transform="translate(0 89.028)" fill="#f5d7b4"/>
    <path id="Path_210-7" data-name="Path 210" d="M0,120.243v3.6l133.231-1.8,133.233-1.8-133.233-1.8L0,116.642Z" transform="translate(0 92.208)" fill="#f5d7b4"/>
    <path id="Path_211-7" data-name="Path 211" d="M0,124.265v3.6l133.231-1.8,133.233-1.8-133.233-1.8L0,120.664Z" transform="translate(0 95.387)" fill="#f5d7b4"/>
    <path id="Path_212-7" data-name="Path 212" d="M0,128.287v3.6l133.231-1.8,133.233-1.8-133.233-1.8L0,124.686Z" transform="translate(0 98.567)" fill="#f5d7b4"/>
    <path id="Path_213-7" data-name="Path 213" d="M0,132.309v3.6l133.231-1.8,133.233-1.8-133.233-1.8L0,128.708Z" transform="translate(0 101.746)" fill="#f5d7b4"/>
    <path id="Path_214-7" data-name="Path 214" d="M0,136.331v3.6l133.231-1.8,133.233-1.8-133.233-1.8L0,132.73Z" transform="translate(0 104.926)" fill="#f5d7b4"/>
    <path id="Path_215-7" data-name="Path 215" d="M0,140.353v3.6l133.231-1.8,133.233-1.8-133.233-1.8L0,136.752Z" transform="translate(0 108.105)" fill="#f5d7b4"/>
    <path id="Path_216-7" data-name="Path 216" d="M0,144.375v3.6l133.231-1.8,133.233-1.8-133.233-1.8L0,140.774Z" transform="translate(0 111.285)" fill="#f5d7b4"/>
    <path id="Path_217-7" data-name="Path 217" d="M0,148.4V152l133.231-1.8,133.233-1.8-133.233-1.8L0,144.8Z" transform="translate(0 114.465)" fill="#f5d7b4"/>
  </g>
  <g id="Group_188" data-name="Group 188" transform="translate(0 528.594)">
    <path id="Path_181-8" data-name="Path 181" d="M0,0V7.2L133.231,5.4,266.464,3.6,133.231,1.8Z" transform="translate(0 0)" fill="#f5d7b4"/>
    <path id="Path_182-8" data-name="Path 182" d="M0,7.623v3.6l133.231-1.8,133.233-1.8-133.233-1.8L0,4.022Z" transform="translate(0 3.179)" fill="#f5d7b4"/>
    <path id="Path_183-8" data-name="Path 183" d="M0,11.645v3.6l133.231-1.8,133.233-1.8-133.233-1.8L0,8.044Z" transform="translate(0 6.358)" fill="#f5d7b4"/>
    <path id="Path_184-8" data-name="Path 184" d="M0,15.667v3.6l133.231-1.8,133.233-1.8-133.233-1.8L0,12.066Z" transform="translate(0 9.538)" fill="#f5d7b4"/>
    <path id="Path_185-8" data-name="Path 185" d="M0,19.689v3.6l133.231-1.8,133.233-1.8-133.233-1.8L0,16.088Z" transform="translate(0 12.718)" fill="#f5d7b4"/>
    <path id="Path_186-8" data-name="Path 186" d="M0,23.711v3.6l133.231-1.8,133.233-1.8-133.233-1.8L0,20.111Z" transform="translate(0 15.897)" fill="#f5d7b4"/>
    <path id="Path_187-8" data-name="Path 187" d="M0,27.735v3.6l133.231-1.8,133.233-1.8-133.233-1.8L0,24.133Z" transform="translate(0 19.077)" fill="#f5d7b4"/>
    <path id="Path_188-8" data-name="Path 188" d="M0,31.757v3.6l133.231-1.8,133.233-1.8-133.233-1.8L0,28.155Z" transform="translate(0 22.256)" fill="#f5d7b4"/>
    <path id="Path_189-8" data-name="Path 189" d="M0,35.778v3.6l133.231-1.8,133.233-1.8-133.233-1.8L0,32.178Z" transform="translate(0 25.437)" fill="#f5d7b4"/>
    <path id="Path_190-8" data-name="Path 190" d="M0,39.8v3.6l133.231-1.8,133.233-1.8L133.231,38,0,36.2Z" transform="translate(0 28.615)" fill="#f5d7b4"/>
    <path id="Path_191-8" data-name="Path 191" d="M0,43.823v3.6l133.231-1.8,133.233-1.8-133.233-1.8L0,40.222Z" transform="translate(0 31.796)" fill="#f5d7b4"/>
    <path id="Path_192-8" data-name="Path 192" d="M0,47.846v3.6l133.231-1.8,133.233-1.8-133.233-1.8L0,44.243Z" transform="translate(0 34.974)" fill="#f5d7b4"/>
    <path id="Path_193-8" data-name="Path 193" d="M0,51.868v3.6l133.231-1.8,133.233-1.8-133.233-1.8L0,48.265Z" transform="translate(0 38.154)" fill="#f5d7b4"/>
    <path id="Path_194-8" data-name="Path 194" d="M0,55.889v3.6l133.231-1.8,133.233-1.8-133.233-1.8L0,52.288Z" transform="translate(0 41.334)" fill="#f5d7b4"/>
    <path id="Path_195-8" data-name="Path 195" d="M0,59.912v3.6l133.231-1.8,133.233-1.8-133.233-1.8L0,56.309Z" transform="translate(0 44.513)" fill="#f5d7b4"/>
    <path id="Path_196-8" data-name="Path 196" d="M0,63.934v3.6l133.231-1.8,133.233-1.8-133.233-1.8L0,60.331Z" transform="translate(0 47.693)" fill="#f5d7b4"/>
    <path id="Path_197-8" data-name="Path 197" d="M0,67.955v3.6l133.231-1.8,133.233-1.8-133.233-1.8L0,64.355Z" transform="translate(0 50.873)" fill="#f5d7b4"/>
    <path id="Path_198-8" data-name="Path 198" d="M0,71.978v3.6l133.231-1.8,133.233-1.8-133.233-1.8L0,68.376Z" transform="translate(0 54.052)" fill="#f5d7b4"/>
    <path id="Path_199-8" data-name="Path 199" d="M0,76v3.6l133.231-1.8L266.464,76,133.231,74.2,0,72.4Z" transform="translate(0 57.231)" fill="#f5d7b4"/>
    <path id="Path_200-8" data-name="Path 200" d="M0,80.022v3.6l133.231-1.8,133.233-1.8-133.233-1.8L0,76.421Z" transform="translate(0 60.412)" fill="#f5d7b4"/>
    <path id="Path_201-8" data-name="Path 201" d="M0,84.044v3.6l133.231-1.8,133.233-1.8-133.233-1.8L0,80.442Z" transform="translate(0 63.591)" fill="#f5d7b4"/>
    <path id="Path_202-8" data-name="Path 202" d="M0,88.067v3.6l133.231-1.8,133.233-1.8-133.233-1.8L0,84.464Z" transform="translate(0 66.77)" fill="#f5d7b4"/>
    <path id="Path_203-8" data-name="Path 203" d="M0,92.088v3.6l133.231-1.8,133.233-1.8-133.233-1.8L0,88.487Z" transform="translate(0 69.951)" fill="#f5d7b4"/>
    <path id="Path_204-8" data-name="Path 204" d="M0,96.11v3.6l133.231-1.8,133.233-1.8-133.233-1.8L0,92.509Z" transform="translate(0 73.13)" fill="#f5d7b4"/>
    <path id="Path_205-8" data-name="Path 205" d="M0,100.132v3.6l133.231-1.8,133.233-1.8-133.233-1.8L0,96.531Z" transform="translate(0 76.31)" fill="#f5d7b4"/>
    <path id="Path_206-8" data-name="Path 206" d="M0,104.154v3.6l133.231-1.8,133.233-1.8-133.233-1.8L0,100.553Z" transform="translate(0 79.489)" fill="#f5d7b4"/>
    <path id="Path_207-8" data-name="Path 207" d="M0,108.176v3.6l133.231-1.8,133.233-1.8-133.233-1.8L0,104.575Z" transform="translate(0 82.669)" fill="#f5d7b4"/>
    <path id="Path_208-8" data-name="Path 208" d="M0,112.2v3.6L133.231,114l133.233-1.8-133.233-1.8L0,108.6Z" transform="translate(0 85.848)" fill="#f5d7b4"/>
    <path id="Path_209-8" data-name="Path 209" d="M0,116.22v3.6l133.231-1.8,133.233-1.8-133.233-1.8L0,112.62Z" transform="translate(0 89.028)" fill="#f5d7b4"/>
    <path id="Path_210-8" data-name="Path 210" d="M0,120.243v3.6l133.231-1.8,133.233-1.8-133.233-1.8L0,116.642Z" transform="translate(0 92.208)" fill="#f5d7b4"/>
    <path id="Path_211-8" data-name="Path 211" d="M0,124.265v3.6l133.231-1.8,133.233-1.8-133.233-1.8L0,120.664Z" transform="translate(0 95.387)" fill="#f5d7b4"/>
    <path id="Path_212-8" data-name="Path 212" d="M0,128.287v3.6l133.231-1.8,133.233-1.8-133.233-1.8L0,124.686Z" transform="translate(0 98.567)" fill="#f5d7b4"/>
    <path id="Path_213-8" data-name="Path 213" d="M0,132.309v3.6l133.231-1.8,133.233-1.8-133.233-1.8L0,128.708Z" transform="translate(0 101.746)" fill="#f5d7b4"/>
    <path id="Path_214-8" data-name="Path 214" d="M0,136.331v3.6l133.231-1.8,133.233-1.8-133.233-1.8L0,132.73Z" transform="translate(0 104.926)" fill="#f5d7b4"/>
    <path id="Path_215-8" data-name="Path 215" d="M0,140.353v3.6l133.231-1.8,133.233-1.8-133.233-1.8L0,136.752Z" transform="translate(0 108.105)" fill="#f5d7b4"/>
    <path id="Path_216-8" data-name="Path 216" d="M0,144.375v3.6l133.231-1.8,133.233-1.8-133.233-1.8L0,140.774Z" transform="translate(0 111.285)" fill="#f5d7b4"/>
    <path id="Path_217-8" data-name="Path 217" d="M0,148.4V152l133.231-1.8,133.233-1.8-133.233-1.8L0,144.8Z" transform="translate(0 114.465)" fill="#f5d7b4"/>
  </g>
</svg>
