<svg xmlns="http://www.w3.org/2000/svg" width="308" height="45.708" viewBox="0 0 308 45.708">
  <g id="Group_221" data-name="Group 221" transform="translate(-691 271.708)">
    <text id="金峰鄉原生藝術國際博覽會" transform="translate(739 -243)" fill="#3a3a38" font-size="19" font-family="NotoSansCJKtc-Bold, Noto Sans CJK TC" font-weight="700" letter-spacing="0.15em"><tspan x="0" y="0">金峰鄉原生藝術國際博覽會</tspan></text>
    <g id="Group_220" data-name="Group 220" transform="translate(55.273 -34)">
      <g id="Group_219" data-name="Group 219">
        <path id="Path_504" data-name="Path 504" d="M30.956,0H42.49s-5.121,2.51-.716,6.337c2.547,2.213,6.736,5.28,15.08,7.95l-3.242,4.1S42.148,14.859,36.651,7.659c0,0-5.281,7.3-17.01,10.728l-3.364-4.1s9.617-2.36,15.482-8.082c0,0,4.067-3.505-.8-6.205" transform="translate(619.45 -237.708)" fill="#dfa251"/>
        <path id="Path_505" data-name="Path 505" d="M60.171,40H37.935a.733.733,0,0,1-.733-.733V35.631H60.9v3.633a.733.733,0,0,1-.733.733" transform="translate(606.984 -258.934)" fill="#dfa251"/>
        <path id="Path_506" data-name="Path 506" d="M57.435,58.595h-25.9a.614.614,0,0,1-.564-.37l-1.34-3.081a.614.614,0,0,1,.564-.859H58.774a.615.615,0,0,1,.564.859L58,58.225a.615.615,0,0,1-.564.37" transform="translate(611.523 -270.047)" fill="#dfa251"/>
        <path id="Path_507" data-name="Path 507" d="M54.422,62.165s-2,2.384-7.915,2.3a6.9,6.9,0,0,1-5.417-2.6,8.343,8.343,0,0,1-1.865-5.316V46.431H35.418V56.545a8.342,8.342,0,0,1-1.864,5.316,6.9,6.9,0,0,1-5.417,2.6c-5.912.088-7.915-2.3-7.915-2.3l-2.766,8.392a16.058,16.058,0,0,1,5.388-1.144c2.665,0,8.668,1.076,14.477-5.749,5.81,6.825,11.812,5.749,14.478,5.749a16.058,16.058,0,0,1,5.388,1.144Z" transform="translate(618.747 -265.368)" fill="#dfa251"/>
        <path id="Path_508" data-name="Path 508" d="M80.519,75.13,85.04,67.7h-4.9a.807.807,0,0,0-.745.5l-1.921,4.59a.807.807,0,0,0,.388,1.037Z" transform="translate(583.03 -278.039)" fill="#dfa251"/>
        <path id="Path_509" data-name="Path 509" d="M41.724,75.13,37.2,67.7h4.9a.807.807,0,0,1,.745.5l1.921,4.59a.807.807,0,0,1-.389,1.037Z" transform="translate(606.984 -278.039)" fill="#dfa251"/>
      </g>
      <path id="Path_510" data-name="Path 510" d="M65.7,100.156a2.6,2.6,0,1,1-2.6-2.6,2.6,2.6,0,0,1,2.6,2.6" transform="translate(593.101 -295.826)" fill="#dfa251"/>
    </g>
    <text id="INDIGENOUS_ART_INTERNATIONAL_EXPO" data-name="INDIGENOUS ART INTERNATIONAL EXPO" transform="translate(868 -229)" fill="#3a3a38" font-size="10" font-family="NotoSansCJKtc-Medium, Noto Sans CJK TC" font-weight="500" letter-spacing="0.204em"><tspan x="-128.11" y="0">INDIGENOUS ART INTERNATIONAL EXPO</tspan></text>
  </g>
</svg>
