<?xml version="1.0" encoding="UTF-8"?>
<svg id="a" data-name="圖層 1" xmlns="http://www.w3.org/2000/svg" width="695.09" height="1080" xmlns:xlink="http://www.w3.org/1999/xlink" viewBox="0 0 695.09 1080">
  <defs>
    <clipPath id="b">
      <rect x="-1224.91" width="1920" height="1080" fill="none"/>
    </clipPath>
    <linearGradient id="c" data-name="未命名漸層 31" x1="537.62" y1="489.59" x2="537.62" y2="402.71" gradientUnits="userSpaceOnUse">
      <stop offset="0" stop-color="#c8c9c9"/>
      <stop offset="1" stop-color="#b4b4b5"/>
    </linearGradient>
    <linearGradient id="d" data-name="未命名漸層 31" x1="536.87" y1="598.11" x2="536.87" y2="686.72" xlink:href="#c"/>
    <linearGradient id="e" data-name="未命名漸層 22" x1="208.34" y1="816.15" x2="687.6" y2="816.15" gradientUnits="userSpaceOnUse">
      <stop offset="0" stop-color="#dbdcdc"/>
      <stop offset="1" stop-color="#c8c9c9"/>
    </linearGradient>
    <linearGradient id="f" data-name="未命名漸層 31" x1="698.44" y1="822.79" x2="651.42" y2="822.79" xlink:href="#c"/>
    <linearGradient id="g" data-name="未命名漸層 31" x1="341.67" y1="735.59" x2="296.45" y2="901.98" xlink:href="#c"/>
    <linearGradient id="h" data-name="未命名漸層 31" x1="542.09" y1="1088.21" x2="542.09" y2="1046.62" gradientTransform="translate(1500.51 329.5) rotate(76.72)" xlink:href="#c"/>
    <linearGradient id="i" data-name="未命名漸層 22" x1="527.04" y1="33.85" x2="527.04" y2="403.65" xlink:href="#e"/>
  </defs>
  <g clip-path="url(#b)">
    <g>
      <path d="M223.92,381.28h627.39v91.32c0,13.39-10.87,24.26-24.26,24.26H248.18c-13.39,0-24.26-10.87-24.26-24.26v-91.32h0Z" fill="url(#c)"/>
      <path d="M879.61,694.98H194.13c-6.47,0-12.33-3.84-14.91-9.78l-35.46-81.55c-4.67-10.74,3.2-22.75,14.91-22.75h756.4c11.71,0,19.58,12.01,14.91,22.75l-35.46,81.55c-2.58,5.94-8.44,9.78-14.91,9.78Z" fill="url(#d)"/>
      <path d="M991.09,913.32s-53.01,63.11-209.51,60.77c-68.47-1.02-113.92-33.07-143.39-68.81-32.54-39.46-49.36-89.56-49.36-140.71v-267.73h-100.74v267.73c0,51.15-16.82,101.25-49.36,140.71-29.47,35.74-74.92,67.79-143.39,68.81-156.51,2.33-209.51-60.77-209.51-60.77l-73.2,222.14s71.94-30.29,142.62-30.29,229.44,28.49,383.22-152.17c153.78,180.66,312.67,152.17,383.22,152.17s142.62,30.29,142.62,30.29l-73.2-222.14Z" fill="url(#e)"/>
      <path d="M736.44,921.11l119.7-196.64h-129.69c-8.62,0-16.39,5.17-19.72,13.12l-50.86,121.5c-4.36,10.43.14,22.45,10.28,27.44l70.3,34.58Z" fill="url(#f)"/>
      <path d="M343.62,921.11l-119.7-196.64h129.69c8.62,0,16.39,5.17,19.72,13.12l50.86,121.5c4.36,10.43-.14,22.45-10.28,27.44l-70.3,34.58Z" fill="url(#g)"/>
      <circle cx="542.09" cy="1112.74" r="68.79" transform="translate(-665.43 1384.67) rotate(-76.72)" fill="url(#h)"/>
      <path d="M388.56,0h305.29s-155.56,66.43-38.93,167.73c67.42,58.56,178.29,139.77,399.17,210.45l-65.83,108.54s-303.44-93.4-448.96-283.98c0,0-139.78,193.11-450.27,283.98L0,378.17s254.57-62.47,409.81-213.93c0,0,107.66-92.77-21.25-164.25Z" fill="url(#i)"/>
    </g>
  </g>
</svg>