<svg xmlns="http://www.w3.org/2000/svg" width="75.498" height="67.109" viewBox="0 0 75.498 67.109">
  <path id="i-car" d="M132.583-701.279v4.194a4.058,4.058,0,0,1-1.206,2.989,4.059,4.059,0,0,1-2.988,1.206h-4.194a4.059,4.059,0,0,1-2.988-1.206A4.058,4.058,0,0,1,120-697.085V-730.64l8.808-25.166a5.943,5.943,0,0,1,2.254-3.041A6.108,6.108,0,0,1,134.68-760h46.138a6.108,6.108,0,0,1,3.618,1.154,5.942,5.942,0,0,1,2.254,3.041L195.5-730.64v33.554a4.059,4.059,0,0,1-1.206,2.989,4.059,4.059,0,0,1-2.989,1.206h-4.194a4.058,4.058,0,0,1-2.988-1.206,4.058,4.058,0,0,1-1.206-2.989v-4.194Zm-.839-37.749h52.01l-4.4-12.583h-43.2Zm-3.355,8.388v0Zm10.486,16.778a6.069,6.069,0,0,0,4.456-1.835,6.068,6.068,0,0,0,1.835-4.457,6.067,6.067,0,0,0-1.835-4.457,6.067,6.067,0,0,0-4.456-1.835,6.067,6.067,0,0,0-4.456,1.835,6.068,6.068,0,0,0-1.835,4.457,6.068,6.068,0,0,0,1.835,4.457A6.069,6.069,0,0,0,138.874-713.862Zm37.749,0a6.069,6.069,0,0,0,4.456-1.835,6.068,6.068,0,0,0,1.835-4.457,6.067,6.067,0,0,0-1.835-4.457,6.067,6.067,0,0,0-4.456-1.835,6.067,6.067,0,0,0-4.457,1.835,6.068,6.068,0,0,0-1.835,4.457,6.068,6.068,0,0,0,1.835,4.457A6.069,6.069,0,0,0,176.623-713.862Zm-48.235,4.194h58.721V-730.64H128.389Z" transform="translate(-120 760)" fill="#3a3a38"/>
</svg>
