<svg xmlns="http://www.w3.org/2000/svg" xmlns:xlink="http://www.w3.org/1999/xlink" width="351.446" height="483.905" viewBox="0 0 351.446 483.905">
  <defs>
    <clipPath id="clip-path">
      <rect id="Rectangle_49" data-name="Rectangle 49" width="351.446" height="483.905" fill="#dfa251"/>
    </clipPath>
  </defs>
  <g id="ci-mark" opacity="0.9">
    <g id="Group_3" data-name="Group 3" clip-path="url(#clip-path)">
      <path id="Path_35" data-name="Path 35" d="M135.989,0H213.21s-34.29,16.8-4.789,42.427c17.055,14.814,45.1,35.354,100.97,53.233l-21.71,27.456S210.924,99.491,174.118,51.282c0,0-35.357,48.847-113.9,71.833L37.7,95.66s64.393-15.8,103.661-54.114c0,0,27.234-23.466-5.375-41.546" transform="translate(-3.933)" fill="#dfa251"/>
      <path id="Path_36" data-name="Path 36" d="M251.856,136.91H108.724a7.783,7.783,0,0,1-7.784-7.784V107.675h158.7v21.451a7.783,7.783,0,0,1-7.783,7.784" transform="translate(-10.529 -11.23)" fill="#dfa251"/>
      <path id="Path_37" data-name="Path 37" d="M264.394,192.906H91a4.114,4.114,0,0,1-3.773-2.473L78.261,169.8a4.114,4.114,0,0,1,3.773-5.754H273.364a4.113,4.113,0,0,1,3.772,5.754l-8.97,20.628a4.113,4.113,0,0,1-3.772,2.473" transform="translate(-8.127 -17.11)" fill="#dfa251"/>
      <path id="Path_38" data-name="Path 38" d="M288.771,245.661s-13.408,15.963-53,15.373A46.2,46.2,0,0,1,199.5,243.628a55.86,55.86,0,0,1-12.485-35.592V140.314H161.537v67.722a55.865,55.865,0,0,1-12.485,35.592,46.206,46.206,0,0,1-36.272,17.406c-39.588.59-53-15.373-53-15.373l-18.517,56.19s18.2-7.663,36.076-7.663c17.846,0,58.037,7.207,96.935-38.491,38.9,45.7,79.089,38.491,96.934,38.491,17.879,0,36.076,7.663,36.076,7.663Z" transform="translate(-4.304 -14.635)" fill="#dfa251"/>
      <path id="Path_39" data-name="Path 39" d="M243.256,254.334l30.277-49.74H240.727a5.407,5.407,0,0,0-4.987,3.319l-12.866,30.735a5.408,5.408,0,0,0,2.6,6.94Z" transform="translate(-23.204 -21.339)" fill="#dfa251"/>
      <path id="Path_40" data-name="Path 40" d="M131.217,254.334l-30.277-49.74h32.807a5.407,5.407,0,0,1,4.987,3.319L151.6,238.648a5.408,5.408,0,0,1-2.6,6.94Z" transform="translate(-10.529 -21.339)" fill="#dfa251"/>
      <path id="Path_41" data-name="Path 41" d="M206.164,312.219a17.4,17.4,0,1,1-17.4-17.4,17.4,17.4,0,0,1,17.4,17.4" transform="translate(-17.875 -30.749)" fill="#dfa251"/>
      <rect id="Rectangle_45" data-name="Rectangle 45" width="4.843" height="27.666" transform="translate(0 339.919)" fill="#dfa251"/>
      <path id="Path_42" data-name="Path 42" d="M14.1,379.5h5.114l12.632,20.381h.077V379.5h4.611v27.665H31.422L18.829,386.824h-.116v20.342H14.1Z" transform="translate(-1.471 -39.582)" fill="#dfa251"/>
      <path id="Path_43" data-name="Path 43" d="M47.841,379.5H59.31c8.524,0,12.2,6.2,12.2,13.833s-3.68,13.832-12.2,13.832H47.841Zm4.843,23.714H57.45c7.595,0,9.222-4.341,9.222-9.88s-1.627-9.881-9.222-9.881H52.684Z" transform="translate(-4.99 -39.581)" fill="#dfa251"/>
      <rect id="Rectangle_46" data-name="Rectangle 46" width="4.843" height="27.666" transform="translate(72.877 339.919)" fill="#dfa251"/>
      <path id="Path_44" data-name="Path 44" d="M119.672,407.09h-3.1l-.737-3.255c-2.6,2.945-4.959,3.913-8.33,3.913-8.291,0-13.251-6.586-13.251-14.491s4.959-14.492,13.251-14.492c6.044,0,11.12,3.216,11.856,9.454h-4.727c-.465-3.642-3.642-5.5-7.129-5.5-5.929,0-8.408,5.231-8.408,10.54s2.479,10.539,8.408,10.539c4.959.077,7.672-2.906,7.749-7.594h-7.361V392.52h11.778Z" transform="translate(-9.832 -39.505)" fill="#dfa251"/>
      <path id="Path_45" data-name="Path 45" d="M130.805,379.5h19.916v4.185H135.648v7.246H149.6v3.952H135.648v8.1h15.344v4.185H130.805Z" transform="translate(-13.644 -39.582)" fill="#dfa251"/>
      <path id="Path_46" data-name="Path 46" d="M160.132,379.5h5.114l12.631,20.381h.078V379.5h4.611v27.665h-5.114L164.86,386.824h-.116v20.342h-4.611Z" transform="translate(-16.703 -39.582)" fill="#dfa251"/>
      <path id="Path_47" data-name="Path 47" d="M218.731,393.257c0,7.9-4.959,14.492-13.252,14.492s-13.251-6.587-13.251-14.492,4.959-14.491,13.251-14.491,13.252,6.587,13.252,14.491m-21.66,0c0,5.309,2.48,10.54,8.408,10.54s8.409-5.231,8.409-10.54-2.48-10.54-8.409-10.54-8.408,5.231-8.408,10.54" transform="translate(-20.051 -39.505)" fill="#dfa251"/>
      <path id="Path_48" data-name="Path 48" d="M228.693,379.5h4.843V395.62c0,3.719.233,8.02,6.51,8.02s6.509-4.3,6.509-8.02V379.5H251.4v17.708c0,7.09-4.534,10.616-11.353,10.616s-11.353-3.525-11.353-10.616Z" transform="translate(-23.854 -39.581)" fill="#dfa251"/>
      <path id="Path_49" data-name="Path 49" d="M265.545,397.868c0,4.263,3.139,5.929,7.013,5.929,4.262,0,5.85-2.092,5.85-4.185a3.285,3.285,0,0,0-2.286-3.409c-1.937-.737-4.455-1.241-8.252-2.287-4.728-1.279-6.122-4.146-6.122-7.013,0-5.541,5.114-8.137,10.112-8.137,5.774,0,10.617,3.061,10.617,8.834h-4.843c-.233-3.565-2.635-4.882-5.967-4.882-2.247,0-5.076.814-5.076,3.6,0,1.938,1.318,3.022,3.293,3.565.425.116,6.548,1.7,7.982,2.132a7.322,7.322,0,0,1,5.386,7.052c0,6.2-5.5,8.678-11,8.678-6.315,0-11.429-3.022-11.545-9.88Z" transform="translate(-27.193 -39.505)" fill="#dfa251"/>
      <path id="Path_50" data-name="Path 50" d="M314.228,379.5h5.154l10.655,27.665h-5.191l-2.6-7.323H311.206l-2.6,7.323h-5Zm-1.7,16.662h8.447l-4.146-11.895h-.116Z" transform="translate(-31.669 -39.581)" fill="#dfa251"/>
      <path id="Path_51" data-name="Path 51" d="M338.346,379.5h13.212c6.044,0,9.144,2.79,9.144,7.478,0,5.309-3.681,6.664-4.573,6.975v.077c1.667.233,4.107,1.473,4.107,5.851,0,3.216.466,6.161,1.512,7.285h-5.192a7.716,7.716,0,0,1-.736-4.068c0-5.076-1.046-7.323-5.5-7.323h-7.129v11.392h-4.843Zm4.843,12.594h7.943c3.061,0,4.727-1.511,4.727-4.418,0-3.526-2.287-4.223-4.805-4.223h-7.865Z" transform="translate(-35.292 -39.581)" fill="#dfa251"/>
      <path id="Path_52" data-name="Path 52" d="M367.371,379.5h22.4v4.185h-8.795v23.481h-4.845V383.686h-8.756Z" transform="translate(-38.32 -39.582)" fill="#dfa251"/>
      <rect id="Rectangle_47" data-name="Rectangle 47" width="4.843" height="27.666" transform="translate(0 386.413)" fill="#dfa251"/>
      <path id="Path_53" data-name="Path 53" d="M16.567,431.408h5.114l12.631,20.381h.078V431.408H39v27.665H33.887L21.294,438.732h-.116v20.342H16.567Z" transform="translate(-1.728 -44.995)" fill="#dfa251"/>
      <path id="Path_54" data-name="Path 54" d="M49.831,431.408H72.226v4.185H63.431v23.481H58.587V435.593H49.831Z" transform="translate(-5.198 -44.995)" fill="#dfa251"/>
      <path id="Path_55" data-name="Path 55" d="M83.181,431.408H103.1v4.185H88.024v7.246h13.949v3.952H88.024v8.1h15.344v4.185H83.181Z" transform="translate(-8.676 -44.995)" fill="#dfa251"/>
      <path id="Path_56" data-name="Path 56" d="M115.19,431.408H128.4c6.044,0,9.144,2.79,9.144,7.478,0,5.309-3.681,6.665-4.572,6.975v.077c1.666.233,4.107,1.473,4.107,5.851,0,3.216.465,6.161,1.511,7.285H133.4a7.717,7.717,0,0,1-.736-4.068c0-5.076-1.046-7.323-5.5-7.323h-7.13v11.392H115.19ZM120.033,444h7.943c3.061,0,4.727-1.511,4.727-4.418,0-3.525-2.286-4.223-4.8-4.223h-7.866Z" transform="translate(-12.015 -44.995)" fill="#dfa251"/>
      <path id="Path_57" data-name="Path 57" d="M150.184,431.408H155.3l12.631,20.381h.078V431.408h4.611v27.665H167.5l-12.593-20.342h-.116v20.342h-4.611Z" transform="translate(-15.665 -44.995)" fill="#dfa251"/>
      <path id="Path_58" data-name="Path 58" d="M193.414,431.408h5.154l10.655,27.666h-5.191l-2.6-7.323H190.392l-2.6,7.323h-5Zm-1.7,16.662h8.447l-4.146-11.895h-.116Z" transform="translate(-19.067 -44.995)" fill="#dfa251"/>
      <path id="Path_59" data-name="Path 59" d="M213.078,431.408h22.4v4.185h-8.795v23.481h-4.845V435.593h-8.756Z" transform="translate(-22.226 -44.995)" fill="#dfa251"/>
      <rect id="Rectangle_48" data-name="Rectangle 48" width="4.843" height="27.666" transform="translate(220.724 386.413)" fill="#dfa251"/>
      <path id="Path_60" data-name="Path 60" d="M288.07,445.165c0,7.9-4.959,14.491-13.251,14.491s-13.252-6.587-13.252-14.491,4.959-14.492,13.252-14.492,13.251,6.587,13.251,14.492m-21.66,0c0,5.309,2.48,10.54,8.409,10.54s8.407-5.231,8.407-10.54-2.479-10.54-8.407-10.54-8.409,5.231-8.409,10.54" transform="translate(-27.283 -44.919)" fill="#dfa251"/>
      <path id="Path_61" data-name="Path 61" d="M300.627,431.408h5.114l12.632,20.381h.077V431.408h4.611v27.665h-5.114l-12.593-20.342h-.116v20.342h-4.611Z" transform="translate(-31.358 -44.995)" fill="#dfa251"/>
      <path id="Path_62" data-name="Path 62" d="M343.858,431.408h5.154l10.655,27.666h-5.191l-2.6-7.323H340.836l-2.6,7.323h-5Zm-1.7,16.662H350.6l-4.146-11.895h-.116Z" transform="translate(-34.76 -44.995)" fill="#dfa251"/>
      <path id="Path_63" data-name="Path 63" d="M370.443,431.408h4.843v23.481H389.35v4.185H370.443Z" transform="translate(-38.64 -44.995)" fill="#dfa251"/>
      <path id="Path_64" data-name="Path 64" d="M46.482,487.617H80.923v8.514H56.608V506H78.923v7.87H56.608v11.286h24.83v8.514H46.482Z" transform="translate(-4.848 -50.858)" fill="#dfa251"/>
      <path id="Path_65" data-name="Path 65" d="M139.861,509.545l-14.834-21.928h11.738l9.029,14.7,9.351-14.7H166.24L151.47,509.61l16.06,24.058h-12.06l-10.061-15.931-10.255,15.931H123.738Z" transform="translate(-12.907 -50.858)" fill="#dfa251"/>
      <path id="Path_66" data-name="Path 66" d="M213.161,487.618h20.768c11.48,0,15.931,7.287,15.931,14.769s-4.451,14.769-15.931,14.769H223.287v16.511H213.161Zm10.126,21.67h7.869c4.708,0,8.9-1.031,8.9-6.9s-4.193-6.9-8.9-6.9h-7.869Z" transform="translate(-22.234 -50.858)" fill="#dfa251"/>
      <path id="Path_67" data-name="Path 67" d="M317.591,486.393c14.253,0,22.637,10.641,22.637,24.315,0,13.286-8.384,23.928-22.637,23.928s-22.638-10.642-22.638-23.928c0-13.674,8.384-24.315,22.638-24.315m0,39.73c9.093,0,12.512-7.741,12.512-15.415,0-8.062-3.419-15.8-12.512-15.8s-12.513,7.74-12.513,15.8c0,7.674,3.419,15.415,12.513,15.415" transform="translate(-30.766 -50.73)" fill="#dfa251"/>
    </g>
  </g>
</svg>
